<svg xmlns="http://www.w3.org/2000/svg" xmlns:xlink="http://www.w3.org/1999/xlink" viewBox="0 0 1256 1080"><defs><style>.cls-1,.cls-12,.cls-13,.cls-14{fill:none;}.cls-2{isolation:isolate;}.cls-3{fill:#d1dde8;}.cls-30,.cls-4{fill:#e7edf4;}.cls-17,.cls-5{fill:#235196;}.cls-6{fill:#4dd0e1;}.cls-11,.cls-15,.cls-16,.cls-17,.cls-18,.cls-19,.cls-20,.cls-21,.cls-22,.cls-23,.cls-24,.cls-25,.cls-26,.cls-27,.cls-28,.cls-29,.cls-7,.cls-8{mix-blend-mode:multiply;}.cls-7{fill:url(#linear-gradient);}.cls-8{fill:url(#linear-gradient-2);}.cls-9{clip-path:url(#clip-path);}.cls-10{fill:#fff;}.cls-11{fill:url(#linear-gradient-3);}.cls-12{stroke:#235196;stroke-linejoin:round;}.cls-12,.cls-13,.cls-14{stroke-width:3px;}.cls-13{stroke:#e7edf4;}.cls-13,.cls-14{stroke-linecap:round;stroke-miterlimit:10;}.cls-14{stroke:#d1dde8;}.cls-15{fill:url(#linear-gradient-4);}.cls-16{fill:url(#linear-gradient-5);}.cls-17{opacity:0.6;}.cls-18{fill:url(#linear-gradient-6);}.cls-19{fill:url(#linear-gradient-7);}.cls-20{fill:url(#linear-gradient-8);}.cls-21{fill:url(#linear-gradient-9);}.cls-22{fill:url(#linear-gradient-10);}.cls-23{fill:url(#linear-gradient-11);}.cls-24{fill:url(#linear-gradient-12);}.cls-25{fill:url(#linear-gradient-13);}.cls-26{fill:url(#linear-gradient-14);}.cls-27{fill:url(#linear-gradient-15);}.cls-28{fill:url(#linear-gradient-16);}.cls-29{fill:url(#linear-gradient-17);}.cls-30{opacity:0.7;}</style><linearGradient id="linear-gradient" x1="498.47" y1="751.41" x2="149.63" y2="604.34" gradientUnits="userSpaceOnUse"><stop offset="0" stop-color="#fff" stop-opacity="0"/><stop offset="1" stop-color="#235196"/></linearGradient><linearGradient id="linear-gradient-2" x1="166.39" y1="476.13" x2="382.75" y2="673.03" gradientTransform="translate(462.92 -54.1) rotate(40.39)" xlink:href="#linear-gradient"/><clipPath id="clip-path"><ellipse class="cls-1" cx="305" cy="602.28" rx="82.43" ry="66.35" transform="translate(-317.55 341.15) rotate(-40.39)"/></clipPath><linearGradient id="linear-gradient-3" x1="1088.6" y1="518.71" x2="226.12" y2="518.71" gradientTransform="matrix(1, 0.09, -0.09, 1, -121.53, -55.01)" xlink:href="#linear-gradient"/><linearGradient id="linear-gradient-4" x1="1405.63" y1="607.06" x2="1486.26" y2="741.1" gradientTransform="translate(-474.03 -253.17) rotate(21.04)" xlink:href="#linear-gradient"/><linearGradient id="linear-gradient-5" x1="158.24" y1="678.59" x2="238.88" y2="812.63" gradientTransform="translate(367.55 166.66) rotate(-15.79)" xlink:href="#linear-gradient"/><linearGradient id="linear-gradient-6" x1="1571.04" y1="117.85" x2="1622.53" y2="203.43" gradientTransform="translate(-455.47 -259.48) rotate(18.77)" xlink:href="#linear-gradient"/><linearGradient id="linear-gradient-7" x1="1683.39" y1="118.23" x2="1734.87" y2="203.82" gradientTransform="translate(-455.47 -259.48) rotate(18.77)" xlink:href="#linear-gradient"/><linearGradient id="linear-gradient-8" x1="1570.83" y1="178.03" x2="1622.32" y2="263.62" gradientTransform="translate(-455.47 -259.48) rotate(18.77)" xlink:href="#linear-gradient"/><linearGradient id="linear-gradient-9" x1="1683.18" y1="178.42" x2="1734.66" y2="264.01" gradientTransform="translate(-455.47 -259.48) rotate(18.77)" xlink:href="#linear-gradient"/><linearGradient id="linear-gradient-10" x1="1570.62" y1="238.22" x2="1622.11" y2="323.81" gradientTransform="translate(-455.47 -259.48) rotate(18.77)" xlink:href="#linear-gradient"/><linearGradient id="linear-gradient-11" x1="1682.97" y1="238.61" x2="1734.46" y2="324.19" gradientTransform="translate(-455.47 -259.48) rotate(18.77)" xlink:href="#linear-gradient"/><linearGradient id="linear-gradient-12" x1="1570.42" y1="298.41" x2="1621.9" y2="383.99" gradientTransform="translate(-455.47 -259.48) rotate(18.77)" xlink:href="#linear-gradient"/><linearGradient id="linear-gradient-13" x1="1682.76" y1="298.79" x2="1734.25" y2="384.38" gradientTransform="translate(-455.47 -259.48) rotate(18.77)" xlink:href="#linear-gradient"/><linearGradient id="linear-gradient-14" x1="1570.21" y1="358.59" x2="1621.7" y2="444.18" gradientTransform="translate(-455.47 -259.48) rotate(18.77)" xlink:href="#linear-gradient"/><linearGradient id="linear-gradient-15" x1="1682.56" y1="358.98" x2="1734.04" y2="444.57" gradientTransform="translate(-455.47 -259.48) rotate(18.77)" xlink:href="#linear-gradient"/><linearGradient id="linear-gradient-16" x1="1570" y1="418.78" x2="1621.49" y2="504.37" gradientTransform="translate(-455.47 -259.48) rotate(18.77)" xlink:href="#linear-gradient"/><linearGradient id="linear-gradient-17" x1="1682.35" y1="419.16" x2="1733.83" y2="504.75" gradientTransform="translate(-455.47 -259.48) rotate(18.77)" xlink:href="#linear-gradient"/></defs><title>PharmaLife</title><g class="cls-2"><g id="Layer_1" data-name="Layer 1"><circle class="cls-3" cx="708.66" cy="378.07" r="313.7" transform="translate(-59.78 611.83) rotate(-45)"/><circle class="cls-4" cx="1088.11" cy="614.41" r="126.89" transform="translate(-115.75 949.37) rotate(-45)"/><path class="cls-5" d="M473,712.59h0L379.79,551,226.65,646.78l94.91,165.09a59.5,59.5,0,0,0,7.74,11.64c26.2,30.8,78.46,29.38,116.73-3.17C481.54,790.13,492.5,743.73,473,712.59Z"/><path class="cls-6" d="M415.6,759.36a119.86,119.86,0,0,0,21.94-24.55c-.44-.79-.83-1.6-1.31-2.37h0l-36.19-62.76a120.86,120.86,0,0,1-19.46,21c-41.5,35.3-98.15,36.88-126.65,3.59L298.66,772C329,795.48,378.38,791,415.6,759.36Z"/><path class="cls-7" d="M384.14,841.58a68.52,68.52,0,0,1-8.85-13.32L266.67,639.34l120.58-75.42L379.79,551,226.65,646.78l94.91,165.09a59.5,59.5,0,0,0,7.74,11.64c14,16.49,35.52,23.65,58.33,21.84C386.43,844.14,385.26,842.9,384.14,841.58Z"/><ellipse class="cls-5" cx="305" cy="602.28" rx="90.97" ry="73.22" transform="translate(-317.56 341.15) rotate(-40.39)"/><ellipse class="cls-8" cx="305" cy="602.28" rx="82.43" ry="66.35" transform="translate(-317.55 341.15) rotate(-40.39)"/><g class="cls-9"><path class="cls-3" d="M403.3,638.17l-.16-15-3.52,0a34.2,34.2,0,0,0-61.46.65l-3.52,0,.16,15a34.25,34.25,0,0,0,68.5-.73Z"/><circle class="cls-4" cx="368.89" cy="623.48" r="34.25" transform="translate(-332.82 443.46) rotate(-45)"/><path class="cls-10" d="M335.46,616.12a33.34,33.34,0,0,0,.17,15.43l66.69-.71a33.3,33.3,0,0,0-.17-15.42Z"/><path class="cls-3" d="M347.08,568.61l-13.81-6-1.4,3.23a34.19,34.19,0,0,0-24.4,56.41l-1.4,3.23,13.81,6a34.25,34.25,0,1,0,27.2-62.87Z"/><path class="cls-4" d="M351.1,607.67a34.25,34.25,0,1,1-17.83-45A34.24,34.24,0,0,1,351.1,607.67Z"/><path class="cls-10" d="M299.35,621.61a33.33,33.33,0,0,0,14.16,6.12L340,566.52a33.33,33.33,0,0,0-14.16-6.12Z"/><path class="cls-3" d="M319,665.51l-3.48-14.64-3.43.81a34.19,34.19,0,0,0-59.79,14.2l-3.43.82,3.48,14.64A34.25,34.25,0,1,0,319,665.51Z"/><circle class="cls-4" cx="282.21" cy="658.78" r="34.25" transform="translate(-117.89 64.17) rotate(-10.75)"/><path class="cls-10" d="M248,659a33.29,33.29,0,0,0,3.56,15l64.89-15.41a34.58,34.58,0,0,0-.9-7.71,34.14,34.14,0,0,0-2.66-7.3Z"/></g><path class="cls-3" d="M380,496.9l-3.48-14.65-3.43.82a34.19,34.19,0,0,0-59.79,14.2l-3.43.81,3.48,14.65A34.25,34.25,0,1,0,380,496.9Z"/><path class="cls-4" d="M351.1,523.49a34.25,34.25,0,1,1,25.41-41.24A34.25,34.25,0,0,1,351.1,523.49Z"/><path class="cls-10" d="M309,490.37a33.37,33.37,0,0,0,3.56,15L377.41,490a33.29,33.29,0,0,0-3.56-15Z"/><path class="cls-3" d="M297.15,378.47l-3.48-14.65-3.42.82a34.19,34.19,0,0,0-59.8,14.2l-3.42.81,3.47,14.65a34.25,34.25,0,1,0,66.65-15.83Z"/><path class="cls-4" d="M268.26,405.06a34.25,34.25,0,1,1,25.41-41.24A34.24,34.24,0,0,1,268.26,405.06Z"/><path class="cls-10" d="M226.12,371.94a33.56,33.56,0,0,0,3.57,15l64.89-15.41a33.48,33.48,0,0,0-3.57-15Z"/><path class="cls-3" d="M241.07,460.52,226.9,445.69,223,450.05c-34.84-13.06-79.77,3.84-107.09,42.73-21.68,30.87-26.54,67.49-15.56,95.45l-3.94,4.43,21,21v0a64,64,0,0,0,6.73,5.47c35.86,25.2,90.31,9.49,121.62-35.07C276.05,541,274.26,494.89,241.07,460.52Z"/><path class="cls-4" d="M156.28,630.75a64.18,64.18,0,0,1-8.3-1.26l-52-57L85.42,560.84l3.87-3.56,5.65,6.2Z"/><path class="cls-4" d="M177.35,629.88c-2.09.36-4.23.68-6.32.87l-63.72-69.91,3.88-3.56Z"/><path class="cls-4" d="M194.82,625c-1.78.71-3.6,1.35-5.42,1.9l-60.19-66,3.87-3.56Z"/><path class="cls-4" d="M210,617.59c-1.58.91-3.16,1.82-4.75,2.65l-54.14-59.4,3.91-3.56Z"/><path class="cls-4" d="M223.32,608.26c-1.39,1.11-2.77,2.18-4.19,3.21L173,560.84l3.92-3.56Z"/><path class="cls-4" d="M235.13,597.2c-1.18,1.3-2.41,2.53-3.67,3.75l-36.6-40.11,3.91-3.56Z"/><path class="cls-4" d="M245.69,584.19c-1,1.47-2.1,2.93-3.21,4.31l-44.85-49.21,3.87-3.55Z"/><path class="cls-4" d="M254.78,569.45c-.83,1.62-1.74,3.24-2.69,4.82l-54.46-59.76L201.5,511Z"/><path class="cls-4" d="M262.09,552.65c-.63,1.86-1.31,3.72-2.1,5.54l-62.36-68.42,3.87-3.56Z"/><path class="cls-4" d="M266.67,532.89c-.27,2.22-.63,4.43-1.06,6.64l-68-74.54,3.87-3.56Z"/><path class="cls-4" d="M267.07,516.37l-64.31-70.51-5.13-5.65,3.87-3.56,9.17,10.08,55.25,60.59A69.11,69.11,0,0,1,267.07,516.37Z"/><ellipse class="cls-4" cx="161.59" cy="519.1" rx="98.6" ry="79.36" transform="matrix(0.57, -0.82, 0.82, 0.57, -356.07, 352.96)"/><path class="cls-10" d="M177.51,434.59v1a60.71,60.71,0,0,1,35.17,10.77C244.88,469,248.15,520,220,560.11c-18.41,26.22-46.88,42.5-74.3,42.5a60.74,60.74,0,0,1-35.17-10.77C78.3,569.23,75,518.2,103.21,478.09c18.41-26.22,46.88-42.5,74.3-42.5v-1m0,0c-26.85,0-55.82,15.44-75.12,42.92-28.54,40.63-25.16,92.18,7.53,115.15a61.48,61.48,0,0,0,35.75,11c26.85,0,55.82-15.44,75.12-42.92,28.54-40.63,25.17-92.18-7.53-115.15a61.55,61.55,0,0,0-35.75-11Z"/><path class="cls-6" d="M959.44,946.37l-472.38-80.6A24,24,0,0,1,467.19,840l59.95-673.55a24,24,0,0,1,24.11-21.86l479.19,4.1a24,24,0,0,1,23.7,26.12l-66.76,750A24,24,0,0,1,959.44,946.37Z"/><polygon class="cls-4" points="957.12 922.49 493.15 843.32 550.16 202.8 1020.82 206.83 957.12 922.49"/><polygon class="cls-11" points="957.12 922.49 493.15 843.32 550.16 202.8 1020.82 206.83 957.12 922.49"/><path class="cls-10" d="M1020.82,206.83l-470.66-4S487.73,730.09,447.78,763.89L917.87,866.51Z"/><path class="cls-4" d="M447.78,763.89s-51.65-25-47-95.87l419.32,98.45s86.7,171.29,104.56,56.81l-6.74,43.23Z"/><circle class="cls-5" cx="705.68" cy="178.44" r="11.81" transform="translate(-21.5 146.21) rotate(-11.65)"/><circle class="cls-5" cx="874.24" cy="178.19" r="11.81" transform="translate(-17.81 195.3) rotate(-12.62)"/><path class="cls-12" d="M705.68,178.44l-3.74,42a11.46,11.46,0,0,0,11.43,12.47l56.08-.09.17-2a12,12,0,0,1,11.9-11l5.35,0a12,12,0,0,1,12.08,13h0l60-.1a11.46,11.46,0,0,0,11.4-10.44l3.92-44"/><line class="cls-13" x1="612.7" y1="308.26" x2="910.83" y2="316.12"/><line class="cls-13" x1="608.72" y1="353.01" x2="906.84" y2="360.87"/><line class="cls-13" x1="601.37" y1="397.46" x2="899.49" y2="405.32"/><line class="cls-13" x1="594.02" y1="441.9" x2="892.14" y2="449.76"/><line class="cls-13" x1="586.66" y1="486.35" x2="884.79" y2="494.21"/><path class="cls-4" d="M730.92,597.81a47.11,47.11,0,1,1-42.74-51.1A47.09,47.09,0,0,1,730.92,597.81Z"/><path class="cls-14" d="M596.94,623.24A75.31,75.31,0,0,1,581,565c.75-5,2.76-10.69,7.6-12.07,7.13-2,12.26,6.68,14.55,13.73Q607.54,580.3,612,594c.56,1.72,1.23,3.58,2.76,4.53,7.22,4.51,10.61-16.2,18.55-13.11,4.33,1.68,3,8.36,5.55,12.23,2.89,4.35,9.61,3.61,14.18,1.08s8.7-6.38,13.9-6.91c5-.52,9.91,2.22,14.91,1.68,8.69-.94,15.49-11.4,23.9-9"/><path class="cls-10" d="M680.58,879.43l-73.16-28.15a25.8,25.8,0,0,0-33.34,14.82h0a25.8,25.8,0,0,0,14.81,33.33l73.17,28.15a25.79,25.79,0,0,0,33.34-14.81h0A25.8,25.8,0,0,0,680.58,879.43Z"/><path class="cls-5" d="M680.58,879.43,644,865.36l-18.52,48.15,36.58,14.07a25.79,25.79,0,1,0,18.52-48.15Z"/><path class="cls-15" d="M679.89,913.21l-94.59-36.4a25.63,25.63,0,0,1-11.74-9.11,25.77,25.77,0,0,0,15.33,31.73l73.17,28.15a25.77,25.77,0,0,0,32.65-13.27A25.65,25.65,0,0,1,679.89,913.21Z"/><path class="cls-10" d="M789.82,789.25l-75.43,21.33a25.8,25.8,0,0,0-17.81,31.84h0a25.8,25.8,0,0,0,31.84,17.8l75.44-21.33a25.79,25.79,0,0,0,17.8-31.84h0A25.79,25.79,0,0,0,789.82,789.25Z"/><path class="cls-5" d="M789.82,789.25l-37.71,10.66,14,49.65,37.72-10.67a25.79,25.79,0,0,0-14-49.64Z"/><path class="cls-16" d="M809.51,816.7,712,844.27a25.65,25.65,0,0,1-14.87-.26,25.77,25.77,0,0,0,31.3,16.21l75.44-21.33A25.78,25.78,0,0,0,822,808.7,25.66,25.66,0,0,1,809.51,816.7Z"/><polygon class="cls-6" points="400.67 204.18 374.69 204.18 374.69 178.19 345.73 178.19 345.73 204.18 319.74 204.18 319.74 233.13 345.73 233.13 345.73 259.12 374.69 259.12 374.69 233.13 400.67 233.13 400.67 204.18"/><polygon class="cls-5" points="474.44 308.57 456.8 308.57 456.8 290.93 437.14 290.93 437.14 308.57 419.5 308.57 419.5 328.23 437.14 328.23 437.14 345.88 456.8 345.88 456.8 328.23 474.44 328.23 474.44 308.57"/><polygon class="cls-6" points="1166.6 262.58 1148.96 262.58 1148.96 244.94 1129.3 244.94 1129.3 262.58 1111.66 262.58 1111.66 282.24 1129.3 282.24 1129.3 299.88 1148.96 299.88 1148.96 282.24 1166.6 282.24 1166.6 262.58"/><path class="cls-5" d="M1065.49,787.54,1189,428.05c2.54-7.39-2.17-15.71-10.51-18.58L970.84,338.11c-8.34-2.87-17.16.8-19.71,8.2L827.61,705.8c-2.55,7.4,2.16,15.72,10.5,18.58l207.67,71.37C1054.12,798.61,1062.94,794.94,1065.49,787.54Z"/><path class="cls-17" d="M1031.23,404.21,983.84,388.1A16.48,16.48,0,0,0,963,398.4h0a16.47,16.47,0,0,0,10.29,20.89l47.39,16.1a16.47,16.47,0,0,0,20.9-10.29h0A16.47,16.47,0,0,0,1031.23,404.21Z"/><path class="cls-17" d="M1137.48,440.72l-47.39-16.11a16.47,16.47,0,0,0-20.89,10.3h0a16.47,16.47,0,0,0,10.29,20.89l47.39,16.1a16.47,16.47,0,0,0,20.89-10.29h0A16.46,16.46,0,0,0,1137.48,440.72Z"/><path class="cls-17" d="M1012,460.24l-47.39-16.1a16.46,16.46,0,0,0-20.89,10.29h0A16.47,16.47,0,0,0,954,475.33l47.39,16.1a16.46,16.46,0,0,0,20.89-10.3h0A16.47,16.47,0,0,0,1012,460.24Z"/><path class="cls-17" d="M1118.22,496.75l-47.39-16.1a16.47,16.47,0,0,0-20.89,10.29h0a16.46,16.46,0,0,0,10.3,20.89l47.38,16.11a16.49,16.49,0,0,0,20.9-10.3h0A16.48,16.48,0,0,0,1118.22,496.75Z"/><path class="cls-17" d="M992.72,516.28l-47.39-16.11a16.48,16.48,0,0,0-20.89,10.3h0a16.46,16.46,0,0,0,10.3,20.89l47.38,16.1a16.47,16.47,0,0,0,20.9-10.29h0A16.47,16.47,0,0,0,992.72,516.28Z"/><path class="cls-17" d="M1099,552.78l-47.39-16.1a16.46,16.46,0,0,0-20.89,10.3h0A16.47,16.47,0,0,0,1041,567.87l47.39,16.1a16.47,16.47,0,0,0,20.89-10.29h0A16.48,16.48,0,0,0,1099,552.78Z"/><path class="cls-17" d="M972.86,574.08,925.47,558a16.48,16.48,0,0,0-20.89,10.3h0a16.47,16.47,0,0,0,10.29,20.89l47.39,16.1A16.46,16.46,0,0,0,983.15,595h0A16.46,16.46,0,0,0,972.86,574.08Z"/><path class="cls-17" d="M1079.1,610.59l-47.38-16.11a16.49,16.49,0,0,0-20.9,10.3h0a16.48,16.48,0,0,0,10.3,20.89l47.39,16.1a16.47,16.47,0,0,0,20.89-10.29h0A16.46,16.46,0,0,0,1079.1,610.59Z"/><path class="cls-17" d="M953.16,631.4l-47.38-16.11a16.49,16.49,0,0,0-20.9,10.3h0a16.48,16.48,0,0,0,10.3,20.89l47.39,16.1a16.47,16.47,0,0,0,20.89-10.29h0A16.47,16.47,0,0,0,953.16,631.4Z"/><path class="cls-17" d="M1059.41,667.9,1012,651.8a16.46,16.46,0,0,0-20.89,10.3h0A16.47,16.47,0,0,0,1001.42,683l47.39,16.1a16.46,16.46,0,0,0,20.89-10.29h0A16.48,16.48,0,0,0,1059.41,667.9Z"/><path class="cls-17" d="M933.91,687.43l-47.39-16.1a16.46,16.46,0,0,0-20.89,10.29h0a16.46,16.46,0,0,0,10.29,20.89l47.39,16.11a16.47,16.47,0,0,0,20.89-10.3h0A16.47,16.47,0,0,0,933.91,687.43Z"/><path class="cls-17" d="M1040.15,723.94l-47.38-16.1a16.47,16.47,0,0,0-20.9,10.29h0A16.47,16.47,0,0,0,982.17,739l47.39,16.11a16.48,16.48,0,0,0,20.89-10.3h0A16.46,16.46,0,0,0,1040.15,723.94Z"/><path class="cls-10" d="M1034.38,395.05,987,379a16.46,16.46,0,0,0-20.89,10.3h0a16.47,16.47,0,0,0,10.29,20.89l47.39,16.1A16.47,16.47,0,0,0,1044.67,416h0A16.48,16.48,0,0,0,1034.38,395.05Z"/><path class="cls-18" d="M1034.79,416.62,973.52,395.8a16.34,16.34,0,0,1-7.72-5.52,16.45,16.45,0,0,0,10.59,19.86l47.39,16.1a16.45,16.45,0,0,0,20.49-9.29A16.36,16.36,0,0,1,1034.79,416.62Z"/><path class="cls-10" d="M1140.62,431.56l-47.39-16.1a16.47,16.47,0,0,0-20.89,10.29h0a16.47,16.47,0,0,0,10.3,20.9l47.38,16.1a16.47,16.47,0,0,0,20.9-10.29h0A16.49,16.49,0,0,0,1140.62,431.56Z"/><path class="cls-19" d="M1141,453.13l-61.26-20.82a16.41,16.41,0,0,1-7.72-5.52,16.46,16.46,0,0,0,10.59,19.86l47.38,16.1a16.46,16.46,0,0,0,20.5-9.29A16.48,16.48,0,0,1,1141,453.13Z"/><path class="cls-10" d="M1014.82,452l-47.39-16.1a16.46,16.46,0,0,0-20.89,10.29h0a16.47,16.47,0,0,0,10.29,20.9l47.39,16.1a16.46,16.46,0,0,0,20.89-10.3h0A16.47,16.47,0,0,0,1014.82,452Z"/><path class="cls-20" d="M1015.23,473.54,954,452.72a16.39,16.39,0,0,1-7.73-5.52,16.46,16.46,0,0,0,10.59,19.86l47.39,16.1a16.47,16.47,0,0,0,20.5-9.29A16.47,16.47,0,0,1,1015.23,473.54Z"/><path class="cls-10" d="M1121.06,488.48l-47.39-16.1a16.47,16.47,0,0,0-20.89,10.29h0a16.47,16.47,0,0,0,10.3,20.89l47.39,16.11a16.48,16.48,0,0,0,20.89-10.3h0A16.47,16.47,0,0,0,1121.06,488.48Z"/><path class="cls-21" d="M1121.47,510l-61.26-20.82a16.39,16.39,0,0,1-7.72-5.51,16.45,16.45,0,0,0,10.59,19.85l47.39,16.11a16.45,16.45,0,0,0,20.49-9.3A16.39,16.39,0,0,1,1121.47,510Z"/><path class="cls-10" d="M995.26,508.89l-47.39-16.1A16.47,16.47,0,0,0,927,503.08h0A16.46,16.46,0,0,0,937.27,524l47.39,16.11a16.47,16.47,0,0,0,20.89-10.3h0A16.47,16.47,0,0,0,995.26,508.89Z"/><path class="cls-22" d="M995.67,530.45l-61.26-20.82a16.47,16.47,0,0,1-7.73-5.51A16.47,16.47,0,0,0,937.27,524l47.39,16.11a16.46,16.46,0,0,0,20.5-9.3A16.39,16.39,0,0,1,995.67,530.45Z"/><path class="cls-10" d="M1101.5,545.4l-47.38-16.1a16.47,16.47,0,0,0-20.9,10.29h0a16.47,16.47,0,0,0,10.3,20.89l47.39,16.11a16.48,16.48,0,0,0,20.89-10.3h0A16.46,16.46,0,0,0,1101.5,545.4Z"/><path class="cls-23" d="M1101.92,567l-61.27-20.82a16.39,16.39,0,0,1-7.72-5.51,16.45,16.45,0,0,0,10.59,19.85l47.39,16.11a16.45,16.45,0,0,0,20.49-9.3A16.36,16.36,0,0,1,1101.92,567Z"/><path class="cls-10" d="M975.7,565.81,928.31,549.7A16.48,16.48,0,0,0,907.42,560h0a16.46,16.46,0,0,0,10.3,20.89L965.1,597A16.47,16.47,0,0,0,986,586.7h0A16.47,16.47,0,0,0,975.7,565.81Z"/><path class="cls-24" d="M976.11,587.37l-61.26-20.82a16.34,16.34,0,0,1-7.72-5.52,16.45,16.45,0,0,0,10.59,19.86L965.1,597a16.46,16.46,0,0,0,20.5-9.29A16.39,16.39,0,0,1,976.11,587.37Z"/><path class="cls-10" d="M1082,602.32l-47.39-16.11a16.47,16.47,0,0,0-20.89,10.3h0A16.47,16.47,0,0,0,1024,617.4l47.39,16.1a16.47,16.47,0,0,0,20.89-10.29h0A16.46,16.46,0,0,0,1082,602.32Z"/><path class="cls-25" d="M1082.36,623.88l-61.27-20.82a16.34,16.34,0,0,1-7.72-5.52A16.45,16.45,0,0,0,1024,617.4l47.39,16.1a16.44,16.44,0,0,0,20.49-9.29A16.36,16.36,0,0,1,1082.36,623.88Z"/><path class="cls-10" d="M956.14,622.73l-47.39-16.11a16.48,16.48,0,0,0-20.89,10.3h0a16.48,16.48,0,0,0,10.3,20.89l47.39,16.1a16.47,16.47,0,0,0,20.89-10.29h0A16.47,16.47,0,0,0,956.14,622.73Z"/><path class="cls-26" d="M956.55,644.29l-61.26-20.82a16.34,16.34,0,0,1-7.72-5.52,16.45,16.45,0,0,0,10.59,19.86l47.39,16.1A16.45,16.45,0,0,0,966,644.62,16.39,16.39,0,0,1,956.55,644.29Z"/><path class="cls-10" d="M1062.39,659.23,1015,643.13a16.46,16.46,0,0,0-20.89,10.3h0a16.47,16.47,0,0,0,10.29,20.89l47.39,16.1a16.46,16.46,0,0,0,20.89-10.29h0A16.47,16.47,0,0,0,1062.39,659.23Z"/><path class="cls-27" d="M1062.8,680.8,1001.54,660a16.32,16.32,0,0,1-7.73-5.52,16.47,16.47,0,0,0,10.59,19.86l47.39,16.1a16.47,16.47,0,0,0,20.5-9.29A16.47,16.47,0,0,1,1062.8,680.8Z"/><path class="cls-10" d="M936.59,679.64l-47.39-16.1a16.47,16.47,0,0,0-20.9,10.3h0a16.48,16.48,0,0,0,10.3,20.89L926,710.83a16.47,16.47,0,0,0,20.89-10.29h0A16.47,16.47,0,0,0,936.59,679.64Z"/><path class="cls-28" d="M937,701.21l-61.27-20.82a16.41,16.41,0,0,1-7.72-5.52,16.46,16.46,0,0,0,10.59,19.86L926,710.83a16.45,16.45,0,0,0,20.49-9.29A16.44,16.44,0,0,1,937,701.21Z"/><path class="cls-10" d="M1042.83,716.15l-47.39-16.1a16.47,16.47,0,0,0-20.89,10.29h0a16.47,16.47,0,0,0,10.29,20.9l47.39,16.1a16.46,16.46,0,0,0,20.89-10.3h0A16.47,16.47,0,0,0,1042.83,716.15Z"/><path class="cls-29" d="M1043.24,737.71,982,716.9a16.55,16.55,0,0,1-7.73-5.52,16.48,16.48,0,0,0,10.59,19.86l47.39,16.1a16.46,16.46,0,0,0,20.5-9.29A16.39,16.39,0,0,1,1043.24,737.71Z"/><path class="cls-6" d="M1088.11,858a22.26,22.26,0,1,1-22.26-22.26A22.26,22.26,0,0,1,1088.11,858Z"/><path class="cls-6" d="M227.71,783.81a22.26,22.26,0,1,1-22.26-22.25A22.26,22.26,0,0,1,227.71,783.81Z"/><path class="cls-6" d="M1121.05,904.81A11.79,11.79,0,1,1,1109.26,893,11.79,11.79,0,0,1,1121.05,904.81Z"/><path class="cls-6" d="M169.37,745.08a11.79,11.79,0,1,1-11.79-11.79A11.79,11.79,0,0,1,169.37,745.08Z"/><ellipse class="cls-30" cx="671.29" cy="1008.41" rx="495.31" ry="19.06"/></g></g></svg>