<svg id="Layer_1" data-name="Layer 1" xmlns="http://www.w3.org/2000/svg" viewBox="0 0 466 77"><defs><style>.cls-1{fill:#242626;}.cls-2{fill:#235196;}.cls-3{fill:#e2fdff;}.cls-4{fill:#dddae8;}.cls-5{opacity:0.18;}.cls-6{fill:#788bff;}</style></defs><title>PharmaLife</title><path class="cls-1" d="M53.11,39.4a14.86,14.86,0,0,1-6.19,5.87A21.8,21.8,0,0,1,36.55,47.5H28.92V65.65H16.6V15.1H36.55a22.7,22.7,0,0,1,10.22,2.09A14.35,14.35,0,0,1,53,23a16.78,16.78,0,0,1,2.08,8.43A16.3,16.3,0,0,1,53.11,39.4ZM40.87,36.06a6.2,6.2,0,0,0,1.73-4.68,6.17,6.17,0,0,0-1.73-4.68C39.72,25.59,38,25,35.61,25H28.92V37.71h6.69C38,37.71,39.72,37.16,40.87,36.06Z"/><path class="cls-1" d="M97.32,29.61q4.17,4.57,4.17,12.57V65.65H89.25V43.83a8.77,8.77,0,0,0-2.09-6.26,8.18,8.18,0,0,0-11.23,0,8.82,8.82,0,0,0-2.09,6.26V65.65H61.53V12.37H73.84v18.5A13.29,13.29,0,0,1,79,26.62,16.4,16.4,0,0,1,86.23,25,14.3,14.3,0,0,1,97.32,29.61Z"/><path class="cls-1" d="M110,34.62a17.44,17.44,0,0,1,6.37-7.2,16.64,16.64,0,0,1,9-2.52,15.53,15.53,0,0,1,7.46,1.72,12.84,12.84,0,0,1,4.93,4.54V25.47H150V65.65H137.71V60a13.38,13.38,0,0,1-5,4.54,15.46,15.46,0,0,1-7.45,1.72,16.39,16.39,0,0,1-8.93-2.55A17.7,17.7,0,0,1,110,56.4a24.26,24.26,0,0,1-2.34-10.91A24,24,0,0,1,110,34.62Zm25.2,3.67a8.64,8.64,0,0,0-12.45,0,9.92,9.92,0,0,0-2.56,7.24,10.18,10.18,0,0,0,2.56,7.31,8.56,8.56,0,0,0,12.45,0,10.07,10.07,0,0,0,2.56-7.27A10.07,10.07,0,0,0,135.15,38.29Z"/><path class="cls-1" d="M176.66,27a14,14,0,0,1,7.2-1.91v13h-3.39q-4.6,0-6.91,2t-2.3,7V65.65H159V25.47h12.31v6.7A16.2,16.2,0,0,1,176.66,27Z"/><path class="cls-1" d="M252.94,29.58q4.43,4.53,4.43,12.6V65.65H245.13V43.83a8.3,8.3,0,0,0-2-6,8.6,8.6,0,0,0-11.31,0,8.34,8.34,0,0,0-2.05,6V65.65H217.48V43.83a8.3,8.3,0,0,0-2-6,8.59,8.59,0,0,0-11.3,0,8.3,8.3,0,0,0-2.06,6V65.65H189.76V25.47h12.31v5a13.12,13.12,0,0,1,4.9-4A15.34,15.34,0,0,1,213.81,25a16.73,16.73,0,0,1,8.1,1.94,13.93,13.93,0,0,1,5.58,5.55,16.14,16.14,0,0,1,5.69-5.4A15.38,15.38,0,0,1,241,25Q248.52,25,252.94,29.58Z"/><path class="cls-1" d="M265.9,34.62a17.44,17.44,0,0,1,6.37-7.2,16.64,16.64,0,0,1,9-2.52,15.53,15.53,0,0,1,7.46,1.72,12.91,12.91,0,0,1,4.93,4.54V25.47H306V65.65H293.66V60a13.38,13.38,0,0,1-5,4.54,15.46,15.46,0,0,1-7.45,1.72,16.39,16.39,0,0,1-8.93-2.55,17.7,17.7,0,0,1-6.37-7.27,24.26,24.26,0,0,1-2.34-10.91A24,24,0,0,1,265.9,34.62Zm25.2,3.67a8.64,8.64,0,0,0-12.45,0,9.92,9.92,0,0,0-2.56,7.24,10.18,10.18,0,0,0,2.56,7.31,8.56,8.56,0,0,0,12.45,0,10.07,10.07,0,0,0,2.56-7.27A10.07,10.07,0,0,0,291.1,38.29Z"/><polygon class="cls-2" points="326.21 56.14 342.33 56.14 342.33 65.65 313.9 65.65 313.9 15.1 326.21 15.1 326.21 56.14"/><path class="cls-2" d="M405.64,35.7H399v30H386.7V35.7h-4.46V25.47h4.46V24.32q0-7.41,4.25-11.27T403.41,9.2a19.59,19.59,0,0,1,2,.07V19.71c-2.35-.14-4,.19-5,1S399,23,399,25.11v.36h6.63Z"/><path class="cls-2" d="M449.05,48.51H421.19a8.4,8.4,0,0,0,2.41,5.73,7.38,7.38,0,0,0,5.22,2,6.48,6.48,0,0,0,6.41-3.89h13.1a18,18,0,0,1-3.63,7.13,18.28,18.28,0,0,1-6.59,5,21.16,21.16,0,0,1-8.86,1.8,21.55,21.55,0,0,1-10.51-2.52,18,18,0,0,1-7.2-7.2A22.18,22.18,0,0,1,409,45.56a22.39,22.39,0,0,1,2.56-10.94,17.67,17.67,0,0,1,7.16-7.2,23.36,23.36,0,0,1,20.95-.08,17.54,17.54,0,0,1,7.09,7,21.12,21.12,0,0,1,2.56,10.58A30.2,30.2,0,0,1,449.05,48.51Zm-12.38-6.84a6.34,6.34,0,0,0-2.16-5,7.94,7.94,0,0,0-5.4-1.87,7.79,7.79,0,0,0-5.22,1.8,8,8,0,0,0-2.63,5.11Z"/><path class="cls-2" d="M352.18,36.2,357.6,19a10.53,10.53,0,0,1,13.15-7h0a10.54,10.54,0,0,1,6.75,13.28l-5.42,17.17Z"/><path class="cls-3" d="M352.33,35.71l-5.42,17.18a10.55,10.55,0,0,0,6.75,13.28h0a10.53,10.53,0,0,0,13.15-7L372.23,42Z"/><path class="cls-4" d="M351.25,60.31a7.51,7.51,0,0,1-.84-7.37c.51-1.22-1.4-1.87-1.9-.65a9.58,9.58,0,0,0,1.21,9.37C350.5,62.7,352,61.35,351.25,60.31Z"/><path class="cls-4" d="M352.53,64a1,1,0,0,0,.44-.59l0-.05a1,1,0,0,0-.1-.73,1,1,0,0,0-.58-.44.94.94,0,0,0-.71.11,1,1,0,0,0-.44.59v0a1,1,0,0,0,.09.72.91.91,0,0,0,.58.44A.93.93,0,0,0,352.53,64Z"/><g class="cls-5"><path class="cls-6" d="M364,57.21l5.26-16.68.16-.49,5.26-16.68a10.66,10.66,0,0,0-2.54-10.71,10.57,10.57,0,0,1,5.3,12.7L372.22,42l-.16.49L366.8,59.2a10.54,10.54,0,0,1-13.15,7,10.16,10.16,0,0,1-4.21-2.58,9.74,9.74,0,0,0,1.45.58A10.53,10.53,0,0,0,364,57.21Z"/></g></svg>