<svg xmlns="http://www.w3.org/2000/svg" viewBox="0 0 500 500"><defs><style>.cls-1{isolation:isolate;}.cls-2{fill:#dde8fe;}.cls-3{fill:#4951ec;}.cls-4{fill:#eae9f3;}.cls-5{fill:#7c9af2;}.cls-6{fill:#92b5f9;}.cls-7{fill:#bed1f9;}.cls-11,.cls-8{fill:#ef7f7f;}.cls-19,.cls-9{fill:#0b0754;}.cls-10{fill:#fb9390;}.cls-11,.cls-12{opacity:0.53;mix-blend-mode:multiply;}.cls-12{fill:#fd5e5a;}.cls-13{fill:#130025;}.cls-14{fill:#8792ce;}.cls-15{fill:#badcff;}.cls-16{fill:#fa7167;}.cls-17,.cls-18{fill:#fff;}.cls-17{opacity:0.66;}.cls-19{opacity:0.44;}.cls-20{fill:#3e4edd;}.cls-21{fill:#e8605d;}</style></defs><title>pharma</title><g class="cls-1"><g id="Layer_1" data-name="Layer 1"><path class="cls-2" d="M477,296c16.25,53.47-39.68,109.77-39.68,109.77l-319,.22s-29.8-26.26-69.29-113.46S24.6,102.66,95.57,92.79,221.64,125,221.64,125,300.79,99.66,364,117s57,102,57,102,39.84,23.53,56.1,77"/><path class="cls-3" d="M470.21,407.3a3.73,3.73,0,0,1-3.72,3.72H95.3a3.72,3.72,0,0,1-3.72-3.72v-.11a3.71,3.71,0,0,1,3.72-3.71H466.49a3.72,3.72,0,0,1,3.72,3.71"/><path class="cls-4" d="M392,356.51H138.44a7.7,7.7,0,0,1-7.95-7.42l-4.83-173.62a7.7,7.7,0,0,1,8-7.42H399.27a7.7,7.7,0,0,1,8,7.42L400,349.09A7.7,7.7,0,0,1,392,356.51Z"/><path class="cls-3" d="M404.14,169.6a7.07,7.07,0,0,1,1.34,4.12l-7.24,173.61a7.7,7.7,0,0,1-7.95,7.42H136.69a8.33,8.33,0,0,1-4.87-1.54,8.12,8.12,0,0,0,6.62,3.3H392a7.7,7.7,0,0,0,7.95-7.42l7.24-173.62A7.25,7.25,0,0,0,404.14,169.6Z"/><path class="cls-5" d="M141.52,336.18l-4.83-155.62a7.7,7.7,0,0,1,8-7.42H391a7.7,7.7,0,0,1,8,7.42l-7.23,155.62a7.7,7.7,0,0,1-8,7.42H149.47A7.7,7.7,0,0,1,141.52,336.18Z"/><path class="cls-6" d="M141.15,340l-4.82-155.62a7.7,7.7,0,0,1,7.95-7.42H390.66a7.7,7.7,0,0,1,7.95,7.42L391.38,340a7.71,7.71,0,0,1-8,7.42H149.11A7.71,7.71,0,0,1,141.15,340Z"/><path class="cls-2" d="M382.06,338h-4.44a.24.24,0,0,1,0-.48h4l.06-1.35a.24.24,0,0,1,.25-.23.25.25,0,0,1,.23.26Zm-10.23,0h-5.78a.24.24,0,1,1,0-.48h5.78a.24.24,0,1,1,0,.48Zm-11.57,0h-5.79a.24.24,0,0,1,0-.48h5.79a.24.24,0,1,1,0,.48Zm-11.57,0H342.9a.24.24,0,1,1,0-.48h5.79a.24.24,0,1,1,0,.48Zm-11.57,0h-5.79a.24.24,0,1,1,0-.48h5.79a.24.24,0,1,1,0,.48Zm-11.57,0h-5.79a.24.24,0,1,1,0-.48h5.79a.24.24,0,1,1,0,.48ZM314,338h-5.79a.24.24,0,1,1,0-.48H314a.24.24,0,1,1,0,.48Zm-11.57,0h-5.79a.24.24,0,0,1,0-.48h5.79a.24.24,0,0,1,0,.48Zm-11.58,0h-5.78a.24.24,0,0,1,0-.48h5.78a.24.24,0,1,1,0,.48Zm-11.57,0h-5.78a.24.24,0,1,1,0-.48h5.78a.24.24,0,1,1,0,.48Zm-11.57,0h-5.78a.24.24,0,1,1,0-.48h5.78a.24.24,0,1,1,0,.48Zm-11.57,0h-5.78a.24.24,0,1,1,0-.48h5.78a.24.24,0,1,1,0,.48Zm-11.57,0h-5.78a.24.24,0,1,1,0-.48h5.78a.24.24,0,0,1,0,.48ZM233,338h-5.79a.24.24,0,1,1,0-.48H233a.24.24,0,1,1,0,.48Zm-11.57,0h-5.79a.24.24,0,1,1,0-.48h5.79a.24.24,0,1,1,0,.48Zm-11.57,0h-5.79a.24.24,0,0,1,0-.48h5.79a.24.24,0,1,1,0,.48Zm-11.57,0h-5.79a.24.24,0,0,1,0-.48h5.79a.24.24,0,0,1,0,.48Zm-11.57,0h-5.79a.24.24,0,0,1,0-.48h5.79a.24.24,0,1,1,0,.48Zm-11.57,0h-5.79a.24.24,0,0,1,0-.48h5.79a.24.24,0,1,1,0,.48Zm-11.58,0h-5.78a.24.24,0,0,1,0-.48h5.78a.24.24,0,1,1,0,.48ZM152,338H150.5l-.19-6a.24.24,0,0,1,.48,0l.18,5.55h1a.24.24,0,1,1,0,.48Zm230.19-7.35h0a.24.24,0,0,1-.23-.26l.27-5.78a.22.22,0,0,1,.25-.22.24.24,0,0,1,.23.25l-.27,5.78A.24.24,0,0,1,382.17,330.67Zm-231.8-4.21a.25.25,0,0,1-.24-.24l-.18-5.78a.25.25,0,0,1,.49,0l.17,5.79a.24.24,0,0,1-.23.25Zm232.33-7.35h0a.25.25,0,0,1-.23-.25l.27-5.78a.24.24,0,0,1,.26-.23.23.23,0,0,1,.22.25l-.26,5.78A.25.25,0,0,1,382.7,319.11ZM150,314.89a.25.25,0,0,1-.25-.23l-.18-5.79a.24.24,0,0,1,.24-.24.25.25,0,0,1,.25.23l.18,5.78a.25.25,0,0,1-.24.25Zm233.22-7.34h0a.24.24,0,0,1-.23-.25l.27-5.78a.24.24,0,1,1,.48,0l-.27,5.78A.23.23,0,0,1,383.24,307.55Zm-233.58-4.23a.23.23,0,0,1-.24-.23l-.18-5.78a.23.23,0,0,1,.23-.25.26.26,0,0,1,.25.23l.18,5.79a.24.24,0,0,1-.24.24ZM383.78,296h0a.24.24,0,0,1-.23-.25l.27-5.78a.23.23,0,0,1,.25-.23.24.24,0,0,1,.23.25l-.27,5.78A.24.24,0,0,1,383.78,296ZM149.3,291.76a.23.23,0,0,1-.24-.23l-.18-5.79a.24.24,0,0,1,.23-.25.23.23,0,0,1,.25.24l.18,5.78a.25.25,0,0,1-.23.25Zm235-7.33h0a.23.23,0,0,1-.23-.25l.27-5.78a.24.24,0,0,1,.25-.23.25.25,0,0,1,.23.25l-.27,5.78A.25.25,0,0,1,384.32,284.43Zm-235.38-4.24a.23.23,0,0,1-.24-.23l-.18-5.78a.24.24,0,1,1,.48,0l.18,5.78a.24.24,0,0,1-.23.25Zm235.91-7.32h0a.24.24,0,0,1-.23-.25l.27-5.78a.25.25,0,0,1,.25-.23.24.24,0,0,1,.23.26l-.26,5.77A.25.25,0,0,1,384.85,272.87Zm-236.27-4.24a.24.24,0,0,1-.24-.24l-.18-5.78a.25.25,0,0,1,.23-.25.23.23,0,0,1,.25.24l.18,5.78a.24.24,0,0,1-.23.25Zm236.81-7.31h0a.25.25,0,0,1-.23-.26l.27-5.78a.24.24,0,0,1,.25-.23.25.25,0,0,1,.23.26l-.27,5.78A.23.23,0,0,1,385.39,261.32Zm-237.17-4.26a.24.24,0,0,1-.24-.23l-.18-5.78a.24.24,0,0,1,.24-.25.23.23,0,0,1,.24.23l.18,5.78a.23.23,0,0,1-.23.25Zm237.71-7.3h0a.24.24,0,0,1-.23-.25l.27-5.78a.24.24,0,0,1,.25-.23.24.24,0,0,1,.23.25l-.27,5.78A.24.24,0,0,1,385.93,249.76ZM147.86,245.5a.25.25,0,0,1-.24-.24l-.18-5.78a.25.25,0,0,1,.24-.25.24.24,0,0,1,.25.24l.17,5.78a.24.24,0,0,1-.23.25Zm238.61-7.3h0a.24.24,0,0,1-.23-.25l.26-5.78a.24.24,0,0,1,.26-.23.24.24,0,0,1,.23.25l-.27,5.78A.24.24,0,0,1,386.47,238.2Zm-239-4.27a.25.25,0,0,1-.25-.23l-.17-5.78a.23.23,0,0,1,.23-.25.25.25,0,0,1,.25.23l.18,5.78a.24.24,0,0,1-.24.25ZM387,226.64h0a.25.25,0,0,1-.23-.25l.27-5.78a.24.24,0,0,1,.25-.23.24.24,0,0,1,.23.25l-.26,5.78A.25.25,0,0,1,387,226.64Zm-239.85-4.27a.24.24,0,0,1-.24-.24l-.18-5.78a.24.24,0,0,1,.23-.25.25.25,0,0,1,.25.24l.18,5.78a.25.25,0,0,1-.24.25Zm240.39-7.29h0a.24.24,0,0,1-.23-.25l.27-5.78a.25.25,0,0,1,.25-.23.24.24,0,0,1,.23.25l-.27,5.78A.23.23,0,0,1,387.54,215.08ZM146.79,210.8a.23.23,0,0,1-.24-.23l-.18-5.78a.23.23,0,0,1,.23-.25.23.23,0,0,1,.25.23l.18,5.78a.24.24,0,0,1-.23.25Zm241.29-7.28h0a.24.24,0,0,1-.23-.25l.27-5.78a.23.23,0,0,1,.25-.23.25.25,0,0,1,.23.26l-.27,5.77A.24.24,0,0,1,388.08,203.52Zm-241.65-4.28a.24.24,0,0,1-.24-.24l-.18-5.78a.25.25,0,0,1,.23-.25.24.24,0,0,1,.25.23l.18,5.79a.24.24,0,0,1-.23.25ZM388.62,192h0a.24.24,0,0,1-.23-.26l.22-4.87h-.4a.24.24,0,0,1-.24-.24.24.24,0,0,1,.24-.24h.91l-.25,5.38A.26.26,0,0,1,388.62,192Zm-242.55-4.3a.23.23,0,0,1-.24-.23l0-1.08H151a.24.24,0,0,1,.24.24.24.24,0,0,1-.24.24h-4.71l0,.58a.23.23,0,0,1-.23.25Zm236.35-.83h-5.79a.24.24,0,0,1-.24-.24.24.24,0,0,1,.24-.24h5.79a.24.24,0,0,1,.24.24A.24.24,0,0,1,382.42,186.84Zm-11.57,0h-5.79a.24.24,0,0,1-.24-.24.24.24,0,0,1,.24-.24h5.79a.24.24,0,0,1,.24.24A.24.24,0,0,1,370.85,186.84Zm-11.58,0h-5.78a.24.24,0,0,1-.24-.24.24.24,0,0,1,.24-.24h5.78a.24.24,0,0,1,.25.24A.25.25,0,0,1,359.27,186.84Zm-11.57,0h-5.78a.24.24,0,0,1-.24-.24.24.24,0,0,1,.24-.24h5.78a.23.23,0,0,1,.24.24A.24.24,0,0,1,347.7,186.84Zm-11.57,0h-5.78a.24.24,0,0,1-.24-.24.23.23,0,0,1,.24-.24h5.78a.23.23,0,0,1,.24.24A.24.24,0,0,1,336.13,186.84Zm-11.57,0h-5.78a.24.24,0,0,1-.24-.24.23.23,0,0,1,.24-.24h5.78a.23.23,0,0,1,.24.24A.24.24,0,0,1,324.56,186.84Zm-11.57,0h-5.78a.25.25,0,0,1-.25-.24.24.24,0,0,1,.25-.24H313a.24.24,0,0,1,.24.24A.24.24,0,0,1,313,186.84Zm-11.57,0h-5.79a.24.24,0,0,1-.24-.24.24.24,0,0,1,.24-.24h5.79a.24.24,0,0,1,.24.24A.24.24,0,0,1,301.42,186.84Zm-11.57,0h-5.79a.24.24,0,0,1-.24-.24.24.24,0,0,1,.24-.24h5.79a.24.24,0,0,1,.24.24A.24.24,0,0,1,289.85,186.84Zm-11.57,0h-5.79a.24.24,0,0,1-.24-.24.24.24,0,0,1,.24-.24h5.79a.24.24,0,0,1,.24.24A.24.24,0,0,1,278.28,186.84Zm-11.57,0h-5.79a.24.24,0,0,1-.24-.24.24.24,0,0,1,.24-.24h5.79a.24.24,0,0,1,.24.24A.24.24,0,0,1,266.71,186.84Zm-11.57,0h-5.79a.24.24,0,0,1-.24-.24.24.24,0,0,1,.24-.24h5.79a.24.24,0,0,1,.24.24A.24.24,0,0,1,255.14,186.84Zm-11.57,0h-5.79a.24.24,0,0,1-.24-.24.24.24,0,0,1,.24-.24h5.79a.24.24,0,0,1,.24.24A.24.24,0,0,1,243.57,186.84Zm-11.57,0h-5.79a.24.24,0,0,1-.24-.24.24.24,0,0,1,.24-.24H232a.24.24,0,0,1,.24.24A.24.24,0,0,1,232,186.84Zm-11.58,0h-5.78a.24.24,0,0,1-.24-.24.24.24,0,0,1,.24-.24h5.78a.24.24,0,0,1,.25.24A.25.25,0,0,1,220.42,186.84Zm-11.57,0h-5.78a.24.24,0,0,1-.24-.24.23.23,0,0,1,.24-.24h5.78a.23.23,0,0,1,.24.24A.24.24,0,0,1,208.85,186.84Zm-11.57,0H191.5a.24.24,0,0,1-.24-.24.23.23,0,0,1,.24-.24h5.78a.23.23,0,0,1,.24.24A.24.24,0,0,1,197.28,186.84Zm-11.57,0h-5.78a.25.25,0,0,1-.25-.24.24.24,0,0,1,.25-.24h5.78a.24.24,0,0,1,.24.24A.24.24,0,0,1,185.71,186.84Zm-11.57,0h-5.78a.25.25,0,0,1-.25-.24.24.24,0,0,1,.25-.24h5.78a.24.24,0,0,1,.24.24A.24.24,0,0,1,174.14,186.84Zm-11.57,0h-5.79a.24.24,0,0,1-.24-.24.24.24,0,0,1,.24-.24h5.79a.24.24,0,0,1,.24.24A.24.24,0,0,1,162.57,186.84Z"/><path class="cls-7" d="M259.7,210.67s3.42,34.71,1.95,46.52l-8.46,89.68h73s-4.1-76.42-4.1-82.21-1.2-54-1.2-54l-11.46-5.79-28.8-.36Z"/><path class="cls-6" d="M279.46,205.06l-14.41,4s5.77,28.82,9.21,32.26-.58,6,2.31,8.92,18.92,24.63,18.92,24.63Z"/><path class="cls-6" d="M310.2,206l-14.71,68.9s15.64-27.63,17-29,0-7,0-9.64,8.31-25.71,8.31-25.71S313.19,206,310.2,206Z"/><path class="cls-2" d="M280.67,204.52l-15.43,1.57s5.58,28.37,9,31.82-.58,6,2.31,8.91,18.92,28.09,18.92,28.09Z"/><path class="cls-2" d="M309.47,204.88l-14,70s15.64-31.09,17-32.42,0-7,0-9.65,8.46-24.58,8.46-24.58S312.47,204.88,309.47,204.88Z"/><polygon class="cls-6" points="293.44 346.87 295.49 274.91 295.07 346.87 293.44 346.87"/><rect class="cls-5" x="246.2" y="356.51" width="54.96" height="5.79"/><polygon class="cls-5" points="296.46 389.01 250.9 389.01 249.45 362.29 297.9 362.29 296.46 389.01"/><path class="cls-3" d="M297.9,362.29H249.45L250.9,389h6a31.16,31.16,0,0,1,4-12.14c4.06-6.42,24.11-8.95,36.75-9.91Z"/><path class="cls-3" d="M337.56,403.48H213.65A14.47,14.47,0,0,1,228.12,389h95a14.47,14.47,0,0,1,14.47,14.47Z"/><path class="cls-8" d="M203.93,214.27l-4.21-15.07L181.22,204s2.64,8.2,4.48,9.33l7.5,4.59h0l16.54,32.81,11.9-14.7Z"/><path class="cls-9" d="M291.39,129.87s14.1-1.72,20.13,1.15,17.84,14.49,14.71,37a5.44,5.44,0,0,1,3.25,4.25c.72,3.45.78,9.61-5.18,15.3s-16,5.06-21.22,5.06-19.76-4.37-23.5-12.42S291.39,129.87,291.39,129.87Z"/><path class="cls-9" d="M298.22,133.15c-3.78-.35-6.93,1.38-9.46,4.23-3.2,9.42-8.32,25.53-9.51,35.48A29.36,29.36,0,0,0,283,184c.33.55.68,1.07,1,1.57,5,3.93,12.35,6.3,16.87,6.95,14.06-1.89,18-14.87,17.66-29.18-.09-3.86,2.66-15.86-3.3-23.62C311.26,134.47,304.35,132.55,298.22,133.15Z"/><path class="cls-10" d="M284.16,182.46s.73,9.76,0,14.22a18.43,18.43,0,0,1-3.49,7.84l14.82,70.39,14-70s-3.47-2.13-4.45-8.2-1-21.69-1-21.69Z"/><path class="cls-9" d="M295.49,274.91l10.89-54.51a75.13,75.13,0,0,1-22.66-1.4Z"/><path class="cls-9" d="M306.38,220.4l-.23,0c-2.73,11.14-9,35.83-11.08,38s-8.26-25.16-11.34-39.37h0l11.77,55.91Z"/><path class="cls-11" d="M287.29,181.29c2.13,8.29,7.29,16.08,17.12,13.5l.35-.1c-.73-6.94-.71-19.7-.71-19.7Z"/><path class="cls-10" d="M300.91,135.09s8.56-1.32,13.26,5.55,2.53,18.44,2.53,21.33,1.39,23.87-12.29,27.12-18.32-11.69-18.32-20.73S289.45,136.22,300.91,135.09Z"/><path class="cls-12" d="M291.46,143.16c-.48,1.05-.93,2.15-1.34,3.3a109.76,109.76,0,0,1,14.35-3.29c1.93,6.68,6,11.27,12.72,11.27a33,33,0,0,0-.76-8.48C308.59,142.75,299.69,138.15,291.46,143.16Z"/><path class="cls-10" d="M201.17,200.13c-.16-.2-13.85-13.23-16.56-12.42-4.51,1.18,5.51,8.65,6.59,10a14.45,14.45,0,0,1,1.44,2.42l-1,.26c-2.58.62-9.46,1.91-10.44,3.51,0,0-.18,9,2.18,9.06s4.77-.82,7.31-.56a5.73,5.73,0,0,0,3.56-1.16c.16-.1.31-.21.45-.31a1.84,1.84,0,0,0-.08,1.85c1.22,2.47,9.61-1.79,10-3.36S203.11,202.52,201.17,200.13Zm-1.92,8.15a10.88,10.88,0,0,0-3.37,1.52c-.33-.85-1.93-5.18-1.67-6.91h0c1.17-1.24,3.72-1.27,5-.74h0a1.12,1.12,0,0,1,.35.61C199.93,204.4,200.77,207.92,199.25,208.28Z"/><path class="cls-2" d="M200.15,234.05s19.53,50.14,27,54S262,250.2,262,250.2s1.06-39.53-2.31-39.53-17.25,16.5-21.25,26.43c-4.06,10.09-3.91,15.2-9.37,5.39-5.57-10-15.37-23.49-15.37-23.49C208.09,224.62,200.15,234.05,200.15,234.05Z"/><path class="cls-9" d="M311.52,131.12s-4.82-.61-7.71,1.68-9.28,3.38-13,21.1-.72,19.76-.72,19.76,4,8.2-1.15,14.47-15.17,3.9-20.79.6c-8.18-4.8-6.72-21.43-3.28-32.31a33,33,0,0,1,1.28-3.69c1.08-2.44,1.44-5.26,3-7.83,5.06-8.33,14.28-15.94,30.58-15.53C299.71,129.37,307.06,129,311.52,131.12Z"/><path class="cls-13" d="M266.49,151.39c-1,3.05-.87,2.61-1.64,5-.17.52-.32,1.05-.48,1.59,3.21-1.85,3.84-2.36,7.5-4.23a109.93,109.93,0,0,1,21.25-8.17c.14-.4.29-.78.44-1.15C284.15,145.35,274.81,147.05,266.49,151.39Z"/><path class="cls-5" d="M268.54,145.21c17.88-9.35,29.9-10.19,50.4-8.86v4.94a109.27,109.27,0,0,0-48.51,12c-3.84,2-5.9,3.31-5.92,3.32Z"/><ellipse class="cls-14" cx="318.3" cy="139.43" rx="13.54" ry="14.48"/><ellipse class="cls-4" cx="318.71" cy="139.43" rx="13.13" ry="14.48"/><ellipse class="cls-3" cx="318.3" cy="139.43" rx="13.54" ry="14.48"/><ellipse class="cls-6" cx="318.71" cy="139.43" rx="13.13" ry="14.48"/><path class="cls-4" d="M313.7,136.67A15,15,0,0,1,319.11,125h-.4c-7.25,0-13.13,6.49-13.13,14.48s5.88,14.49,13.13,14.49a12.25,12.25,0,0,0,7.73-2.78C319.37,150.91,313.7,144.52,313.7,136.67Z"/><path class="cls-5" d="M320.89,138.82a2,2,0,1,1-1.95-2.15A2.06,2.06,0,0,1,320.89,138.82Z"/><path class="cls-3" d="M167.09,205.12a.9.9,0,0,1-.75-1.42l34.35-49.77a.91.91,0,0,1,1.49,1l-34.35,49.77A.87.87,0,0,1,167.09,205.12Z"/><path class="cls-3" d="M108.16,267.86a.86.86,0,0,1-.62-.25.89.89,0,0,1-.05-1.27l57-60.95a.91.91,0,0,1,1.33,1.23l-57,60.95A.91.91,0,0,1,108.16,267.86Z"/><path class="cls-3" d="M165.16,206.91a.85.85,0,0,1-.52-.17l-45.86-32.87a.91.91,0,0,1,1.06-1.47l45.85,32.87a.9.9,0,0,1-.53,1.64Z"/><path class="cls-3" d="M189.62,311.79a.91.91,0,0,1-.88-.7L164.28,206.21a.91.91,0,0,1,1.77-.41L190.5,310.68a.9.9,0,0,1-.67,1.09Z"/><circle class="cls-3" cx="165.17" cy="206.01" r="10.18" transform="matrix(0.26, -0.97, 0.97, 0.26, -76.33, 312.76)"/><path class="cls-15" d="M171.65,205.5a6.49,6.49,0,1,1-6.48-6.49A6.48,6.48,0,0,1,171.65,205.5Z"/><rect class="cls-7" x="69.15" y="150.17" width="52.84" height="45.93" rx="17.57"/><path class="cls-3" d="M119.36,150.66a4.59,4.59,0,0,1,.49,2.09v36.5a4.71,4.71,0,0,1-4.71,4.72H71.73a4.73,4.73,0,0,1-2.09-.49,4.71,4.71,0,0,0,4.22,2.62h43.42a4.71,4.71,0,0,0,4.71-4.71v-36.5A4.71,4.71,0,0,0,119.36,150.66Z"/><rect class="cls-7" x="69.15" y="240.6" width="52.84" height="45.93" rx="17.57"/><path class="cls-3" d="M119.36,241.09a4.59,4.59,0,0,1,.49,2.09v36.5a4.71,4.71,0,0,1-4.71,4.71H71.73a4.72,4.72,0,0,1-2.09-.48,4.71,4.71,0,0,0,4.22,2.62h43.42a4.71,4.71,0,0,0,4.71-4.71v-36.5A4.71,4.71,0,0,0,119.36,241.09Z"/><rect class="cls-7" x="169.13" y="116.47" width="60.29" height="45.93" rx="17.57" transform="translate(398.55 278.87) rotate(180)"/><path class="cls-3" d="M172.13,117a4.19,4.19,0,0,0-.56,2.09v36.5c0,2.6,2.41,4.71,5.38,4.71h49.53a6,6,0,0,0,2.38-.49A5.48,5.48,0,0,1,224,162.4H174.51c-3,0-5.38-2.11-5.38-4.72v-36.5A4.69,4.69,0,0,1,172.13,117Z"/><rect class="cls-7" x="162.8" y="295.07" width="60.29" height="45.93" rx="17.57" transform="translate(385.88 636.07) rotate(180)"/><path class="cls-3" d="M165.79,340.51a4.29,4.29,0,0,1-.55-2.09v-36.5c0-2.6,2.4-4.71,5.37-4.71h49.54a6,6,0,0,1,2.38.48,5.5,5.5,0,0,0-4.82-2.62H168.17c-3,0-5.37,2.11-5.37,4.71v36.5A4.7,4.7,0,0,0,165.79,340.51Z"/><path class="cls-5" d="M88.28,163.94a1.56,1.56,0,1,1-1.56-1.56A1.56,1.56,0,0,1,88.28,163.94Z"/><path class="cls-5" d="M105.76,159.56a1,1,0,1,1-1-1A1,1,0,0,1,105.76,159.56Z"/><path class="cls-5" d="M94.55,187.69A13.59,13.59,0,0,1,84.45,165l.34-.38.25.45a2.06,2.06,0,0,0,.62.66L86,166l-.29.32A11.78,11.78,0,1,0,106.29,175a4.89,4.89,0,0,1-3.93-4.79V161.6l1-1.6.32.4a1.28,1.28,0,0,0,.7.46l.49.14-.75,1.15v8.1a3.06,3.06,0,0,0,6.12,0v-8.07l-.87-1.18.48-.16a1.33,1.33,0,0,0,.68-.5l.3-.42,1.22,1.66v8.67a4.88,4.88,0,0,1-4,4.8A13.55,13.55,0,0,1,94.55,187.69Z"/><path class="cls-5" d="M110.46,159.56a1,1,0,1,1-1-1A1,1,0,0,1,110.46,159.56Z"/><polygon class="cls-5" points="100.16 171.35 96.47 171.35 96.47 167.66 92.41 167.66 92.41 171.35 88.72 171.35 88.72 175.42 92.41 175.42 92.41 179.1 96.47 179.1 96.47 175.42 100.16 175.42 100.16 171.35"/><path class="cls-5" d="M208.38,140.12H207.2l-2.44-3.36-1.84,7.58-1.42-13.16-3.81,8.58-1.67-3-2.14,3.84L191,137l-1.31,6.47-1.23-11.13-4.18,7.56H174.19a.46.46,0,0,0-.46.46h0a.46.46,0,0,0,.46.45h11l2.28-4.12,1.74,15.77,2.54-12.52,2.33,2.85L196,139.4l1.82,3.31,2.83-6.36,1.72,16,3.05-12.56.89,1.21H209A7.61,7.61,0,0,1,208.38,140.12Z"/><path class="cls-16" d="M217.28,134a5.94,5.94,0,0,1,4.65-2.16,4.66,4.66,0,0,1,4.65,4.81c0,3-2.59,6.54-9.3,9.63-6.72-3.09-9.3-6.63-9.3-9.63a4.65,4.65,0,0,1,4.65-4.81A6,6,0,0,1,217.28,134Z"/><rect class="cls-17" x="184.06" y="300.1" width="18.3" height="29.67" rx="2.78" transform="translate(-143.7 466.6) rotate(-82.71)"/><path class="cls-5" d="M189.42,309.18l-.65-1.47a1.2,1.2,0,0,0-1.08-.7h-11a1.18,1.18,0,0,0-1.18,1.18v7.5h0v14.13a1.18,1.18,0,0,0,1.18,1.18h32.57a1.18,1.18,0,0,0,1.18-1.18V311.06a1.18,1.18,0,0,0-1.18-1.18H190.5A1.17,1.17,0,0,1,189.42,309.18Z"/><path class="cls-4" d="M200.06,320.68a6.51,6.51,0,1,1-6.51-6.51A6.5,6.5,0,0,1,200.06,320.68Z"/><polygon class="cls-16" points="198.62 318.9 195.35 318.9 195.35 315.63 191.75 315.63 191.75 318.9 188.48 318.9 188.48 322.5 191.75 322.5 191.75 325.77 195.35 325.77 195.35 322.5 198.62 322.5 198.62 318.9"/><circle class="cls-16" cx="93" cy="256.44" r="3.23"/><rect class="cls-5" x="97.92" y="260.71" width="4.69" height="4.51" transform="translate(200.53 525.93) rotate(180)"/><rect class="cls-5" x="98.62" y="265.48" width="3.3" height="1.27" transform="translate(200.53 532.23) rotate(180)"/><path class="cls-5" d="M97.4,257a4.94,4.94,0,0,0-.84-2.76V251.1a1.36,1.36,0,0,0,1.36-1.35v-2.47h4.7v2.47A1.35,1.35,0,0,0,104,251.1v8a1.27,1.27,0,0,1-1.26,1.27H97.83a1.27,1.27,0,0,1-1.18-.79A4.88,4.88,0,0,0,97.4,257Z"/><rect class="cls-5" x="96.79" y="245.62" width="6.95" height="1.66" transform="translate(200.53 492.89) rotate(180)"/><path class="cls-5" d="M87.56,256.5a3.62,3.62,0,0,0,0,.47,4.94,4.94,0,0,0,3.89,4.82,4.37,4.37,0,0,0-1.54,2,5.7,5.7,0,0,0,.38,4.43A9.2,9.2,0,0,0,94,272l-.59,2.06C85.28,271.8,81.84,262.82,87.56,256.5Z"/><rect class="cls-5" x="89.61" y="271.97" width="6.77" height="4.55" transform="translate(185.99 548.49) rotate(180)"/><path class="cls-5" d="M84,276.52H109.1a0,0,0,0,1,0,0v.57a1.86,1.86,0,0,1-1.86,1.86H85.81A1.86,1.86,0,0,1,84,277.09v-.57A0,0,0,0,1,84,276.52Z" transform="translate(193.06 555.46) rotate(180)"/><rect class="cls-18" x="93.83" y="268.31" width="12.94" height="2.27" transform="translate(200.61 538.9) rotate(180)"/><path class="cls-2" d="M320.78,210.59s-2.48,27.56,1.27,48.54c.94,5.27,15.5,7.61,23.45,13.6,13.26,10,22.5,23.45,24.86,28.8,5.37-2.42,5.34-26.62,2.39-36.23C369.56,258.91,320.78,210.59,320.78,210.59Z"/><polygon class="cls-9" points="398.2 245.31 346.92 239.11 314.8 300.31 356.39 300.31 398.2 245.31"/><path class="cls-19" d="M356.39,300.31l41.81-55-51.28-6.2-.92,1.74c8,2.1,23.53,7,25.83,14.15,2.46,7.6-15.44,34.27-23.19,45.31Z"/><polygon class="cls-3" points="345.03 236.33 312.35 299.21 314.8 300.31 346.92 239.11 398.2 245.31 395.07 242.86 345.03 236.33"/><polygon class="cls-10" points="436.14 234.97 439.01 245.94 448.24 242.36 446.58 232.65 436.14 234.97"/><path class="cls-10" d="M394.9,210.12c-.79-1.14-6.2-8.07-7.12-7.43s2.4,5.31,2.9,6a3,3,0,0,0-2.84,2c-.62,1.43,3.32,8.23,5,10.94,1.44-.46,3.57-2.18,3.5-3.67C396.32,215.17,395.51,211,394.9,210.12Z"/><path class="cls-11" d="M444.2,233.18,436.14,235l1,4a7.66,7.66,0,0,0,5.4-3.63A24.9,24.9,0,0,1,444.2,233.18Z"/><polygon class="cls-10" points="433.44 399.35 432.33 405.63 427.38 405.99 428.22 394.97 433.44 399.35"/><path class="cls-9" d="M433.19,404.66s-4.58.09-5.58-.7-2.06.73-3.67,2.78-7.66,1.8-8.39,3.41c-.56,1.23,17.35.87,18.26.84C434.44,411,433.19,404.66,433.19,404.66Z"/><polygon class="cls-10" points="446.86 398.37 445.75 404.65 440.81 405 441.65 393.99 446.86 398.37"/><path class="cls-9" d="M446.61,403.68s-4.57.08-5.57-.71-2.06.74-3.68,2.79-7.32,2.34-8.12,3.92,17.2,1.33,17.6.83S446.61,403.68,446.61,403.68Z"/><path class="cls-20" d="M436.39,312.88l.52,45,3.5,43.73L447,402.7s5.46-77.26,11.11-85.79-.75-22.61-.78-22.63h0Z"/><path class="cls-3" d="M455,315.37a22.24,22.24,0,0,0,3.78-14.08c-.15-1.79-3-3.78-3.39-5.3l-19,16.89.52,45,1.95,24.35c3.5-21,10-51.1,11.31-59.73C450.72,321.69,452.58,319,455,315.37Z"/><path class="cls-3" d="M428.84,291.86s-3.33,41-3.6,54.75c-.27,14,1.49,56.05,1.49,56.05l7.72,0s11.47-68.38,13.39-81.17c0,0-1.1,1.85,4.56-6.69s1.51-20.54,1.48-20.56l-10,3.75Z"/><path class="cls-21" d="M476.94,272.08c-1.37-3.44-20.28-23.74-25.39-29.31a3.41,3.41,0,0,0-3.65-.92l-8.77,3s25.31,24.43,24.54,27.06l-7.13,12,3.1,7.13s18.92-14.88,17.3-19"/><path class="cls-16" d="M431.45,241.71s-2.25,57.73-8,69.44c0,0,26.14-3.86,38.13-3.85,0,0-.28-48.9-6.08-59.75S437.09,238.7,431.45,241.71Z"/><path class="cls-21" d="M444.66,263c5.6-3,7.39-7.08,7.5-12.31.08-3.8-12.68-1.81-21.07-1.29-.15,3-.36,6.63-.62,10.69C433.69,263.61,440.62,265.14,444.66,263Z"/><path class="cls-16" d="M401.94,244.15s18.09,15.5,32.52,14.92,16.31-4,17.55-7.9-7-9.11-15.23-10.7-22.95-1.42-25.21-3.5-13.86-17.74-14.84-20.47l-7,3Z"/><path class="cls-10" d="M439.89,217.1a13.2,13.2,0,0,0-4.53,4.31,21,21,0,0,1-4.33,4.75l1,1.58a5,5,0,0,0-2,4c.47,5.39,8.81,6.34,13,3.21,1.12-.85,4.62-1.92,5.77-3.84C451.79,226,450.89,218.11,439.89,217.1Z"/><path class="cls-9" d="M444,228.64s-2.77-5.14-1.46-8.75a13.16,13.16,0,0,1-5.47-1.44c-4.39-2.48.95-11.72,7.54-5.13,0,0-.56-4.47,4.11-3.68s6.38,2.67,5.54,7.1,1.09,2.48,2.51,5.07-6.07,11.9-9.57,12.25l-3.51.34s5-2.8,3.6-4.93A2.29,2.29,0,0,0,444,228.64Z"/><path class="cls-10" d="M335.79,279.18c.93-.74,8.74,4.11,13.22,7l0-.18c-4.22-3.13-11.61-6.87-9.92-7.95.87-.55,19.41,6.93,19.42,6.93,1.95.88,2,1,4,1.86-.47-1.17-5.33-9.07-2-8.68l10.83,14.17c1.84,3,1.77,4.83,1.32,6.4-.57,1.94-3.28,7.12-7.71,8.17-4.26,1-15.82-5.53-17.63-7.22s-15.19-13.25-13.08-16.48c0,0,11.05,10.78,12.22,9.45.07-.31-10.92-7.61-11.78-10.46-.62-2,9,4.18,13.21,7.3C344.14,286.4,335.14,279.69,335.79,279.18Z"/><rect class="cls-3" x="87.09" y="297.48" width="60.93" height="113.33" rx="23.31"/><path class="cls-3" d="M134.56,297.48h-1.73a13.46,13.46,0,0,1,13.46,13.46v86.41a13.46,13.46,0,0,1-13.46,13.46h1.73A13.46,13.46,0,0,0,148,397.35V310.94A13.46,13.46,0,0,0,134.56,297.48Z"/><rect class="cls-7" x="62.62" y="325.41" width="109.87" height="57.47" rx="21.99" transform="translate(471.7 236.59) rotate(90)"/><path class="cls-5" d="M123.77,305.24H112.32a.64.64,0,0,1,0-1.27h11.45a.64.64,0,0,1,0,1.27Z"/><path class="cls-5" d="M124.93,309.44H111.16a.69.69,0,1,1,0-1.38h13.77a.69.69,0,0,1,0,1.38Z"/><path class="cls-5" d="M107.33,308.75a1,1,0,1,1-1.9,0,1,1,0,0,1,1.9,0Z"/><circle class="cls-6" cx="117.55" cy="401.69" r="5.19"/><circle class="cls-2" cx="116.7" cy="401.69" r="5.19"/><rect class="cls-6" x="92.02" y="318.07" width="50.85" height="75.44" rx="11.19"/><rect class="cls-18" x="81.08" y="331.52" width="72.74" height="48.55" rx="6.13" transform="translate(473.24 238.35) rotate(90)"/><path class="cls-7" d="M140.32,319.43H94.57a1.53,1.53,0,0,0-1.4,1.63v10.53h48.55V321.06A1.53,1.53,0,0,0,140.32,319.43Z"/><rect class="cls-5" x="104.51" y="333.83" width="27.6" height="1.86"/><polygon class="cls-5" points="98.01 334.76 100.62 336.53 100.62 333 98.01 334.76"/><polygon class="cls-5" points="136.71 334.76 134.1 336.53 134.1 333 136.71 334.76"/><rect class="cls-5" x="94.67" y="322.54" width="16.48" height="5.68" rx="2.17"/><rect class="cls-5" x="134.1" y="322.54" width="5.23" height="5.68" rx="2"/><rect class="cls-18" x="136.29" y="323.46" width="0.84" height="3.68"/><rect class="cls-18" x="136.22" y="323.74" width="0.98" height="3.14" transform="translate(-188.6 462.02) rotate(-90)"/><rect class="cls-2" x="95.6" y="343.18" width="5.37" height="46.43"/><rect class="cls-2" x="102.04" y="343.18" width="5.37" height="46.43"/><rect class="cls-2" x="108.53" y="343.18" width="5.37" height="46.43"/><rect class="cls-2" x="115.03" y="343.18" width="5.37" height="46.43"/><rect class="cls-2" x="121.52" y="343.18" width="5.37" height="46.43"/><rect class="cls-2" x="128.01" y="343.18" width="5.37" height="46.43"/><rect class="cls-2" x="134.51" y="343.18" width="5.37" height="46.43"/><rect class="cls-5" x="95.6" y="337.86" width="5.37" height="3.53"/><rect class="cls-5" x="102.04" y="337.86" width="5.37" height="3.53"/><rect class="cls-5" x="108.53" y="337.86" width="5.37" height="3.53"/><rect class="cls-5" x="115.03" y="337.86" width="5.37" height="3.53"/><rect class="cls-5" x="121.52" y="337.86" width="5.37" height="3.53"/><rect class="cls-16" x="128.01" y="337.86" width="5.37" height="3.53"/><rect class="cls-16" x="134.51" y="337.86" width="5.37" height="3.53"/><rect class="cls-18" x="94.67" y="348.53" width="45.75" height="1.15"/><rect class="cls-18" x="94.67" y="355.46" width="45.75" height="1.15"/><rect class="cls-18" x="94.67" y="362.39" width="45.75" height="1.15"/><rect class="cls-18" x="94.67" y="369.32" width="45.75" height="1.15"/><rect class="cls-18" x="94.67" y="376.25" width="45.75" height="1.15"/><rect class="cls-18" x="94.57" y="383.18" width="45.75" height="1.15"/><path class="cls-16" d="M116.84,357l-4.41-1.9L118,361.9l4.71-10.58Z"/></g></g></svg>