<svg id="Layer_1" data-name="Layer 1" xmlns="http://www.w3.org/2000/svg" xmlns:xlink="http://www.w3.org/1999/xlink" viewBox="0 0 500 353"><defs><style>.cls-1{fill:url(#linear-gradient);}</style><linearGradient id="linear-gradient" x1="-1812.27" y1="-807.34" x2="-1812.08" y2="-807.4" gradientTransform="matrix(2500, 0, 0, -1500, 4530687, -1210884.05)" gradientUnits="userSpaceOnUse"><stop offset="0" stop-color="#2298bd"/><stop offset="1" stop-color="#0ed7b5"/></linearGradient></defs><title>pharma</title><path class="cls-1" d="M257.5,33q-93.8,0-117.25,93.8,35.17-46.9,82.08-35.17c17.83,4.45,30.58,17.4,44.7,31.72,23,23.34,49.6,50.35,107.72,50.35q93.79,0,117.25-93.8-35.17,46.91-82.08,35.18c-17.83-4.46-30.58-17.41-44.7-31.73C342.23,60,315.62,33,257.5,33ZM140.25,173.7Q46.46,173.7,23,267.5q35.18-46.91,82.07-35.17c17.84,4.45,30.59,17.4,44.71,31.72,23,23.34,49.6,50.35,107.72,50.35q93.79,0,117.25-93.8-35.17,46.91-82.08,35.18c-17.83-4.46-30.58-17.41-44.7-31.73C225,200.71,198.37,173.7,140.25,173.7Z"/></svg>