<svg xmlns="http://www.w3.org/2000/svg" xmlns:xlink="http://www.w3.org/1999/xlink" viewBox="0 0 500 500"><defs><style>.cls-1{isolation:isolate;}.cls-2{fill:#578ddd;}.cls-3{fill:#e7edf4;}.cls-4{mix-blend-mode:multiply;fill:url(#linear-gradient);}.cls-5{fill:#fff;}.cls-6{fill:#235196;}.cls-7,.cls-8{fill:none;stroke-width:3px;}.cls-7{stroke:#4dd0e1;stroke-linejoin:round;}.cls-8{stroke:#e7edf4;stroke-linecap:round;stroke-miterlimit:10;}.cls-9{fill:#1c4575;}.cls-10{fill:#a03c37;}.cls-11{fill:#699ff0;}.cls-12{fill:#2b478b;}.cls-13{fill:#85b2ef;}.cls-14{fill:#afcdfb;}.cls-15{fill:#f99746;}.cls-16{fill:#5c96e3;}.cls-17{fill:#ed7d2b;}.cls-18{fill:#ffb27d;}.cls-19{fill:#ed975d;}.cls-20{fill:#b64c41;}.cls-21{fill:#233862;}</style><linearGradient id="linear-gradient" x1="522.02" y1="217.94" x2="22.48" y2="217.94" gradientTransform="matrix(-1, -0.04, -0.04, 1, 663.52, 55.89)" gradientUnits="userSpaceOnUse"><stop offset="0" stop-color="#fff" stop-opacity="0"/><stop offset="1" stop-color="#235196"/></linearGradient></defs><title>pharma</title><g class="cls-1"><g id="Layer_1" data-name="Layer 1"><path class="cls-2" d="M86.46,450.28l273.33-7.54c7.13-.19,12.75-5.3,12.92-11.72l8.84-347.36c.16-6.43-5.19-12-12.3-12.85L96.93,38.89C89,38,82,43.32,81.81,50.52L72,437.34C71.78,444.53,78.47,450.5,86.46,450.28Z"/><polygon class="cls-3" points="89.3 438.28 357.76 430.88 366.17 100.55 98.69 69.2 89.3 438.28"/><polygon class="cls-4" points="89.3 438.28 357.76 430.88 366.17 100.55 98.69 69.2 89.3 438.28"/><path class="cls-5" d="M98.69,69.2l267.47,31.35s1.88,273,22.41,293.08L115.15,412.55Z"/><path class="cls-3" d="M388.57,393.63s30.91-9.05,32.82-45.5l-244.34,20.4s-60.13,81.11-63,21.52l1.08,22.5Z"/><ellipse class="cls-6" cx="279.42" cy="77.1" rx="6.06" ry="6.76" transform="translate(168.26 344.8) rotate(-82.87)"/><ellipse class="cls-6" cx="183.74" cy="65.01" rx="6.06" ry="6.76" transform="translate(96.45 239.27) rotate(-82.88)"/><path class="cls-7" d="M279.42,77.1l-.55,21.65c-.09,3.46-3.46,6-7.28,5.54l-31.84-4,0-1c.1-3.19-2.52-6-6.05-6.45l-3-.4c-4-.53-7.55,2.14-7.68,5.76h0l-34-4.31a6.31,6.31,0,0,1-5.8-6.12L183.74,65"/><line class="cls-8" x1="323.94" y1="149.83" x2="154.18" y2="132.68"/><line class="cls-8" x1="323.36" y1="172.91" x2="153.59" y2="155.76"/><line class="cls-8" x1="324.7" y1="196.07" x2="154.94" y2="178.92"/><line class="cls-8" x1="326.04" y1="219.23" x2="156.28" y2="202.08"/><line class="cls-8" x1="327.39" y1="242.39" x2="157.63" y2="225.25"/><path class="cls-9" d="M342.46,470.21s-.58,9.46-2.41,9.59c-.25,0-9.29,0-9.29,0l-11.53-.07a3.74,3.74,0,0,1,3.44-3.37c3.38-.58,9-2.95,11.07-7.41C335.88,464.28,342.46,470.21,342.46,470.21Z"/><path class="cls-10" d="M331.7,469.06l-3.32-46.28a36.39,36.39,0,0,1,.29-8l5.65-38.45,36.95,4.89-20.06,46.48-7.95,46.52Z"/><polygon class="cls-11" points="401.34 408.35 399.88 407.16 419.5 381.51 426.59 381.21 401.34 408.35"/><polygon class="cls-11" points="375.7 408.35 374.48 407.16 390.72 381.51 396.58 381.21 375.7 408.35"/><ellipse class="cls-11" cx="264.46" cy="341.5" rx="8.61" ry="8.81"/><path class="cls-11" d="M365,460.32H277.52a1.74,1.74,0,0,1-1.73-1.74v-8.27a1.74,1.74,0,0,1,1.73-1.74h77.31a1.74,1.74,0,0,1,1.73,1.74Z"/><circle class="cls-12" cx="391.96" cy="453.85" r="26.15" transform="translate(-118.81 768.05) rotate(-80.78)"/><circle class="cls-13" cx="391.96" cy="453.85" r="13.33" transform="matrix(0.16, -0.99, 0.99, 0.16, -118.81, 768.05)"/><path class="cls-11" d="M284.55,453.85H275.9a30.07,30.07,0,0,0-60-2.93,3.22,3.22,0,0,1-3.2,2.93h-.17a5,5,0,0,1-5-5.79,38.72,38.72,0,0,1,77,5.79Z"/><path class="cls-11" d="M297.66,448.57l-13.11,5.28c-9.07-17.65-18.34-26.31-26.27-30.58-14.26-7.69-24.18-1.18-20.84-7.23l24.46-51.62a22.49,22.49,0,0,1,20.32-9.25,7.3,7.3,0,0,1,6.23,9.58A89.24,89.24,0,0,0,284,393.1C284,423.52,297.66,448.57,297.66,448.57Z"/><path class="cls-11" d="M284.3,361.14l-9.87-3.77c-1.35,0-3.91,1.21-3.91-.13L272,333.13a2.45,2.45,0,0,1,2.45-2.44h6.36c1.34,0,6.73,2.58,6.35,7.4l1.69,24.3C288.83,363.73,285.64,361.14,284.3,361.14Z"/><rect class="cls-11" x="383.23" y="373.11" width="72.66" height="9.29" rx="4.65"/><circle class="cls-12" cx="245.83" cy="453.85" r="26.15" transform="translate(-241.53 623.8) rotate(-80.78)"/><path class="cls-14" d="M259.16,453.85a13.25,13.25,0,0,1-1.54,6.21c-.06.12-.13.24-.2.36a13.33,13.33,0,1,1-16.71-18.88l.15-.06a13.33,13.33,0,0,1,18.3,12.37Z"/><path class="cls-11" d="M341.62,401.17s8,26.87-14.74,51.56l54.74-4.16-7.14-54.05Z"/><path class="cls-11" d="M444.68,456.86a3.45,3.45,0,0,1-3.46,3.46h-83.9a3.47,3.47,0,0,1-3.46-3.46L355,402l28.26-1.73C420.86,400.26,444.68,419.23,444.68,456.86Z"/><path class="cls-15" d="M273.06,341a13.47,13.47,0,0,1-13.53,13.53V327.47A13.53,13.53,0,0,1,273.06,341Z"/><path class="cls-12" d="M294.43,342.83c-.06,0-.62-.11-.67-.12l-14.89-4.13a1.44,1.44,0,0,1-.91-1.64c.08-.79.63-1.33,1.22-1.22l14.93,2.92c.59.11,1.06,1,1.2,1.79C295.54,341.72,295,342.83,294.43,342.83Z"/><path class="cls-16" d="M258.45,424.31c.13.84.26,1.64.39,2.42l-.12-.05a29.79,29.79,0,0,0-12.89-2.91,30.11,30.11,0,0,0-29.93,27.15,3.22,3.22,0,0,1-3.2,2.93h-.17a5,5,0,0,1-5-5.79,38.82,38.82,0,0,1,29.75-32l.15,0,24.46-51.62a22.42,22.42,0,0,1,8.62-7.18,102.15,102.15,0,0,0-13,59.69c.18,2.07.43,4.19.75,6.34C258.34,423.61,258.39,424,258.45,424.31Z"/><rect class="cls-15" x="339.05" y="387.87" width="58.76" height="13.3" rx="2.57"/><path class="cls-2" d="M438,460.32H357.32s-4.92-29.88,13.24-40c4.38-2.43,9.87-3.27,15.86-2.68C405.29,419.51,429.06,435.51,438,460.32Z"/><path class="cls-17" d="M272.84,343.49a13.54,13.54,0,0,1-13.31,11V347C263.51,347.14,269.24,346.71,272.84,343.49Z"/><path class="cls-17" d="M380.84,401.17H341.62a2.58,2.58,0,0,1-2.57-2.58v-8.15a2.58,2.58,0,0,1,2.57-2.57h26.87A65.56,65.56,0,0,0,380.84,401.17Z"/><path class="cls-16" d="M438,460.32H404.51c-20.23-10.26-19-35-18.09-42.65C405.29,419.51,429.06,435.51,438,460.32Z"/><path class="cls-13" d="M257.42,460.42a13.33,13.33,0,1,1-16.71-18.88C241.86,447.31,245.6,458,257.42,460.42Z"/><path class="cls-2" d="M258.45,424.31c.13.84.26,1.64.39,2.42l-.12-.05c-4.83-4.47-15-8.43-21.43-10.61l.15,0,24.46-51.62a22.42,22.42,0,0,1,8.62-7.18,102.15,102.15,0,0,0-13,59.69c.18,2.07.43,4.19.75,6.34C258.34,423.61,258.39,424,258.45,424.31Z"/><path class="cls-18" d="M346.28,307.43c7.23,2.94,20.43-3.34,20.43-3.34a18.5,18.5,0,0,1-5.21-11.22c-.05-.38-.08-.75-.1-1.14l-3.74-1.33-6.39,4.36a48.19,48.19,0,0,0,.07,5.89c0,.66.09,1.36.16,2.11A13,13,0,0,0,346.28,307.43Z"/><path class="cls-19" d="M351.27,294.76a48.19,48.19,0,0,0,.07,5.89c5.82-1.06,9-5.76,10.16-7.78-.05-.38-.08-.75-.1-1.14l-3.74-1.33Z"/><path class="cls-18" d="M350.08,297.88s12.45-.4,12.07-8.15,1-13-7-13.08-9.36,3-9.87,5.58S346.84,297.79,350.08,297.88Z"/><path class="cls-12" d="M361.5,292.87a5.84,5.84,0,0,0-.92-4.28s.9-2.53-.07-3.09-1.47,1.59-1.9,1.18a10.5,10.5,0,0,1-2.89-4.83c-.58-2.52-9.2-.72-10.22-.41s5.72-12.28,13-9.3,7.83,6.72,7,9.75S364.72,292.24,361.5,292.87Z"/><path class="cls-20" d="M373.4,366.78s-.87,15.2-4.33,19.53S299.29,389,299.29,389s-.29-9.75,2.31-12.25S316.31,367,355,362.92Z"/><path class="cls-12" d="M374.28,335c-1.08,13,.34,32.91-.88,36.35-1.06,3-13.12,1.2-17.94.21-1.78-.37-3.94-.89-6.17-1.51-6.21-1.73-13-4.19-13.72-6a.83.83,0,0,1-.06-.21,1.44,1.44,0,0,1,0-.77c.18-.69.74-1.42,1.06-2.69a7.51,7.51,0,0,0,.22-1.56c.12-2.37.11-5.12.19-8.08l0-.81a10.87,10.87,0,0,1,.05-1.14v-.34c.11-3.65.32-7.48.56-11.29.08-1.18.17-2.36.26-3.53l.09-1.22c.07-.77.13-1.52.2-2.27a84.27,84.27,0,0,1,2.24-14.33c1.58-5.36,5.07-8.86,8.24-11.42l2.29-1.77a14.62,14.62,0,0,0,8.33-1c3-1.27,4-2.17,4.5-1.83C370.64,304.48,375.56,319,374.28,335Z"/><path class="cls-9" d="M323.15,439s-.58,9.46-2.41,9.59c-.25,0-9.28,0-9.28,0l-11.54-.07a3.74,3.74,0,0,1,3.44-3.37c3.38-.58,9-2.95,11.07-7.41C316.58,433,323.15,439,323.15,439Z"/><path class="cls-20" d="M325.57,439.57s-2.23,1.72-6.78,1.94a18.82,18.82,0,0,1-3.18-.13,15.18,15.18,0,0,1-4.07-1L299.29,389s13.27-11.58,20.19-4.38a12.25,12.25,0,0,1,2.33,4.7C326.2,403.43,325.57,439.57,325.57,439.57Z"/><path class="cls-21" d="M355,325.05s-8.58,31.44-18.39,35.27a7.51,7.51,0,0,0,.22-1.56c.12-2.37.11-5.12.19-8.08l0-.81a10.87,10.87,0,0,1,.05-1.14v-.34c.11-3.65.32-7.48.56-11.29.08-1.18.17-2.36.26-3.53C342.21,328.36,348.07,324.61,355,325.05Z"/><path class="cls-18" d="M303.46,337.16a24.84,24.84,0,0,1-4.7,0c-1-.29-5.47-3-7.11-2.41s-5.77,4.81-4.71,6.73a5.42,5.42,0,0,0,3.7-1.78c1.78-1.82,3.7-.57,3.51-.33s-3,1.34-2.5,1.82,4.13.39,5-.19,7.3.15,7.3.15Z"/><path class="cls-12" d="M355,308.47s-23.25,19.82-29.37,21.73-27.75,6.11-27.75,6.11-.59,5.12,1.43,7.05c0,0,27.79-1.61,31.25-2.35s29.24-14.09,31.35-15.1S363.65,306.83,355,308.47Z"/><path class="cls-10" d="M325.57,439.57s-2.23,1.72-6.78,1.94a18.82,18.82,0,0,1-3.18-.13c7-8.83,6.2-52.11,6.2-52.11C326.2,403.43,325.57,439.57,325.57,439.57Z"/><path class="cls-20" d="M367.32,282.4v.12a.83.83,0,0,1-.36.72.48.48,0,0,1-.23.07H337.25c-.32,0-.59-.36-.59-.79v-.12c0-.43.27-.79.59-.79l6.59-.84A12.24,12.24,0,0,1,352,270.51h0a10.65,10.65,0,0,1,3.3-.52c6.05,0,11,5,11.52,11.37l0,.22.12.1A.81.81,0,0,1,367.32,282.4Z"/><path class="cls-10" d="M357.36,281.36c2.2-11.62-5.12-10.88-5.36-10.85a10.65,10.65,0,0,1,3.3-.52c6.05,0,11,5,11.52,11.37Z"/></g></g></svg>