<svg id="Layer_1" data-name="Layer 1" xmlns="http://www.w3.org/2000/svg" viewBox="0 0 500 500"><defs><style>.cls-1{fill:#d1e5ff;}.cls-2{fill:#9bc1f9;}.cls-3{fill:#466eb6;}.cls-4{fill:#86b1f2;}.cls-5{fill:#f7cc7f;}.cls-6{fill:#f47458;}.cls-7{fill:#fae0b2;}.cls-8{fill:#fe978e;}.cls-9{fill:#ff7446;}.cls-10{fill:#001653;}.cls-11{fill:#fff;}.cls-12{fill:#957447;}.cls-13{fill:#f25c12;}.cls-14{fill:#e6a500;}.cls-15{fill:#021f6e;}.cls-16{fill:#021753;}.cls-17{fill:#5d70a2;}.cls-18{fill:#fcc332;}.cls-19{fill:#b5450e;opacity:0.6;}.cls-20{fill:#00424c;}.cls-21{fill:#f29913;}.cls-22{fill:#50bfa5;}.cls-23{fill:#100062;}.cls-24{fill:#0c004a;}.cls-25{fill:#fcb500;}.cls-26{fill:#fc9700;}.cls-27{fill:#f7a491;}.cls-28{fill:#184655;}.cls-29{fill:#355389;}.cls-30{fill:#f8a492;}.cls-31{fill:#3c8f7c;}.cls-32{fill:#fe875e;}.cls-33{fill:#13375b;}.cls-34{fill:#96d9c9;}</style></defs><title>pharma</title><path class="cls-1" d="M84,120.92c-104,100.93-43.11,293.57-43.11,293.57l410.87.84s76.56-137-2.54-248.38C376.13,64.14,163.73,43.53,84,120.92Z"/><rect class="cls-2" x="47.96" y="120.92" width="126.53" height="291.1" transform="translate(222.45 532.94) rotate(180)"/><rect class="cls-3" x="124.85" y="103.73" width="8.27" height="308.38" transform="translate(257.97 515.83) rotate(180)"/><path class="cls-4" d="M124.86,103.73c0,.78,0,308.25,0,308.25H48.33V120.73Z"/><path class="cls-2" d="M57.09,146.26l.38,81.41a7.71,7.71,0,0,1,8.67,7.63l42.5-5.23a7.74,7.74,0,0,1,6.78-7.71l-.38-85.2a8.18,8.18,0,0,1-1.62.17,7.73,7.73,0,0,1-7.71-7.69l-42.5,9A7.71,7.71,0,0,1,57.09,146.26Zm3,2.1a10.75,10.75,0,0,0,5.82-7.23l37.45-8a10.75,10.75,0,0,0,8.73,7.05l.36,79.86A10.7,10.7,0,0,0,106,227.4L68.58,232a10.76,10.76,0,0,0-8.15-7.18Z"/><path class="cls-2" d="M57.23,294.6l.17,97h0a7.73,7.73,0,0,1,7.73,7.71l11.1,0A7.73,7.73,0,0,1,84,391.59v-98c-.22,0-.45,0-.67,0a7.72,7.72,0,0,1-7.71-7.73l-11.28,1A7.71,7.71,0,0,1,57.23,294.6Zm3,2.36a10.84,10.84,0,0,0,6.7-7.31l6.18-.53a10.76,10.76,0,0,0,7.9,7.25v92.68a10.75,10.75,0,0,0-7.29,7.3h-6a10.73,10.73,0,0,0-7.31-7.29Z"/><path class="cls-2" d="M88.91,291.86v99.7h0a7.71,7.71,0,0,1,7.72,7.72l9.08,0a7.72,7.72,0,0,1,7.71-7.66l.76-100.53c-.22,0-.45,0-.67,0a7.72,7.72,0,0,1-7.71-7.79l-9.84.85A7.73,7.73,0,0,1,88.91,291.86Zm3,2.37a10.61,10.61,0,0,0,6.71-7.31l4.71-.41a10.74,10.74,0,0,0,7.9,7.31l-.73,95.23a10.8,10.8,0,0,0-7.29,7.25h-4A10.7,10.7,0,0,0,91.88,389Z"/><ellipse class="cls-5" cx="107.37" cy="258.02" rx="3.12" ry="6.05"/><path class="cls-6" d="M101.33,255.89v4.77h6.54a11.18,11.18,0,0,0,.3-2.6,11.41,11.41,0,0,0-.21-2.17Z"/><path class="cls-7" d="M96.83,258c0,5,2.1,9.12,4.7,9.12s4.7-4.09,4.7-9.12-2.11-9.12-4.7-9.12S96.83,253,96.83,258Z"/><ellipse class="cls-7" cx="100.27" cy="258.02" rx="4.7" ry="9.12"/><path class="cls-8" d="M21.81,418H477.56c1.15,0,2.09-1.37,2.09-3.06s-.94-3.06-2.09-3.06H21.81c-1.16,0-2.1,1.37-2.1,3.06S20.65,418,21.81,418Z"/><path class="cls-9" d="M424,397.58s0,.29,0,.78a10.41,10.41,0,0,1-2.58,7.09c-3.06,3.19-3.08,7.15.15,7.83s11-.22,11-.22,1.74-3,.55-11.12-1.88-17-1.88-17l-8.79-1.37Z"/><path class="cls-10" d="M422.26,401a50.77,50.77,0,0,0-4,6.27c-.76,1.84-.6,6.43,0,6.9,5.27,4.17,15.27.42,15.27.42a60.9,60.9,0,0,0,1-6.8c.35-3.74.15-7.23-1-7.23s-1.4,2-4.1,1.41S425,400.46,422.26,401Z"/><path class="cls-11" d="M434.34,409.68a35.6,35.6,0,0,1-7.36,2.09c-2.74.39-6.42-.83-9.2-2.06-.15,2,.06,4.17.46,4.48,5.27,4.17,15.27.42,15.27.42S434,412.52,434.34,409.68Z"/><path class="cls-12" d="M434.34,409.68c-7.57,2.27-9,2.67-16.56,0a22.45,22.45,0,0,0,4,1.69,11.38,11.38,0,0,0,6.48.41A28.1,28.1,0,0,0,434.34,409.68Z"/><path class="cls-13" d="M336.07,259.92c2.17.81,5,2,5,2,.37-.89-6.77-2.42-7.78-4.59-.53-1.17,8.2,3.12,8.8,2.6.26-.21-9.87-3.5-9.4-4.3s10.64,3,10.7,2.45c.08-.7-8.88-2.5-8.08-3.5.41-.51,11.29,2.43,12.46,2.6,1.43,0-3.76-3.52-2-4,2.4-.64,8.44,6.28,8.91,6.38,1.36.28,13,1.7,18.68-2,4.6-3,9.06-7.63,10.16-11.62s2.55-9.48,1.28-13.78a56.35,56.35,0,0,1,15.46-.34c.32,6.46-7.41,32.06-10.65,34.17-7.11,4.63-19.81,3.5-28.76,2.76-7.21-.59-14.27-2-20.77-5.31-1.45-.74-3.4-1.56-4.52-2.85A.42.42,0,0,1,336.07,259.92Z"/><path class="cls-14" d="M388.09,210.48c-3.86,4-7.75,27.83-6.32,33.52,2.48,4.62,13.68,5.41,17.3,7.6,8.36-3.43,2.63-18.84,2.63-18.84l3.05-30A25.8,25.8,0,0,0,388.09,210.48Z"/><path class="cls-9" d="M398.63,392.24a9.17,9.17,0,0,1-2.92,9.91,15.56,15.56,0,0,1-3.5,2.16c-5.12,2.24-11.75,1.73-12.68,6.33S412,409.35,412,409.35s-2.31-11.18-2.46-13.05.2-8.75.2-8.75l-12.89-.93Z"/><path class="cls-10" d="M410.64,401.44s.4,1.77,1.34,4.78a13.14,13.14,0,0,1,.35,5.85s-31.27,1.48-32.53.49-.62-4.6-.3-4.92,4.29-1.39,6.33-2.64,9-6,11.33-5.82,3.43,1.93,7.89,2.13S409.53,400.57,410.64,401.44Z"/><path class="cls-11" d="M379.8,412.56c1.26,1,32.53-.49,32.53-.49a13.19,13.19,0,0,0,0-4.17c-16.32,3-32.86-.26-32.86-.26C379.18,408,378.53,411.57,379.8,412.56Z"/><path class="cls-12" d="M412.36,407.9a85.08,85.08,0,0,1-32.86-.26,114.83,114.83,0,0,0,29.8.68Z"/><path class="cls-15" d="M436.51,283.9c5.37,19.62-1.3,107.61-1.3,107.61l-16.06-1.1s-3.65-87.54-6.3-90.19a1.63,1.63,0,0,0-2.25-.09,3.55,3.55,0,0,0-1.33,1.87c-1.65,5.4-11.1,36.84-9.19,43.73,2.08,7.54,11.39,47.92,11.39,47.92l-13.48.54s-18.47-30.85-18.47-52.39,3-50.09,11.73-61.71c4-5.29,23.54-9.38,23.54-9.38S434.83,277.77,436.51,283.9Z"/><path class="cls-16" d="M407.48,393.62s-9.3-43.07-11.39-51.1c-1.51-5.84,4.15-28.23,7.37-40.06a5.16,5.16,0,0,1,8.14-2.73h0s-13.61,38.46-11.52,46,11.39,47.92,11.39,47.92l-13.48.54-.1-.16Z"/><path class="cls-16" d="M433.18,279.83a8.89,8.89,0,0,1,3.33,4.07c5.37,19.62-1.3,107.61-1.3,107.61l-4-.27C431.46,388.06,437.23,305.23,433.18,279.83Z"/><path class="cls-16" d="M388.17,285.35a29.4,29.4,0,0,1,3.08-5.26,8.64,8.64,0,0,1,2-1.79,61,61,0,0,0,9.59,3.7c12.88,3.95,26.76,1.84,32.53-.16a5.67,5.67,0,0,1,1.18,2.06,44.68,44.68,0,0,1,1.14,6.55c-2.88,2.14-19.62,7.31-34.85,2.47C393.14,289.84,389.53,288,388.17,285.35Z"/><path class="cls-17" d="M435.21,398.17c-4.12,1.34-14,1-16.39,0-2.18-.92-2.33-9,0-9.48,3.27-.61,12.55-.54,16.39,0C437.55,389,437.46,397.44,435.21,398.17Z"/><path class="cls-17" d="M410.79,394.55c-4.12,1.34-14,1-16.39,0-2.18-.93-2.33-9,0-9.48,3.27-.62,12.55-.55,16.39,0C413.13,385.41,413,393.82,410.79,394.55Z"/><path class="cls-18" d="M416.92,202.07s13.39-.68,18.87,5.8,5,74.64,2.81,76.54-21.25,7.64-36.37,3.17S386.15,277,386.15,277s4-45.83,4-58.35S402.4,198.7,416.92,202.07Z"/><path class="cls-14" d="M428.74,271.1c1.18-3.29-.09-13.75-1.44-21.33-1.05.21-2.06.44-3,.72-1.62-5-3-18-3.09-26.18-.09-15.33,7.67-19.78,7.67-19.78,1.54-.36,4,1.09,7.84,5.1,4.45,12.15,3.52,68.7,1.43,70.49-.88.76-2.62,5.54-7.1,6.49C429.87,282,427.64,274.14,428.74,271.1Z"/><path class="cls-14" d="M418.08,202.21c2.9,2.67,3.13,2.73.11,6.23s-13,7.48-14.43,6.81c-3.54-1.67-.25-7.24,2.1-11.25C406.6,202.75,415.17,199.55,418.08,202.21Z"/><path class="cls-13" d="M405.1,192.12s-.79,18.45,0,19.25,12-3.09,13-5.38S414,170.36,414,170.36Z"/><path class="cls-19" d="M404.76,204.28c2-.35,3.68-.86,4.19-1.42,4.57-5.17,1.14-13.55,1.5-15.73.72-4.34,2.17-7.92,1.44-11.66l-6.79,16.65S404.81,198.79,404.76,204.28Z"/><path class="cls-20" d="M345,213.07c-.76,1.93.82,3.79,2.48,3a1.76,1.76,0,0,0,.85-.95c.77-1.92-.82-3.78-2.48-3A1.78,1.78,0,0,0,345,213.07Z"/><path class="cls-20" d="M346,214l.57.79.34-.95c.45-1.24,4.26-12.2.05-14.7a2.21,2.21,0,0,0-3.21.65C341.94,202.43,342.51,209.07,346,214Zm-1.41-13.43a1.16,1.16,0,0,1,1.46-.52,1.77,1.77,0,0,1,.42.2c2.56,1.51.95,8.5-.21,12.1C343.47,207.79,343.36,202.37,344.61,200.57Z"/><path class="cls-20" d="M346.55,213.39l.88.19a11.37,11.37,0,0,0,2.37.25c3.9,0,7.31-2,8.13-4.34a2.73,2.73,0,0,0-1-3.23c-3.5-2.72-9.22,5.39-9.86,6.32Zm2-.88c1.63-2.17,4.66-5.56,6.79-5.56a1.59,1.59,0,0,1,1,.34,1.42,1.42,0,0,1,.57,1.73C356.28,210.86,352.71,213,348.56,212.51Z"/><rect class="cls-18" x="313.4" y="214.25" width="63.13" height="47.64" rx="15.53" transform="translate(689.94 476.13) rotate(-180)"/><path class="cls-21" d="M317.53,214.25h19.74v47.64H317.53c-2.28,0-4.13-3-4.13-6.61V220.85C313.4,217.2,315.25,214.25,317.53,214.25Z"/><path class="cls-20" d="M355,214.25h1.56c8.42,15.2,3.26,41.83,2,47.64h-1.21c.87-3.92,6.88-32.88-2.27-47.5C355.06,214.34,355,214.29,355,214.25Z"/><path class="cls-20" d="M325.89,261.71a1.1,1.1,0,0,1,0,.18h-1.16c-3.4-27.15.35-41.5,2.88-47.64h1.43C326.76,219.38,322.34,233.52,325.89,261.71Z"/><rect class="cls-22" x="418.25" y="285.16" width="42.03" height="28.23" rx="6.87" transform="translate(878.52 598.55) rotate(180)"/><rect class="cls-11" x="419.85" y="288.41" width="35.6" height="21.73" transform="translate(875.29 598.55) rotate(180)"/><rect class="cls-21" x="417.35" y="293.06" width="3.75" height="12.42" rx="1.22" transform="translate(838.45 598.55) rotate(180)"/><path class="cls-13" d="M432,271.1c-2.65,8.06,6.68,25.5,2.89,31.08s-1.89,11.44,2.71,14.35,10.29-1.17,9.83-3.38-1.69-8.16-2.26-10.89,10.11-24.53,2.6-37.75c-4.47-7.85,2.13-21.36-1.35-30.09-3.12,5.82-17.89,2.18-17,8.56C430.7,248.43,433.45,266.57,432,271.1Z"/><path class="cls-9" d="M398.52,173a51.73,51.73,0,0,0-1.93,12.05c0,5.42.13,14.82,4,14.82s9.35-1.06,10.63-8.73,0-16.15-3.84-18.14S398.52,173,398.52,173Z"/><path class="cls-23" d="M400,177.89a1.42,1.42,0,0,1,1.9,1.63c-.31,1.81-.24,3.8,1.46,4.22,3.27.79,4.81,0,5.35.55s-1.55,3.5,0,4.05,2.38-4.73,3.74-4.73,1.66,7.61,0,9.33.24,4.05,2.44,4.05-.28,2.76,2.68,3.68,5.34.92,6.29-2.82,0-5.83,0-5.83,3-3.54,2.26-7a28.5,28.5,0,0,0-2.4-5.44A50.39,50.39,0,0,1,421.8,173c-.42-2.4-6.31-4.79-10.34-5.22s-2-2.88-5.4-2.88-3.86,4.47-3.86,4.47-4.83-2.89-5.06-2.76c-2.81,1.72-.47,4.73-.47,4.73s-2.32.25-2.79,3.25,1.48,4.85,4.57,3.87C399,178.27,399.56,178.08,400,177.89Z"/><path class="cls-24" d="M396.67,167a17.87,17.87,0,0,1,2.32.56c1.45.8,3.21,1.86,3.21,1.86a78.14,78.14,0,0,1,9.93,3.49A110.67,110.67,0,0,1,423.56,179l.18.51s.72,1.29,1.39,2.73c-2.87-.62-8.48-2.79-14.73-5.77C403.33,173.14,396.27,167.29,396.67,167Z"/><path class="cls-9" d="M410.33,183.2s1.63-3,3.09-1.33.69,8.78-1.55,8.78S409.53,185.1,410.33,183.2Z"/><path class="cls-18" d="M428.45,204.67s-4.56,3.47-4.48,18.79c0,8.18,2.45,22,3.92,27a37.71,37.71,0,0,1,21.06,0c.84-6.69-.87-21-1.93-25.57C444.41,213.58,435,202.07,428.45,204.67Z"/><path class="cls-25" d="M400.88,167.75a12.87,12.87,0,0,1,23.23,11.08c-.11.24-.24.48-.37.71l-23.18-11C400.66,168.24,400.76,168,400.88,167.75Z"/><path class="cls-18" d="M405.7,170.65c.1-.25.2-.49.32-.74a12.76,12.76,0,0,1,13.86-7,12.89,12.89,0,0,0-19,4.86c-.12.25-.22.49-.32.74l23.18,11C423.78,179.47,405.7,170.65,405.7,170.65Z"/><path class="cls-26" d="M390.21,163.87c.24-.51,12.31,4.41,20,8.09S424,179,423.77,179.55s-13-2.48-20.77-6.16S390,164.39,390.21,163.87Z"/><path class="cls-27" d="M162,391.9s-2.73,2.7-2.79,3.69-.24,11.6.87,12.59,4.38,1.69,3.33,2.8c-.79.85-6.91.67-11,.44-1.18-.07-2.66-9.63-3.13-11-.68-2-2.83-7.18-2.22-8.6.31-.7,2.24-1.58,4.28-2.91a18.87,18.87,0,0,0,4.18-4.52Z"/><path class="cls-27" d="M198.48,398.53l-2.45,7c-.18,1.11-.89,3.84-.89,4.85,0,3.78,16.82-3.21,13.05-4.89a4,4,0,0,1-1.52-2.65c-.17-2,1.42-4.47,1.42-4.47Z"/><path class="cls-28" d="M197.08,273.9l-8.71,10.17-8.54,53.17-26.89,49.6S157,393,161.33,394l38.15-50.13,20.68-62.76-.73-13.94Z"/><path class="cls-29" d="M218.88,264.09l6,18.57s5.3,55.32,4.54,59.13c-1.84,9.3-20.42,59.92-20.42,59.92l-11.91-1.52,13.07-59.85-21.77-56.22Z"/><path class="cls-30" d="M276.69,200.88c-2.82,3.11-2.2,3.48-2.57,3.87s-8.62,2.2-8.62,2.2-24,5.3-25.35,5.53l-24.94-5.67-6.08,12.09s27.29,5.42,28.76,5.44,33.13-11.1,35.95-12c0,0,3.75.24,6.11.32s4.61-1,5.28-1a20.62,20.62,0,0,0,4.86-1.71c2.22-1.1-.38-1.12-.38-1.12s-4.45,1.26-4.49.87,2.44-.83,4.9-2l1.83-.89c1.5-.75,1.48-1.92-.21-1.41a18.15,18.15,0,0,0-2.25.85,12.82,12.82,0,0,1-2.15.67,15.64,15.64,0,0,1-2.23.67c0-.08-.3-.19.37-.53s2.67-.91,3.8-1.62c.63-.4,2-1.15,2-1.15s2.31-1.51,2.08-1.82c-.49-.68-2.1,0-2.89.67a10.78,10.78,0,0,0-2.15,1s-3.27,1-3.41.52c-.06-.19,1.62-1.17,3.3-2.33s3-2.21,2.83-2.61c-.27-.63-1.77.25-1.77.25s-1.32.77-1.78,1-2.2.91-2.2.91-5.9,2-6,1.51a3.22,3.22,0,0,1,.41-2c.33-.26,1.16-.4,1.48-.65s1-.87.7-1.32-2.74.15-2.74.15A6.58,6.58,0,0,0,276.69,200.88Z"/><path class="cls-31" d="M223.76,208.09s-.86,5.3-1.41,7.26c-.46,1.63-3.69,8.33-3.69,8.33s-11.56-3.79-17-6c-6.63-2.63-14.29-8.3-13.79-9a12.23,12.23,0,0,1,6.83-5.15C205.68,200.79,223.76,208.09,223.76,208.09Z"/><path class="cls-22" d="M225.1,282.27c-11,4.36-37,1.85-37,1.85s1.64-11.33,2.22-19S186.06,245.4,184,224.4c-.44-4.46,1.31-16.49,7.55-20.26a10.43,10.43,0,0,1,3.54-1.5c.05,0,8.59-1.74,12.94-.4,1.24,1.1,5.09,4.29,7.31,8a73.06,73.06,0,0,1,5.87,12.49c2.52,8.32,3.59,32.44,3.59,37S225.1,282.27,225.1,282.27Z"/><path class="cls-27" d="M215.35,210.25h0c-4.24,1.32-20.23-7.57-20.23-7.57v-.05L197,190s10-2.35,9.41,1.25,1.35,10.8,1.35,10.8a3.09,3.09,0,0,0,.25.23C209.28,203.34,213.13,206.53,215.35,210.25Z"/><path class="cls-32" d="M206.44,191.21C207,187.61,197,190,197,190l-.16,1.06a5.89,5.89,0,0,0,1.08,1.77,13.17,13.17,0,0,0,8.73,3.92A19.46,19.46,0,0,1,206.44,191.21Z"/><path class="cls-27" d="M195.1,170.46c-.3-.11-2.45,15.7,1.62,20s12,5.77,14.85,2.35c3.14-3.79,3-20.79-3.34-25.26S195.1,170.46,195.1,170.46Z"/><path class="cls-33" d="M205.82,159.14a17.53,17.53,0,0,0-9.22,5.23c-2.22.26-5.24,1.48-8.36,6.6-3.83,6.3-1,13.29,3.46,16.71s4.41,7.41,4.41,7.41,7.56-3.88,6.82-9.86c-.3-2.51-1.39-3.07-.58-5s.22-5.21.38-8l.45-1.73s3.16-2.45,6.26-1.76S212.09,157.87,205.82,159.14Z"/><path class="cls-27" d="M203.59,181.84c0,1.93-.36,3.47-1.48,3.49s-1.43-.73-2.36-3.46c-.87-2.55.18-3.5,1.31-3.52S203.56,179.91,203.59,181.84Z"/><path class="cls-31" d="M151.5,388.8s5.7,17.5,8.16,18.37c.65.23,4.37,1.25,5,2.66a1,1,0,0,1,0,.12,1.46,1.46,0,0,1-1.46,1.71H151.52s-1.66-7.9-2.31-11.37c0,0-3.47-8.49-3.08-9.26S151.5,388.8,151.5,388.8Z"/><path class="cls-31" d="M194.18,411.64l1.93-6.17s4,1.73,6.07,1.44,6-1.44,6-1.44c8.08,2.69,14.69,4,13.49,6.17H194.18Z"/><path class="cls-30" d="M277.38,227.6a23.25,23.25,0,0,0-4,2.8c-.57.33-9.4-.06-9.4-.06s-26-1-27.44-1.07l-24-11.65-9.46,10s26.48,12,28,12.38,36.9-2.28,40-2.42c0,0,3.77,1.18,6.17,1.83s5,.25,5.68.34a23.08,23.08,0,0,0,5.44-.41c2.56-.5-.09-1.17-.09-1.17s-4.9.09-4.84-.29,2.73-.18,5.57-.7l2.11-.39c1.73-.34,2-1.46.16-1.39a16.77,16.77,0,0,0-2.53.25,15.16,15.16,0,0,1-2.39.09,19.8,19.8,0,0,1-2.37.09c0-.08-.34-.26.43-.42.93-.2,3-.2,4.33-.59.76-.22,2.37-.6,2.37-.6a13.65,13.65,0,0,0,1.91-1.29c-.07-.83-1.44-.43-2.44,0a12.08,12.08,0,0,0-2.46.4s-3.61.14-3.63-.36c0-.19,2.07-.33,4.22-1,2.46-.78,3.07-1.89,3-2.32-.11-.67-1.49,0-1.49,0a21.54,21.54,0,0,1-2.43,1c-.62.11-8.74.26-8.72-.21s.81-1.1,1.21-1.26,1.16-.38,1.56-.54a1.4,1.4,0,0,0,.51-1.48c-.16-.49-1.93-.23-1.93-.23A8.26,8.26,0,0,0,277.38,227.6Z"/><path class="cls-34" d="M210.19,238.33s4.73-6,6.37-8.37a102.62,102.62,0,0,0,5.88-10s-13.17-7.58-18.07-10.17c-18-9.49-17.59,4.66-16.75,7.8C189.49,224.66,210.19,238.33,210.19,238.33Z"/><path class="cls-32" d="M277,207.45c1.56-.89,2.76-2.28,2.37-4C280.69,204.81,279,207.37,277,207.45Z"/></svg>