<svg xmlns="http://www.w3.org/2000/svg" xmlns:xlink="http://www.w3.org/1999/xlink" viewBox="0 0 500 500"><defs><style>.cls-1{isolation:isolate;}.cls-11,.cls-2{fill:#4dd0e1;}.cls-3{fill:#e7edf4;}.cls-4{mix-blend-mode:multiply;fill:url(#linear-gradient);}.cls-5{fill:#fff;}.cls-6{fill:#235196;}.cls-7,.cls-8,.cls-9{fill:none;stroke-width:3px;}.cls-7{stroke:#235196;stroke-linejoin:round;}.cls-8{stroke:#e7edf4;}.cls-8,.cls-9{stroke-linecap:round;}.cls-11,.cls-8,.cls-9{stroke-miterlimit:10;}.cls-9{stroke:#d1dde8;}.cls-10{fill:#f47458;}.cls-11{stroke:#102b2d;stroke-width:0.5px;}.cls-12{fill:#355389;}.cls-13{fill:#f7cc7f;}.cls-14{fill:#f7a491;}.cls-15{fill:#82ccce;}.cls-16{fill:#83dbe2;}</style><linearGradient id="linear-gradient" x1="531.99" y1="218.12" x2="32.46" y2="218.12" gradientTransform="matrix(1, 0.09, -0.09, 1, -189.8, 4.02)" gradientUnits="userSpaceOnUse"><stop offset="0" stop-color="#fff" stop-opacity="0"/><stop offset="1" stop-color="#235196"/></linearGradient></defs><title>pharma</title><g class="cls-1"><g id="Layer_1" data-name="Layer 1"><path class="cls-2" d="M343.82,468,73.54,426.62c-7.06-1.08-12-6.84-11.37-13.24L96.47,67.6c.64-6.39,6.64-11.28,13.8-11.22l274.18,2.1c8,.06,14.27,6.25,13.56,13.41l-38.2,385.05C359.1,464.11,351.72,469.2,343.82,468Z"/><polygon class="cls-3" points="342.49 455.73 77.02 415.09 109.64 86.27 378.94 88.34 342.49 455.73"/><polygon class="cls-4" points="342.49 455.73 77.02 415.09 109.64 86.27 378.94 88.34 342.49 455.73"/><path class="cls-5" d="M378.94,88.34,109.65,86.27S73.92,357,51.07,374.32L320,427Z"/><path class="cls-3" d="M51.07,374.32S21.51,361.5,24.14,325.1l239.93,50.54s49.6,87.93,59.82,29.16L320,427Z"/><ellipse class="cls-6" cx="198.63" cy="73.76" rx="6.76" ry="6.06"/><ellipse class="cls-6" cx="295.07" cy="73.63" rx="6.76" ry="6.06"/><path class="cls-7" d="M198.63,73.76l-2.14,21.55c-.34,3.45,2.68,6.41,6.54,6.41l32.08,0,.1-1c.3-3.18,3.25-5.63,6.81-5.65l3.06,0c4,0,7.24,3,6.91,6.66h0l34.32,0a6.32,6.32,0,0,0,6.52-5.36l2.24-22.6"/><line class="cls-8" x1="145.43" y1="140.41" x2="316.01" y2="144.45"/><line class="cls-8" x1="143.15" y1="163.38" x2="313.73" y2="167.42"/><line class="cls-8" x1="138.94" y1="186.2" x2="309.52" y2="190.23"/><line class="cls-8" x1="134.74" y1="209.02" x2="305.31" y2="213.05"/><line class="cls-8" x1="130.53" y1="231.83" x2="301.11" y2="235.87"/><path class="cls-3" d="M213.07,289.05c-1.32,13.31-14.41,23.13-29.23,21.95s-25.78-12.93-24.46-26.23,14.41-23.13,29.23-21.95S214.39,275.75,213.07,289.05Z"/><path class="cls-9" d="M136.41,302.11a35.91,35.91,0,0,1-9.15-29.92c.43-2.55,1.58-5.48,4.35-6.19,4.08-1,7,3.43,8.33,7.05l5.07,14a4,4,0,0,0,1.58,2.32c4.13,2.32,6.07-8.31,10.61-6.73,2.48.87,1.71,4.3,3.18,6.28,1.65,2.24,5.5,1.85,8.11.56s5-3.28,7.95-3.55,5.68,1.14,8.54.86c5-.48,8.86-5.85,13.67-4.63"/><path class="cls-10" d="M213.7,214.61a15.25,15.25,0,0,1,5.62-.39s1.11-6.25.19-6.84c-1.23-.8-3,5-3,5Z"/><path class="cls-11" d="M68.09,267.7l152.48-55.6c8.2-3,12.22-12.64,9-21.56L202,114.91c-3.25-8.91-12.54-13.72-20.74-10.72L28.74,159.79c-8.21,3-12.23,12.65-9,21.56L47.34,257C50.59,265.89,59.88,270.7,68.09,267.7Z"/><rect class="cls-12" x="36.67" y="198.38" width="193.93" height="24.42" transform="translate(-64.06 58.53) rotate(-20.03)"/><rect class="cls-13" x="37.08" y="160.79" width="42.76" height="23.72" transform="translate(-55.49 30.38) rotate(-19.98)"/><path class="cls-14" d="M213.59,214.56c-.67-.28-1.7-.56-1.81-1-.68-2.72-3.68-3.24-3-1.06.41,1.27,1.52,3.84,2.56,4.67.75.6,4.11,2.37,4.11,2.37A3.41,3.41,0,0,0,213.59,214.56Z"/><path class="cls-15" d="M400.66,409.59C298.43,391,192.66,393.9,88.92,418.3q-9.73-69.57-19.46-139.14c120-28.2,242.25-31.62,360.45-10.07Z"/><path class="cls-16" d="M92.25,390.54q-5.75-43.5-11.48-87c10.92-2.48,18.87-12.75,17.74-23.24,100.72-20.37,202.73-23.22,302.22-8.44-1.88,10.58,5.38,20.42,16.15,22.29L399.27,382c-9.91-1.71-19.49,5.69-21.36,16.27-87.37-13-177-10.47-265.39,7.41C111.38,395.15,102.3,388.26,92.25,390.54Z"/><path class="cls-15" d="M303.37,324.44c-2.71,27-25.21,47.81-50.36,48.33s-45.92-19.56-46.35-46.47,22.18-50.65,50.48-51.18S306.08,297.53,303.37,324.44Z"/><path class="cls-5" d="M250.88,364.32l.12-8.77a41,41,0,0,1-10.61-1.36A5,5,0,0,1,237,348c0-.12.06-.23.08-.34a5.49,5.49,0,0,1,6.68-4.15,29.55,29.55,0,0,0,9.71,1.2c5.11-.24,8.66-2.39,8.75-6.08.09-3.5-2.75-5.64-9.44-7.62-9.68-2.85-16.37-7-16.42-15.91,0-8.11,5.73-14.91,15.83-17.35,0-2.92.07-5.85.1-8.77q4.65-.22,9.3-.41c-.06,2.71-.11,5.42-.17,8.12a38.06,38.06,0,0,1,8.55.93A5,5,0,0,1,273.6,304h0a5.74,5.74,0,0,1-6.84,4,27.2,27.2,0,0,0-8.15-.84c-6.06.26-8,3-8.07,5.54,0,3.05,3.19,4.79,10.94,7.44,10.86,3.48,15,8.53,14.69,16.83s-6.24,15.31-16.46,17.55c-.07,3.14-.15,6.27-.22,9.41C256.62,364.05,253.75,364.17,250.88,364.32Z"/><path class="cls-15" d="M192.54,330q-36.66,3.49-73.26,10.27L118,326.74q37.08-6.86,74.29-10.4Q192.4,323.2,192.54,330Z"/><path class="cls-15" d="M388.41,334.91q-36.07-5.31-72.55-7.34.7-6.87,1.43-13.74,37,2.06,73.57,7.44Q389.65,328.1,388.41,334.91Z"/><path class="cls-15" d="M388.56,298.31C321.63,262,247.31,239.9,169.5,233.2q9.1-50.65,18.22-101.32c90,7.74,175.89,33.28,253.28,75.27Z"/><path class="cls-16" d="M178.16,214.63Q184.09,183,190,151.44c8.17.77,16.06-4.56,17.66-12.13a641,641,0,0,1,212.37,63.11,14.17,14.17,0,0,0,6.15,19.21l-32.3,57.12c-6.51-3.46-14.88-.49-18.59,6.45a562.69,562.69,0,0,0-186.49-55.42C190.43,222.21,185.67,215.34,178.16,214.63Z"/><path class="cls-15" d="M340.25,216.81c-8,18.15-28.47,27.53-46.1,22.15s-27.5-24.1-21.66-42.94,27-30.2,46.83-24.11S348.29,198.68,340.25,216.81Z"/><path class="cls-5" d="M294.6,232.59l2.09-6.08a29.43,29.43,0,0,1-7.08-3.37,3.69,3.69,0,0,1-.95-5.07l.14-.21a4,4,0,0,1,5.59-1.37,22,22,0,0,0,6.49,3.06c3.61,1,6.58.31,7.48-2.24s-.62-4.55-4.83-7.47c-6.09-4.19-9.81-8.58-7.8-14.82,1.82-5.65,7.39-9.07,15-8.47l2.07-6.08c2.2.6,4.38,1.21,6.57,1.84l-2,5.61a28.43,28.43,0,0,1,5.74,2.6,3.66,3.66,0,0,1,1.07,5.27h0a4.22,4.22,0,0,1-5.68,1.21,20.16,20.16,0,0,0-5.48-2.45c-4.28-1.2-6.27.23-6.88,2-.72,2.12,1.13,4.06,5.92,7.68,6.76,4.9,8.51,9.37,6.38,15.07s-7.83,9.24-15.47,8.46q-1.14,3.25-2.3,6.51Q297.65,233.42,294.6,232.59Z"/><path class="cls-15" d="M261.8,195.41q-26.33-5.94-53.35-9.58c.73-3.25,1.45-6.5,2.18-9.75q27.38,3.69,54.1,9.72Q263.27,190.6,261.8,195.41Z"/><path class="cls-15" d="M397.08,243.51q-23.91-11.94-48.85-21.67l4.14-9.25q25.26,9.87,49.53,22Z"/></g></g></svg>