<svg xmlns="http://www.w3.org/2000/svg" xmlns:xlink="http://www.w3.org/1999/xlink" viewBox="0 0 500 500"><defs><style>.cls-1{isolation:isolate;}.cls-2{fill:#4dd0e1;}.cls-3{fill:#e7edf4;}.cls-4{mix-blend-mode:multiply;fill:url(#linear-gradient);}.cls-5{fill:#fff;}.cls-6{fill:#235196;}.cls-7,.cls-8,.cls-9{fill:none;stroke-width:3px;}.cls-7{stroke:#235196;stroke-linejoin:round;}.cls-8{stroke:#e7edf4;}.cls-8,.cls-9{stroke-linecap:round;stroke-miterlimit:10;}.cls-9{stroke:#d1dde8;}</style><linearGradient id="linear-gradient" x1="475.45" y1="220.03" x2="-24.08" y2="220.03" gradientTransform="matrix(1, 0.09, -0.09, 1, -96.31, 8.13)" gradientUnits="userSpaceOnUse"><stop offset="0" stop-color="#fff" stop-opacity="0"/><stop offset="1" stop-color="#235196"/></linearGradient></defs><title>pharma</title><g class="cls-1"><g id="Layer_1" data-name="Layer 1"><path class="cls-2" d="M380.82,469,110.54,427.62c-7.06-1.08-12-6.84-11.37-13.24L133.47,68.6c.64-6.39,6.64-11.28,13.8-11.22l274.18,2.1c8,.06,14.27,6.25,13.56,13.41l-38.2,385.05C396.1,465.11,388.72,470.2,380.82,469Z"/><polygon class="cls-3" points="379.49 456.73 114.02 416.09 146.65 87.27 415.94 89.34 379.49 456.73"/><polygon class="cls-4" points="379.49 456.73 114.02 416.09 146.65 87.27 415.94 89.34 379.49 456.73"/><path class="cls-5" d="M415.94,89.34,146.65,87.27S110.92,358,88.07,375.32L357,428Z"/><path class="cls-3" d="M88.07,375.32S58.51,362.5,61.14,326.1l239.93,50.54s49.6,87.93,59.82,29.16L357,428Z"/><ellipse class="cls-6" cx="235.63" cy="74.76" rx="6.76" ry="6.06"/><ellipse class="cls-6" cx="332.07" cy="74.63" rx="6.76" ry="6.06"/><path class="cls-7" d="M235.63,74.76l-2.14,21.55c-.34,3.45,2.68,6.41,6.54,6.41l32.08,0,.1-1c.3-3.18,3.25-5.63,6.81-5.65l3.06,0c4,0,7.24,3,6.91,6.66h0l34.32,0a6.32,6.32,0,0,0,6.52-5.36l2.24-22.6"/><line class="cls-8" x1="182.43" y1="141.41" x2="353.01" y2="145.45"/><line class="cls-8" x1="180.15" y1="164.38" x2="350.73" y2="168.42"/><line class="cls-8" x1="175.94" y1="187.2" x2="346.52" y2="191.23"/><line class="cls-8" x1="171.74" y1="210.02" x2="342.31" y2="214.05"/><line class="cls-8" x1="167.53" y1="232.83" x2="338.11" y2="236.87"/><path class="cls-3" d="M250.07,290.05c-1.32,13.31-14.41,23.13-29.23,21.95s-25.78-12.93-24.46-26.23,14.41-23.13,29.23-21.95S251.39,276.75,250.07,290.05Z"/><path class="cls-9" d="M173.41,303.11a35.91,35.91,0,0,1-9.15-29.92c.43-2.55,1.58-5.48,4.35-6.19,4.08-1,7,3.43,8.33,7.05l5.07,14a4,4,0,0,0,1.58,2.32c4.13,2.32,6.07-8.31,10.61-6.73,2.48.87,1.71,4.3,3.18,6.28,1.65,2.24,5.5,1.85,8.11.56s5-3.28,7.95-3.55,5.68,1.14,8.54.86c5-.48,8.86-5.85,13.67-4.63"/></g></g></svg>