<svg xmlns="http://www.w3.org/2000/svg" xmlns:xlink="http://www.w3.org/1999/xlink" viewBox="0 0 500 500"><defs><style>.cls-1{fill:none;}.cls-2{isolation:isolate;}.cls-25,.cls-3{fill:#4dd0e1;}.cls-18,.cls-24,.cls-4{fill:#235196;}.cls-4{opacity:0.6;}.cls-10,.cls-11,.cls-12,.cls-13,.cls-14,.cls-15,.cls-16,.cls-17,.cls-19,.cls-20,.cls-4,.cls-6,.cls-7,.cls-8,.cls-9{mix-blend-mode:multiply;}.cls-5{fill:#fff;}.cls-6{fill:url(#linear-gradient);}.cls-7{fill:url(#linear-gradient-2);}.cls-8{fill:url(#linear-gradient-3);}.cls-9{fill:url(#linear-gradient-4);}.cls-10{fill:url(#linear-gradient-5);}.cls-11{fill:url(#linear-gradient-6);}.cls-12{fill:url(#linear-gradient-7);}.cls-13{fill:url(#linear-gradient-8);}.cls-14{fill:url(#linear-gradient-9);}.cls-15{fill:url(#linear-gradient-10);}.cls-16{fill:url(#linear-gradient-11);}.cls-17{fill:url(#linear-gradient-12);}.cls-19{fill:url(#linear-gradient-13);}.cls-20{fill:url(#linear-gradient-14);}.cls-21{clip-path:url(#clip-path);}.cls-22{fill:#d1dde8;}.cls-23{fill:#e7edf4;}.cls-24{font-size:158.95px;}.cls-24,.cls-25{font-family:HelveticaLTStd-BlkCond, Helvetica LT Std;}.cls-25{font-size:102.13px;}</style><linearGradient id="linear-gradient" x1="537.2" y1="-88.59" x2="577.79" y2="-21.11" gradientTransform="translate(-206.75 -21.04) rotate(22.04)" gradientUnits="userSpaceOnUse"><stop offset="0" stop-color="#fff" stop-opacity="0"/><stop offset="1" stop-color="#235196"/></linearGradient><linearGradient id="linear-gradient-2" x1="631.77" y1="-91.28" x2="672.37" y2="-23.8" xlink:href="#linear-gradient"/><linearGradient id="linear-gradient-3" x1="535.42" y1="-42.09" x2="576.02" y2="25.4" xlink:href="#linear-gradient"/><linearGradient id="linear-gradient-4" x1="630" y1="-44.78" x2="670.59" y2="22.7" xlink:href="#linear-gradient"/><linearGradient id="linear-gradient-5" x1="533.64" y1="4.42" x2="574.24" y2="71.9" xlink:href="#linear-gradient"/><linearGradient id="linear-gradient-6" x1="628.22" y1="1.72" x2="668.81" y2="69.2" xlink:href="#linear-gradient"/><linearGradient id="linear-gradient-7" x1="531.87" y1="50.92" x2="572.46" y2="118.4" xlink:href="#linear-gradient"/><linearGradient id="linear-gradient-8" x1="626.44" y1="48.22" x2="667.03" y2="115.71" xlink:href="#linear-gradient"/><linearGradient id="linear-gradient-9" x1="530.09" y1="97.42" x2="570.68" y2="164.9" xlink:href="#linear-gradient"/><linearGradient id="linear-gradient-10" x1="624.66" y1="94.73" x2="665.26" y2="162.21" xlink:href="#linear-gradient"/><linearGradient id="linear-gradient-11" x1="528.31" y1="143.92" x2="568.91" y2="211.4" xlink:href="#linear-gradient"/><linearGradient id="linear-gradient-12" x1="622.88" y1="141.23" x2="663.48" y2="208.71" xlink:href="#linear-gradient"/><linearGradient id="linear-gradient-13" x1="260.73" y1="378.45" x2="71.81" y2="298.8" gradientTransform="matrix(1, 0, 0, 1, 0, 0)" xlink:href="#linear-gradient"/><linearGradient id="linear-gradient-14" x1="81.81" y1="234.01" x2="198.28" y2="340.01" gradientTransform="translate(159.6 -38.1) rotate(27.92)" xlink:href="#linear-gradient"/><clipPath id="clip-path"><ellipse class="cls-1" cx="156.42" cy="301.92" rx="44.74" ry="34.56" transform="translate(-123.17 108.4) rotate(-27.92)"/></clipPath></defs><title>pharma</title><g class="cls-2"><g id="Layer_1" data-name="Layer 1"><path class="cls-3" d="M126.11,405.76c0,6.06-5.47,11-12.22,11s-12.22-4.9-12.22-11,5.47-11,12.22-11S126.11,399.71,126.11,405.76Z"/><path class="cls-3" d="M144.18,428.81c0,3.2-2.89,5.8-6.46,5.8s-6.47-2.6-6.47-5.8,2.89-5.81,6.47-5.81S144.18,425.6,144.18,428.81Z"/><path class="cls-3" d="M365.6,431,486.22,163c2.48-5.52-1.15-12.09-8.11-14.68L304.79,83.82c-7-2.59-14.62-.21-17.1,5.3l-120.62,268c-2.48,5.51,1.15,12.08,8.12,14.67L348.5,436.3C355.46,438.89,363.12,436.52,365.6,431Z"/><path class="cls-4" d="M353.21,137.14l-39.55-14.57c-7.19-2.65-15.34.41-18.2,6.83h0c-2.86,6.42.64,13.77,7.83,16.42l39.56,14.58c7.19,2.65,15.34-.41,18.2-6.83h0C363.91,147.15,360.4,139.79,353.21,137.14Z"/><path class="cls-4" d="M441.88,170.13l-39.55-14.57c-7.19-2.65-15.34.41-18.2,6.83h0c-2.86,6.42.64,13.77,7.83,16.42l39.56,14.58c7.19,2.65,15.34-.41,18.2-6.83h0C452.58,180.14,449.07,172.78,441.88,170.13Z"/><path class="cls-4" d="M334.41,178.92l-39.55-14.58c-7.19-2.65-15.34.41-18.2,6.83h0c-2.86,6.43.64,13.78,7.83,16.43l39.56,14.58c7.19,2.65,15.34-.41,18.2-6.83h0C345.11,188.92,341.6,181.57,334.41,178.92Z"/><path class="cls-4" d="M423.08,211.91l-39.56-14.58c-7.18-2.65-15.33.41-18.19,6.84h0c-2.87,6.42.64,13.77,7.83,16.42l39.56,14.58c7.19,2.65,15.33-.41,18.2-6.83h0C433.78,221.91,430.27,214.56,423.08,211.91Z"/><path class="cls-4" d="M315.61,220.7l-39.56-14.58c-7.18-2.65-15.33.41-18.19,6.83h0c-2.87,6.42.64,13.78,7.83,16.43L305.25,244c7.19,2.65,15.33-.41,18.2-6.83h0C326.31,230.7,322.8,223.35,315.61,220.7Z"/><path class="cls-4" d="M404.28,253.69l-39.56-14.58c-7.19-2.65-15.33.41-18.19,6.83h0c-2.87,6.42.64,13.78,7.83,16.43l39.56,14.57c7.19,2.65,15.33-.41,18.19-6.83h0C415,263.69,411.47,256.34,404.28,253.69Z"/><path class="cls-4" d="M296.22,263.79l-39.56-14.58c-7.19-2.65-15.34.41-18.2,6.83h0c-2.86,6.43.65,13.78,7.84,16.43l39.55,14.58c7.19,2.65,15.34-.41,18.2-6.84h0C306.91,273.79,303.41,266.44,296.22,263.79Z"/><path class="cls-4" d="M384.89,296.78,345.33,282.2c-7.19-2.65-15.34.41-18.2,6.83h0c-2.86,6.43.65,13.78,7.84,16.43L374.52,320c7.19,2.65,15.34-.41,18.2-6.83h0C395.58,306.78,392.08,299.43,384.89,296.78Z"/><path class="cls-4" d="M277,306.52,237.43,292c-7.19-2.65-15.34.41-18.2,6.83h0c-2.86,6.42.65,13.77,7.84,16.42l39.55,14.58c7.19,2.65,15.34-.41,18.2-6.83h0C287.68,316.53,284.17,309.17,277,306.52Z"/><path class="cls-4" d="M365.65,339.51,326.1,324.94c-7.19-2.65-15.34.41-18.2,6.83h0c-2.86,6.42.65,13.77,7.83,16.42l39.56,14.58c7.19,2.65,15.34-.41,18.2-6.83h0C376.35,349.52,372.84,342.16,365.65,339.51Z"/><path class="cls-4" d="M258.18,348.3l-39.55-14.58c-7.19-2.65-15.34.41-18.2,6.83h0c-2.86,6.43.65,13.78,7.83,16.43l39.56,14.58c7.19,2.65,15.34-.41,18.2-6.84h0C268.88,358.3,265.37,351,258.18,348.3Z"/><path class="cls-4" d="M346.85,381.29,307.3,366.71c-7.19-2.65-15.34.41-18.2,6.83h0c-2.86,6.43.64,13.78,7.83,16.43l39.56,14.58c7.19,2.65,15.34-.41,18.2-6.83h0C357.55,391.29,354,383.94,346.85,381.29Z"/><path class="cls-5" d="M356.28,130.32l-39.55-14.58c-7.19-2.65-15.34.41-18.2,6.83h0c-2.86,6.43.65,13.78,7.83,16.43l39.56,14.58c7.19,2.65,15.34-.41,18.2-6.84h0C367,140.32,363.47,133,356.28,130.32Z"/><path class="cls-6" d="M355.69,146.78l-51.14-18.85a14.05,14.05,0,0,1-6.32-4.58c-2.26,6.23,1.23,13.11,8.13,15.65l39.56,14.58c6.9,2.54,14.68-.19,17.82-6.09A15.6,15.6,0,0,1,355.69,146.78Z"/><path class="cls-5" d="M445,163.31,405.4,148.73c-7.19-2.65-15.34.41-18.2,6.83h0c-2.86,6.43.64,13.78,7.83,16.43l39.56,14.58c7.19,2.65,15.34-.41,18.2-6.83h0C455.65,173.31,452.14,166,445,163.31Z"/><path class="cls-7" d="M444.36,179.77l-51.14-18.85a14.05,14.05,0,0,1-6.32-4.58c-2.26,6.23,1.23,13.11,8.13,15.65l39.56,14.58c6.9,2.54,14.67-.19,17.82-6.09A15.49,15.49,0,0,1,444.36,179.77Z"/><path class="cls-5" d="M337.19,172.75l-39.56-14.57c-7.19-2.65-15.34.41-18.2,6.83h0c-2.86,6.42.65,13.77,7.84,16.42L326.82,196c7.19,2.65,15.34-.41,18.2-6.83h0C347.88,182.76,344.38,175.4,337.19,172.75Z"/><path class="cls-8" d="M336.6,189.21l-51.14-18.85a13.87,13.87,0,0,1-6.32-4.58c-2.27,6.23,1.23,13.11,8.13,15.65L326.82,196c6.91,2.54,14.68-.18,17.82-6.09A15.45,15.45,0,0,1,336.6,189.21Z"/><path class="cls-5" d="M425.86,205.75,386.3,191.17c-7.19-2.65-15.34.41-18.2,6.83h0c-2.86,6.42.65,13.78,7.84,16.42L415.49,229c7.19,2.65,15.34-.41,18.2-6.83h0C436.55,215.75,433,208.4,425.86,205.75Z"/><path class="cls-9" d="M425.27,222.2l-51.14-18.84a14,14,0,0,1-6.32-4.59c-2.27,6.23,1.22,13.11,8.13,15.65L415.49,229c6.9,2.55,14.68-.18,17.82-6.09A15.35,15.35,0,0,1,425.27,222.2Z"/><path class="cls-5" d="M318.09,215.19l-39.56-14.58c-7.19-2.65-15.33.41-18.2,6.83h0c-2.86,6.43.65,13.78,7.84,16.43l39.56,14.58c7.19,2.65,15.33-.41,18.19-6.84h0C328.79,225.19,325.28,217.84,318.09,215.19Z"/><path class="cls-10" d="M317.5,231.65,266.36,212.8a14,14,0,0,1-6.32-4.58c-2.26,6.23,1.23,13.11,8.13,15.65l39.56,14.58c6.9,2.54,14.67-.19,17.81-6.09A15.56,15.56,0,0,1,317.5,231.65Z"/><path class="cls-5" d="M406.76,248.18,367.2,233.6C360,231,351.87,234,349,240.43h0c-2.86,6.43.65,13.78,7.84,16.43l39.56,14.58c7.18,2.65,15.33-.41,18.19-6.83h0C417.45,258.18,414,250.83,406.76,248.18Z"/><path class="cls-11" d="M406.17,264.64,355,245.79a13.94,13.94,0,0,1-6.32-4.58c-2.27,6.23,1.23,13.11,8.13,15.65l39.56,14.58c6.9,2.54,14.67-.19,17.81-6.09A15.45,15.45,0,0,1,406.17,264.64Z"/><path class="cls-5" d="M299,257.62l-39.55-14.57c-7.19-2.65-15.34.41-18.2,6.83h0c-2.86,6.42.64,13.77,7.83,16.42l39.56,14.58c7.19,2.65,15.34-.41,18.2-6.83h0C309.69,267.63,306.18,260.27,299,257.62Z"/><path class="cls-12" d="M298.4,274.08l-51.14-18.85a14,14,0,0,1-6.32-4.58c-2.26,6.23,1.23,13.11,8.13,15.65l39.56,14.58c6.9,2.54,14.67-.18,17.82-6.09A15.49,15.49,0,0,1,298.4,274.08Z"/><path class="cls-5" d="M387.66,290.62,348.1,276c-7.18-2.65-15.33.41-18.19,6.83h0c-2.87,6.42.64,13.78,7.83,16.42l39.56,14.58c7.19,2.65,15.33-.41,18.2-6.83h0C398.36,300.62,394.85,293.26,387.66,290.62Z"/><path class="cls-13" d="M387.07,307.07l-51.14-18.84a14.07,14.07,0,0,1-6.32-4.59c-2.26,6.23,1.23,13.11,8.13,15.65l39.56,14.58c6.9,2.55,14.67-.18,17.81-6.09A15.35,15.35,0,0,1,387.07,307.07Z"/><path class="cls-5" d="M279.9,300.06l-39.56-14.58c-7.19-2.65-15.34.41-18.2,6.83h0c-2.86,6.43.65,13.78,7.83,16.43l39.56,14.58c7.19,2.65,15.34-.41,18.2-6.84h0C290.59,310.06,287.08,302.71,279.9,300.06Z"/><path class="cls-14" d="M279.3,316.52l-51.13-18.85a14,14,0,0,1-6.33-4.58c-2.26,6.23,1.23,13.1,8.13,15.65l39.56,14.58c6.9,2.54,14.68-.19,17.82-6.09A15.6,15.6,0,0,1,279.3,316.52Z"/><path class="cls-5" d="M368.56,333.05,329,318.47c-7.19-2.65-15.34.41-18.2,6.83h0c-2.86,6.43.64,13.78,7.83,16.43l39.56,14.58c7.19,2.65,15.34-.41,18.2-6.83h0C379.26,343.05,375.75,335.7,368.56,333.05Z"/><path class="cls-15" d="M368,349.51l-51.14-18.85a14.05,14.05,0,0,1-6.32-4.58c-2.26,6.23,1.23,13.11,8.13,15.65l39.56,14.58c6.9,2.54,14.67-.19,17.82-6.09A15.59,15.59,0,0,1,368,349.51Z"/><path class="cls-5" d="M260.8,342.49l-39.56-14.57c-7.19-2.65-15.34.41-18.2,6.83h0c-2.86,6.42.65,13.77,7.84,16.42l39.55,14.58c7.19,2.65,15.34-.41,18.2-6.83h0C271.49,352.5,268,345.14,260.8,342.49Z"/><path class="cls-16" d="M260.21,359,209.07,340.1a13.87,13.87,0,0,1-6.32-4.58c-2.27,6.23,1.23,13.11,8.13,15.65l39.55,14.58c6.91,2.54,14.68-.18,17.82-6.09A15.45,15.45,0,0,1,260.21,359Z"/><path class="cls-5" d="M349.47,375.49l-39.56-14.58c-7.19-2.65-15.34.41-18.2,6.83h0c-2.86,6.42.65,13.78,7.84,16.42l39.55,14.58c7.19,2.65,15.34-.41,18.2-6.83h0C360.16,385.49,356.65,378.13,349.47,375.49Z"/><path class="cls-17" d="M348.88,391.94,297.74,373.1a14,14,0,0,1-6.32-4.59c-2.27,6.23,1.22,13.11,8.13,15.65l39.55,14.58c6.9,2.55,14.68-.18,17.82-6.09A15.45,15.45,0,0,1,348.88,391.94Z"/><path class="cls-18" d="M250.7,357.48h0l-52.3-81.38-86,48.24,53.28,83.14a29.87,29.87,0,0,0,4.34,5.87c14.71,15.51,44,14.79,65.52-1.6C255.52,396.52,261.67,373.16,250.7,357.48Z"/><path class="cls-3" d="M218.5,381a63.23,63.23,0,0,0,12.32-12.37c-.25-.39-.47-.8-.74-1.19h0l-20.32-31.61a63.15,63.15,0,0,1-10.92,10.57c-23.29,17.78-55.09,18.58-71.09,1.81l25.11,39.17C169.9,399.22,197.61,397,218.5,381Z"/><path class="cls-19" d="M200.84,422.44a34.6,34.6,0,0,1-5-6.71l-61-95.15,67.68-38-4.19-6.51-86,48.24,53.28,83.14a29.87,29.87,0,0,0,4.34,5.87c7.87,8.3,19.94,11.91,32.74,11C202.13,423.73,201.47,423.1,200.84,422.44Z"/><ellipse class="cls-18" cx="156.42" cy="301.92" rx="49.37" ry="38.14" transform="translate(-123.18 108.41) rotate(-27.92)"/><ellipse class="cls-20" cx="156.42" cy="301.92" rx="44.74" ry="34.56" transform="translate(-123.17 108.4) rotate(-27.92)"/><g class="cls-21"><path class="cls-22" d="M211.6,320l-.09-7.59-2,0a19.56,19.56,0,0,0-17.36-9.5c-7.58.07-14.07,4.08-17.13,9.83l-2,0,.09,7.58c.11,9.53,8.81,17.17,19.43,17.07S211.71,329.52,211.6,320Z"/><ellipse class="cls-23" cx="192.28" cy="312.6" rx="19.22" ry="17.25"/><path class="cls-5" d="M173.52,308.89a15.18,15.18,0,0,0-.46,3.89,16.08,16.08,0,0,0,.55,3.88l37.44-.36a16.12,16.12,0,0,0,.46-3.89,15.52,15.52,0,0,0-.56-3.87Z"/><path class="cls-22" d="M180,285l-7.75-3-.79,1.63c-7.09.3-13.72,4.12-16.73,10.36a15.87,15.87,0,0,0,3,18.05l-.79,1.62,7.76,3c9.74,3.79,21.06-.23,25.28-9S189.79,288.74,180,285Z"/><path class="cls-23" d="M182.3,304.63c-4.22,8.74-15.53,12.77-25.28,9s-14.22-13.93-10-22.68,15.53-12.76,25.28-9S186.52,295.89,182.3,304.63Z"/><path class="cls-5" d="M153.25,311.65a19.75,19.75,0,0,0,3.77,2,20.24,20.24,0,0,0,4.18,1.13l14.86-30.83a19.75,19.75,0,0,0-3.77-2,20.85,20.85,0,0,0-4.18-1.12Z"/><path class="cls-22" d="M164.28,333.76l-1.95-7.37-1.92.41A20.5,20.5,0,0,0,141.14,321c-7.38,1.57-12.72,6.77-14.29,13l-1.93.41,2,7.38c2.45,9.27,12.81,15,23.14,12.79S166.74,343,164.28,333.76Z"/><ellipse class="cls-23" cx="143.63" cy="330.37" rx="19.22" ry="17.25"/><path class="cls-5" d="M124.42,330.48a15.77,15.77,0,0,0,.5,3.88,16.17,16.17,0,0,0,1.5,3.67l36.42-7.76a15.32,15.32,0,0,0-.51-3.88,16,16,0,0,0-1.49-3.67Z"/></g><path class="cls-22" d="M198.51,248.85l-1.95-7.38-1.92.41a20.5,20.5,0,0,0-19.27-5.83c-7.38,1.57-12.72,6.77-14.3,13l-1.92.41,1.95,7.38c2.46,9.27,12.82,15,23.15,12.8S201,258.12,198.51,248.85Z"/><path class="cls-23" d="M182.3,262.24c-10.33,2.2-20.7-3.53-23.15-12.8s3.93-18.56,14.26-20.77,20.7,3.53,23.15,12.8S192.63,260,182.3,262.24Z"/><path class="cls-5" d="M158.64,245.56a15.79,15.79,0,0,0,.51,3.88,16.69,16.69,0,0,0,1.49,3.68l36.43-7.76a15.8,15.8,0,0,0-.51-3.89,16.15,16.15,0,0,0-1.49-3.67Z"/><path class="cls-22" d="M152,189.2l-2-7.37-1.92.41a20.47,20.47,0,0,0-19.27-5.83c-7.38,1.57-12.72,6.76-14.29,13l-1.92.41,2,7.38c2.45,9.26,12.81,15,23.15,12.79S154.47,198.47,152,189.2Z"/><path class="cls-23" d="M135.8,202.6c-10.33,2.2-20.69-3.53-23.14-12.8s3.93-18.57,14.26-20.77,20.69,3.53,23.14,12.8S146.13,200.39,135.8,202.6Z"/><path class="cls-5" d="M112.15,185.92a15.32,15.32,0,0,0,.51,3.88,16.15,16.15,0,0,0,1.49,3.67l36.42-7.76a15.32,15.32,0,0,0-.51-3.88,15.78,15.78,0,0,0-1.49-3.68Z"/><path class="cls-22" d="M120.54,230.52l-8-7.46-2.17,2.19c-19.55-6.57-44.77,1.94-60.11,21.52-12.17,15.55-14.89,34-8.73,48.07l-2.21,2.24,11.8,10.55h0a36.45,36.45,0,0,0,3.77,2.75c20.13,12.69,50.7,4.78,68.27-17.66C140.17,271.05,139.17,247.84,120.54,230.52Z"/><path class="cls-23" d="M73,316.26a39.87,39.87,0,0,1-4.66-.64L39.12,286.9l-5.95-5.85,2.17-1.79,3.18,3.12Z"/><path class="cls-23" d="M84.77,315.82c-1.17.18-2.37.34-3.55.44L45.46,281.05l2.17-1.79Z"/><path class="cls-23" d="M94.58,313.35c-1,.36-2,.68-3,1L57.75,281.05l2.18-1.79Z"/><path class="cls-23" d="M103.07,309.63c-.88.46-1.77.92-2.66,1.33L70,281.05l2.2-1.79Z"/><path class="cls-23" d="M110.57,304.93c-.77.56-1.55,1.1-2.35,1.62l-25.91-25.5,2.2-1.79Z"/><path class="cls-23" d="M117.21,299.36c-.67.66-1.36,1.27-2.07,1.89L94.6,281.05l2.2-1.79Z"/><path class="cls-23" d="M123.13,292.81c-.58.74-1.18,1.47-1.8,2.17L96.15,270.2l2.18-1.79Z"/><path class="cls-23" d="M128.23,285.39c-.46.81-1,1.63-1.51,2.42L96.15,257.72l2.18-1.79Z"/><path class="cls-23" d="M132.34,276.93c-.36.93-.74,1.87-1.18,2.78l-35-34.45,2.18-1.79Z"/><path class="cls-23" d="M134.91,267c-.16,1.12-.35,2.23-.6,3.35L96.15,232.78,98.33,231Z"/><path class="cls-23" d="M135.13,258.65,99,223.14l-2.89-2.84,2.18-1.79,5.14,5.07,31,30.52A31.94,31.94,0,0,1,135.13,258.65Z"/><ellipse class="cls-23" cx="75.93" cy="260.03" rx="52.18" ry="42.4" transform="translate(-149.29 109.5) rotate(-39.96)"/><path class="cls-5" d="M84.86,218.47h0a36.47,36.47,0,0,1,19.53,5.36,31.13,31.13,0,0,1,14.11,21.33c2,11.58-1.68,24.4-10.13,35.19C98.11,293.45,82.26,301.59,67,301.59a36.5,36.5,0,0,1-19.53-5.36,31.15,31.15,0,0,1-14.11-21.34c-2-11.57,1.68-24.4,10.13-35.19,10.26-13.1,26.11-21.23,41.38-21.23m0-1c-15.07,0-31.33,7.77-42.16,21.62-16,20.45-14.13,46.42,4.22,58A37.39,37.39,0,0,0,67,302.59c15.07,0,31.33-7.78,42.17-21.62,16-20.46,14.12-46.42-4.23-58a37.38,37.38,0,0,0-20.07-5.51Z"/><text class="cls-24" transform="matrix(0.99, 0.1, -0.1, 0.99, 165.19, 181.92)">?</text><text class="cls-25" transform="matrix(0.86, -0.51, 0.51, 0.86, 54.02, 434.44)">?</text><path class="cls-3" d="M87.4,119.62c-8.8-.37-15.59-8.62-15.18-18.43s7.89-17.45,16.69-17.08,15.59,8.63,15.18,18.43S96.2,120,87.4,119.62Z"/><path class="cls-3" d="M66.48,145.39c-4.55-.19-8.06-4.46-7.85-9.53s4.08-9,8.63-8.82,8.06,4.45,7.84,9.52S71,145.59,66.48,145.39Z"/></g></g></svg>