<svg xmlns="http://www.w3.org/2000/svg" xmlns:xlink="http://www.w3.org/1999/xlink" viewBox="0 0 1558.63 1558.63"><defs><style>.cls-1{isolation:isolate;}.cls-2{fill:#f4f7fa;}.cls-3{fill:url(#linear-gradient);}.cls-11,.cls-122,.cls-15,.cls-19,.cls-4,.cls-80,.cls-9{fill:#fff;}.cls-4{opacity:0.16;mix-blend-mode:screen;}.cls-5{fill:url(#linear-gradient-2);}.cls-6{fill:#97a6b7;}.cls-10,.cls-7{fill:#d8dee8;}.cls-12,.cls-8{fill:#bfc8d6;}.cls-10,.cls-102,.cls-114,.cls-121,.cls-122,.cls-18,.cls-22,.cls-25,.cls-28,.cls-31,.cls-34,.cls-37,.cls-40,.cls-43,.cls-46,.cls-49,.cls-52,.cls-55,.cls-58,.cls-61,.cls-64,.cls-67,.cls-70,.cls-73,.cls-76,.cls-78,.cls-93{opacity:0.3;}.cls-10,.cls-102,.cls-114,.cls-12,.cls-18,.cls-22,.cls-25,.cls-28,.cls-31,.cls-34,.cls-37,.cls-40,.cls-43,.cls-46,.cls-49,.cls-52,.cls-55,.cls-58,.cls-61,.cls-64,.cls-67,.cls-70,.cls-73,.cls-76,.cls-78,.cls-93,.cls-94,.cls-95{mix-blend-mode:multiply;}.cls-11{opacity:0.6;}.cls-11,.cls-121,.cls-122,.cls-19{mix-blend-mode:soft-light;}.cls-12{opacity:0.5;}.cls-13{fill:url(#linear-gradient-3);}.cls-14{fill:url(#linear-gradient-4);}.cls-15,.cls-19{opacity:0.74;}.cls-16{fill:url(#linear-gradient-5);}.cls-17{fill:url(#linear-gradient-6);}.cls-18{fill:url(#linear-gradient-7);}.cls-20{fill:url(#linear-gradient-8);}.cls-21{fill:url(#linear-gradient-9);}.cls-22{fill:url(#linear-gradient-10);}.cls-23{fill:url(#linear-gradient-11);}.cls-24{fill:url(#linear-gradient-12);}.cls-25{fill:url(#linear-gradient-13);}.cls-26{fill:url(#linear-gradient-14);}.cls-27{fill:url(#linear-gradient-15);}.cls-28{fill:url(#linear-gradient-16);}.cls-29{fill:url(#linear-gradient-17);}.cls-30{fill:url(#linear-gradient-18);}.cls-31{fill:url(#linear-gradient-19);}.cls-32{fill:url(#linear-gradient-20);}.cls-33{fill:url(#linear-gradient-21);}.cls-34{fill:url(#linear-gradient-22);}.cls-35{fill:url(#linear-gradient-23);}.cls-36{fill:url(#linear-gradient-24);}.cls-37{fill:url(#linear-gradient-25);}.cls-38{fill:url(#linear-gradient-26);}.cls-39{fill:url(#linear-gradient-27);}.cls-40{fill:url(#linear-gradient-28);}.cls-41{fill:url(#linear-gradient-29);}.cls-42{fill:url(#linear-gradient-30);}.cls-43{fill:url(#linear-gradient-31);}.cls-44{fill:url(#linear-gradient-32);}.cls-45{fill:url(#linear-gradient-33);}.cls-46{fill:url(#linear-gradient-34);}.cls-47{fill:url(#linear-gradient-35);}.cls-48{fill:url(#linear-gradient-36);}.cls-49{fill:url(#linear-gradient-37);}.cls-50{fill:url(#linear-gradient-38);}.cls-51{fill:url(#linear-gradient-39);}.cls-52{fill:url(#linear-gradient-40);}.cls-53{fill:url(#linear-gradient-41);}.cls-54{fill:url(#linear-gradient-42);}.cls-55{fill:url(#linear-gradient-43);}.cls-56{fill:url(#linear-gradient-44);}.cls-57{fill:url(#linear-gradient-45);}.cls-58{fill:url(#linear-gradient-46);}.cls-59{fill:url(#linear-gradient-47);}.cls-60{fill:url(#linear-gradient-48);}.cls-61{fill:url(#linear-gradient-49);}.cls-62{fill:url(#linear-gradient-50);}.cls-63{fill:url(#linear-gradient-51);}.cls-64{fill:url(#linear-gradient-52);}.cls-65{fill:url(#linear-gradient-53);}.cls-66{fill:url(#linear-gradient-54);}.cls-67{fill:url(#linear-gradient-55);}.cls-68{fill:url(#linear-gradient-56);}.cls-69{fill:url(#linear-gradient-57);}.cls-70{fill:url(#linear-gradient-58);}.cls-71{fill:url(#linear-gradient-59);}.cls-72{fill:url(#linear-gradient-60);}.cls-73{fill:url(#linear-gradient-61);}.cls-74{fill:url(#linear-gradient-62);}.cls-75{fill:url(#linear-gradient-63);}.cls-76{fill:url(#linear-gradient-64);}.cls-77{fill:url(#linear-gradient-65);}.cls-79{fill:url(#linear-gradient-66);}.cls-80{opacity:0.58;}.cls-81{fill:url(#linear-gradient-67);}.cls-82{fill:url(#linear-gradient-68);}.cls-83{fill:url(#linear-gradient-69);}.cls-84{fill:url(#linear-gradient-70);}.cls-85{fill:url(#linear-gradient-71);}.cls-86{fill:url(#linear-gradient-72);}.cls-87{fill:url(#linear-gradient-73);}.cls-88{fill:url(#linear-gradient-74);}.cls-89{fill:url(#linear-gradient-75);}.cls-90{fill:url(#linear-gradient-76);}.cls-91{fill:url(#linear-gradient-77);}.cls-92{fill:url(#linear-gradient-78);}.cls-93{fill:url(#linear-gradient-79);}.cls-94,.cls-95{opacity:0.15;}.cls-94{fill:url(#linear-gradient-80);}.cls-96{fill:url(#linear-gradient-81);}.cls-97{fill:url(#linear-gradient-82);}.cls-98{fill:url(#linear-gradient-83);}.cls-99{fill:url(#linear-gradient-84);}.cls-100{fill:url(#linear-gradient-85);}.cls-101{fill:url(#linear-gradient-86);}.cls-102{fill:url(#linear-gradient-87);}.cls-103{fill:url(#linear-gradient-88);}.cls-104{fill:url(#linear-gradient-89);}.cls-105{fill:url(#linear-gradient-90);}.cls-106{fill:url(#linear-gradient-91);}.cls-107{fill:url(#linear-gradient-92);}.cls-108{fill:url(#linear-gradient-93);}.cls-109{fill:url(#linear-gradient-94);}.cls-110{fill:url(#linear-gradient-95);}.cls-111{fill:url(#linear-gradient-96);}.cls-112{fill:url(#linear-gradient-97);}.cls-113{fill:url(#linear-gradient-98);}.cls-114{fill:url(#linear-gradient-99);}.cls-115{fill:url(#linear-gradient-100);}.cls-116{fill:url(#linear-gradient-101);}.cls-117{fill:url(#linear-gradient-102);}.cls-118{fill:url(#linear-gradient-103);}.cls-119{fill:url(#linear-gradient-104);}.cls-120{fill:url(#linear-gradient-105);}</style><linearGradient id="linear-gradient" x1="-1526.81" y1="550.47" x2="-1032.84" y2="550.47" gradientTransform="translate(1772.37 505.23) rotate(18.7)" gradientUnits="userSpaceOnUse"><stop offset="0" stop-color="#e38ddd"/><stop offset="1" stop-color="#9571f6"/></linearGradient><linearGradient id="linear-gradient-2" x1="-1706.26" y1="503.16" x2="-1658.05" y2="114.81" gradientTransform="translate(2195.65)" gradientUnits="userSpaceOnUse"><stop offset="0" stop-color="#fb6fbb"/><stop offset="1" stop-color="#ff9085"/></linearGradient><linearGradient id="linear-gradient-3" x1="986.59" y1="403.36" x2="506.21" y2="1396.81" gradientUnits="userSpaceOnUse"><stop offset="0" stop-color="#fff"/><stop offset="1" stop-color="#ebeff2"/></linearGradient><linearGradient id="linear-gradient-4" x1="571.27" y1="459.09" x2="755.55" y2="459.09" gradientUnits="userSpaceOnUse"><stop offset="0" stop-color="#ff9085"/><stop offset="1" stop-color="#fb6fbb"/></linearGradient><linearGradient id="linear-gradient-5" x1="2124.22" y1="-2414.96" x2="2087.17" y2="-2301.31" gradientTransform="matrix(0.95, 0.5, -0.35, 0.86, -2074.91, 2135.21)" gradientUnits="userSpaceOnUse"><stop offset="0" stop-color="#f36f56"/><stop offset="1" stop-color="#ffc444"/></linearGradient><linearGradient id="linear-gradient-6" x1="2123.22" y1="-2411.83" x2="2090.21" y2="-2310.59" gradientTransform="matrix(0.95, 0.5, -0.35, 0.86, -2074.91, 2135.21)" gradientUnits="userSpaceOnUse"><stop offset="0" stop-color="#ffc444"/><stop offset="1" stop-color="#f36f56"/></linearGradient><linearGradient id="linear-gradient-7" x1="2126.6" y1="-2416.22" x2="2098.25" y2="-2343.27" xlink:href="#linear-gradient-6"/><linearGradient id="linear-gradient-8" x1="2185.2" y1="-2450.78" x2="2149.35" y2="-2340.81" xlink:href="#linear-gradient-5"/><linearGradient id="linear-gradient-9" x1="2184.22" y1="-2447.75" x2="2152.29" y2="-2349.79" xlink:href="#linear-gradient-6"/><linearGradient id="linear-gradient-10" x1="2187.51" y1="-2452.05" x2="2160.03" y2="-2381.33" xlink:href="#linear-gradient-6"/><linearGradient id="linear-gradient-11" x1="2243.64" y1="-2485.12" x2="2208.93" y2="-2378.63" xlink:href="#linear-gradient-5"/><linearGradient id="linear-gradient-12" x1="2242.7" y1="-2482.19" x2="2211.77" y2="-2387.33" xlink:href="#linear-gradient-6"/><linearGradient id="linear-gradient-13" x1="2245.9" y1="-2486.41" x2="2219.24" y2="-2417.79" xlink:href="#linear-gradient-6"/><linearGradient id="linear-gradient-14" x1="2299.71" y1="-2518.08" x2="2266.07" y2="-2414.87" xlink:href="#linear-gradient-5"/><linearGradient id="linear-gradient-15" x1="2298.8" y1="-2515.24" x2="2268.83" y2="-2423.29" xlink:href="#linear-gradient-6"/><linearGradient id="linear-gradient-16" x1="2301.92" y1="-2519.38" x2="2276.03" y2="-2452.75" xlink:href="#linear-gradient-6"/><linearGradient id="linear-gradient-17" x1="2353.55" y1="-2549.74" x2="2320.91" y2="-2449.62" xlink:href="#linear-gradient-5"/><linearGradient id="linear-gradient-18" x1="2352.67" y1="-2546.98" x2="2323.59" y2="-2457.79" xlink:href="#linear-gradient-6"/><linearGradient id="linear-gradient-19" x1="2355.71" y1="-2551.04" x2="2330.55" y2="-2486.3" xlink:href="#linear-gradient-6"/><linearGradient id="linear-gradient-20" x1="2155.6" y1="-2361.33" x2="2118.22" y2="-2246.66" xlink:href="#linear-gradient-5"/><linearGradient id="linear-gradient-21" x1="2154.59" y1="-2358.18" x2="2121.29" y2="-2256.02" xlink:href="#linear-gradient-6"/><linearGradient id="linear-gradient-22" x1="2157.97" y1="-2362.53" x2="2129.44" y2="-2289.11" xlink:href="#linear-gradient-6"/><linearGradient id="linear-gradient-23" x1="2215.91" y1="-2398.28" x2="2179.74" y2="-2287.35" xlink:href="#linear-gradient-5"/><linearGradient id="linear-gradient-24" x1="2214.93" y1="-2395.22" x2="2182.71" y2="-2296.41" xlink:href="#linear-gradient-6"/><linearGradient id="linear-gradient-25" x1="2218.22" y1="-2399.5" x2="2190.56" y2="-2328.32" xlink:href="#linear-gradient-6"/><linearGradient id="linear-gradient-26" x1="2273.71" y1="-2433.7" x2="2238.7" y2="-2326.3" xlink:href="#linear-gradient-5"/><linearGradient id="linear-gradient-27" x1="2272.76" y1="-2430.74" x2="2241.57" y2="-2335.07" xlink:href="#linear-gradient-6"/><linearGradient id="linear-gradient-28" x1="2275.97" y1="-2434.94" x2="2249.13" y2="-2365.88" xlink:href="#linear-gradient-6"/><linearGradient id="linear-gradient-29" x1="2329.17" y1="-2467.7" x2="2295.24" y2="-2363.62" xlink:href="#linear-gradient-5"/><linearGradient id="linear-gradient-30" x1="2328.25" y1="-2464.83" x2="2298.02" y2="-2372.12" xlink:href="#linear-gradient-6"/><linearGradient id="linear-gradient-31" x1="2331.37" y1="-2468.95" x2="2305.32" y2="-2401.9" xlink:href="#linear-gradient-6"/><linearGradient id="linear-gradient-32" x1="2382.42" y1="-2500.36" x2="2349.51" y2="-2399.41" xlink:href="#linear-gradient-5"/><linearGradient id="linear-gradient-33" x1="2381.53" y1="-2497.58" x2="2352.21" y2="-2407.65" xlink:href="#linear-gradient-6"/><linearGradient id="linear-gradient-34" x1="2384.57" y1="-2501.62" x2="2359.26" y2="-2436.47" xlink:href="#linear-gradient-6"/><linearGradient id="linear-gradient-35" x1="2186.98" y1="-2307.71" x2="2149.26" y2="-2192.01" xlink:href="#linear-gradient-5"/><linearGradient id="linear-gradient-36" x1="2185.96" y1="-2304.52" x2="2152.36" y2="-2201.45" xlink:href="#linear-gradient-6"/><linearGradient id="linear-gradient-37" x1="2189.34" y1="-2308.84" x2="2160.62" y2="-2234.94" xlink:href="#linear-gradient-6"/><linearGradient id="linear-gradient-38" x1="2246.62" y1="-2345.78" x2="2210.14" y2="-2233.88" xlink:href="#linear-gradient-5"/><linearGradient id="linear-gradient-39" x1="2245.63" y1="-2342.7" x2="2213.13" y2="-2243.01" xlink:href="#linear-gradient-6"/><linearGradient id="linear-gradient-40" x1="2248.92" y1="-2346.94" x2="2221.08" y2="-2275.31" xlink:href="#linear-gradient-6"/><linearGradient id="linear-gradient-41" x1="2303.78" y1="-2382.29" x2="2268.47" y2="-2273.96" xlink:href="#linear-gradient-5"/><linearGradient id="linear-gradient-42" x1="2302.82" y1="-2379.3" x2="2271.37" y2="-2282.8" xlink:href="#linear-gradient-6"/><linearGradient id="linear-gradient-43" x1="2306.03" y1="-2383.47" x2="2279.03" y2="-2313.98" xlink:href="#linear-gradient-6"/><linearGradient id="linear-gradient-44" x1="2358.63" y1="-2417.32" x2="2324.41" y2="-2312.36" xlink:href="#linear-gradient-5"/><linearGradient id="linear-gradient-45" x1="2357.7" y1="-2414.43" x2="2327.22" y2="-2320.93" xlink:href="#linear-gradient-6"/><linearGradient id="linear-gradient-46" x1="2360.83" y1="-2418.53" x2="2334.61" y2="-2351.06" xlink:href="#linear-gradient-6"/><linearGradient id="linear-gradient-47" x1="2411.29" y1="-2450.98" x2="2378.11" y2="-2349.19" xlink:href="#linear-gradient-5"/><linearGradient id="linear-gradient-48" x1="2410.39" y1="-2448.18" x2="2380.83" y2="-2357.5" xlink:href="#linear-gradient-6"/><linearGradient id="linear-gradient-49" x1="2413.44" y1="-2452.19" x2="2387.97" y2="-2386.65" xlink:href="#linear-gradient-6"/><linearGradient id="linear-gradient-50" x1="2218.36" y1="-2254.08" x2="2180.31" y2="-2137.35" xlink:href="#linear-gradient-5"/><linearGradient id="linear-gradient-51" x1="2217.33" y1="-2250.87" x2="2183.43" y2="-2146.88" xlink:href="#linear-gradient-6"/><linearGradient id="linear-gradient-52" x1="2220.71" y1="-2255.15" x2="2191.81" y2="-2180.77" xlink:href="#linear-gradient-6"/><linearGradient id="linear-gradient-53" x1="2277.33" y1="-2293.28" x2="2240.53" y2="-2180.4" xlink:href="#linear-gradient-5"/><linearGradient id="linear-gradient-54" x1="2276.33" y1="-2290.17" x2="2243.55" y2="-2189.62" xlink:href="#linear-gradient-6"/><linearGradient id="linear-gradient-55" x1="2279.62" y1="-2294.39" x2="2251.61" y2="-2222.29" xlink:href="#linear-gradient-6"/><linearGradient id="linear-gradient-56" x1="2333.86" y1="-2330.87" x2="2298.24" y2="-2221.61" xlink:href="#linear-gradient-5"/><linearGradient id="linear-gradient-57" x1="2332.89" y1="-2327.86" x2="2301.16" y2="-2230.53" xlink:href="#linear-gradient-6"/><linearGradient id="linear-gradient-58" x1="2336.1" y1="-2332" x2="2308.92" y2="-2262.07" xlink:href="#linear-gradient-6"/><linearGradient id="linear-gradient-59" x1="2388.09" y1="-2366.95" x2="2353.58" y2="-2261.1" xlink:href="#linear-gradient-5"/><linearGradient id="linear-gradient-60" x1="2387.15" y1="-2364.03" x2="2356.41" y2="-2269.74" xlink:href="#linear-gradient-6"/><linearGradient id="linear-gradient-61" x1="2390.28" y1="-2368.1" x2="2363.9" y2="-2300.21" xlink:href="#linear-gradient-6"/><linearGradient id="linear-gradient-62" x1="2440.16" y1="-2401.6" x2="2406.7" y2="-2298.98" xlink:href="#linear-gradient-5"/><linearGradient id="linear-gradient-63" x1="2439.25" y1="-2398.78" x2="2409.45" y2="-2307.35" xlink:href="#linear-gradient-6"/><linearGradient id="linear-gradient-64" x1="2442.3" y1="-2402.77" x2="2416.68" y2="-2336.82" xlink:href="#linear-gradient-6"/><linearGradient id="linear-gradient-65" x1="560.94" y1="1226.79" x2="724.51" y2="1226.79" gradientUnits="userSpaceOnUse"><stop offset="0" stop-color="#aa80f9"/><stop offset="1" stop-color="#6165d7"/></linearGradient><linearGradient id="linear-gradient-66" x1="560.94" y1="1226.79" x2="724.51" y2="1226.79" xlink:href="#linear-gradient-65"/><linearGradient id="linear-gradient-67" x1="715.71" y1="970.23" x2="616.61" y2="1048.92" gradientUnits="userSpaceOnUse"><stop offset="0.49" stop-color="#ebeff2"/><stop offset="1" stop-color="#fff"/></linearGradient><linearGradient id="linear-gradient-68" x1="961.64" y1="1368.03" x2="989.37" y2="1547.78" gradientUnits="userSpaceOnUse"><stop offset="0" stop-color="#d8dee8"/><stop offset="1" stop-color="#97a6b7"/></linearGradient><linearGradient id="linear-gradient-69" x1="947.3" y1="1365.35" x2="1100.58" y2="1297.18" xlink:href="#linear-gradient-68"/><linearGradient id="linear-gradient-70" x1="1008.22" y1="1366.39" x2="1130.57" y2="1366.39" xlink:href="#linear-gradient-68"/><linearGradient id="linear-gradient-71" x1="1210.28" y1="1369.83" x2="1218.33" y2="1514.88" gradientUnits="userSpaceOnUse"><stop offset="0" stop-color="#444b8c"/><stop offset="1" stop-color="#26264f"/></linearGradient><linearGradient id="linear-gradient-72" x1="1225.49" y1="1441.31" x2="1221.21" y2="1245.47" gradientTransform="matrix(1, 0, 0, 1, 0, 0)" xlink:href="#linear-gradient-6"/><linearGradient id="linear-gradient-73" x1="1356.12" y1="1361.73" x2="1364.18" y2="1506.77" xlink:href="#linear-gradient-71"/><linearGradient id="linear-gradient-74" x1="1353.9" y1="1438.5" x2="1349.62" y2="1242.67" gradientTransform="matrix(1, 0, 0, 1, 0, 0)" xlink:href="#linear-gradient-6"/><linearGradient id="linear-gradient-75" x1="1163.32" y1="1314.03" x2="1244.65" y2="1204.87" xlink:href="#linear-gradient-71"/><linearGradient id="linear-gradient-76" x1="393.77" y1="1238.82" x2="423.3" y2="1419.41" gradientTransform="translate(394.75 -210.51) rotate(-11.19)" xlink:href="#linear-gradient-6"/><linearGradient id="linear-gradient-77" x1="1223.73" y1="1327.57" x2="1414.22" y2="1149.93" xlink:href="#linear-gradient-71"/><linearGradient id="linear-gradient-78" x1="1356.81" y1="1009.54" x2="1300.41" y2="929.63" xlink:href="#linear-gradient-71"/><linearGradient id="linear-gradient-79" x1="1173.69" y1="1321.76" x2="1255.02" y2="1212.6" xlink:href="#linear-gradient-71"/><linearGradient id="linear-gradient-80" x1="1035.45" y1="943.46" x2="1188.23" y2="943.46" xlink:href="#linear-gradient-65"/><linearGradient id="linear-gradient-81" x1="1295.94" y1="840.27" x2="1342.5" y2="1124.99" xlink:href="#linear-gradient-65"/><linearGradient id="linear-gradient-82" x1="1217.78" y1="863.6" x2="1295.73" y2="1340.3" xlink:href="#linear-gradient-65"/><linearGradient id="linear-gradient-83" x1="1218.56" y1="850.47" x2="1268.32" y2="778.24" gradientTransform="matrix(1, 0, 0, 1, 0, 0)" xlink:href="#linear-gradient-6"/><linearGradient id="linear-gradient-84" x1="1214.05" y1="813.83" x2="1292.7" y2="766.48" gradientTransform="matrix(1, 0, 0, 1, 0, 0)" xlink:href="#linear-gradient-6"/><linearGradient id="linear-gradient-85" x1="1177.12" y1="1108.41" x2="1186.71" y2="1024.23" xlink:href="#linear-gradient-4"/><linearGradient id="linear-gradient-86" x1="1235.57" y1="924.25" x2="1269.48" y2="1131.64" gradientTransform="matrix(1, 0, 0, 1, 0, 0)" xlink:href="#linear-gradient-6"/><linearGradient id="linear-gradient-87" x1="1158.94" y1="1106.33" x2="1168.52" y2="1022.16" xlink:href="#linear-gradient-4"/><linearGradient id="linear-gradient-88" x1="543.59" y1="841.74" x2="448.4" y2="945.88" gradientTransform="matrix(1, 0, 0, 1, 0, 0)" xlink:href="#linear-gradient-6"/><linearGradient id="linear-gradient-89" x1="-169.72" y1="1372.7" x2="-186.97" y2="1641.99" gradientTransform="translate(417.18 -150.55) rotate(-4.34)" gradientUnits="userSpaceOnUse"><stop offset="0" stop-color="#893976"/><stop offset="1" stop-color="#311944"/></linearGradient><linearGradient id="linear-gradient-90" x1="428.16" y1="1238.81" x2="410.91" y2="1508.09" gradientTransform="matrix(1, 0, 0, 1, 0, 0)" xlink:href="#linear-gradient-89"/><linearGradient id="linear-gradient-91" x1="530.99" y1="744.11" x2="519.78" y2="703.17" gradientTransform="translate(-346.59 226.83) rotate(-16.87)" xlink:href="#linear-gradient-71"/><linearGradient id="linear-gradient-92" x1="571.77" y1="711.53" x2="549.79" y2="764.96" gradientTransform="translate(-346.59 226.83) rotate(-16.87)" xlink:href="#linear-gradient-71"/><linearGradient id="linear-gradient-93" x1="-2162.08" y1="-175.1" x2="-2235.38" y2="118.09" gradientTransform="matrix(-0.99, 0.18, 0.17, 1.38, -1528.6, 2492.34)" xlink:href="#linear-gradient-65"/><linearGradient id="linear-gradient-94" x1="607.38" y1="878.3" x2="361.11" y2="1108.29" gradientTransform="matrix(1, 0, 0, 1, 0, 0)" xlink:href="#linear-gradient-6"/><linearGradient id="linear-gradient-95" x1="1127.08" y1="2073.12" x2="1132.18" y2="1937.26" gradientTransform="matrix(1, 0.09, -0.07, 0.82, -572.19, -896.76)" xlink:href="#linear-gradient-89"/><linearGradient id="linear-gradient-96" x1="928.77" y1="737.1" x2="927.51" y2="838.71" gradientTransform="matrix(0.96, -0.29, 0.31, 1, -696.8, 351.58)" xlink:href="#linear-gradient-89"/><linearGradient id="linear-gradient-97" x1="368.17" y1="1400.99" x2="399.35" y2="1400.99" xlink:href="#linear-gradient-71"/><linearGradient id="linear-gradient-98" x1="337.06" y1="1412.96" x2="381.24" y2="1412.96" xlink:href="#linear-gradient-71"/><linearGradient id="linear-gradient-99" x1="-2113.64" y1="-162.99" x2="-2186.94" y2="130.2" gradientTransform="matrix(-0.99, 0.18, 0.17, 1.38, -1528.6, 2492.34)" xlink:href="#linear-gradient-6"/><linearGradient id="linear-gradient-100" x1="417.22" y1="962.22" x2="373.66" y2="1079.08" gradientTransform="matrix(1, 0, 0, 1, 0, 0)" xlink:href="#linear-gradient-89"/><linearGradient id="linear-gradient-101" x1="370.95" y1="993.18" x2="301.96" y2="905.02" gradientTransform="matrix(1, 0, 0, 1, 0, 0)" xlink:href="#linear-gradient-6"/><linearGradient id="linear-gradient-102" x1="-8161.54" y1="-2966.9" x2="-8205.1" y2="-2850.05" gradientTransform="matrix(-0.67, -0.74, -0.74, 0.67, -7166.9, -3191.94)" xlink:href="#linear-gradient-89"/><linearGradient id="linear-gradient-103" x1="598.36" y1="868.64" x2="352.08" y2="1098.63" gradientTransform="matrix(1, 0, 0, 1, 0, 0)" xlink:href="#linear-gradient-6"/><linearGradient id="linear-gradient-104" x1="1196.53" y1="570.56" x2="982.09" y2="780.21" xlink:href="#linear-gradient-71"/><linearGradient id="linear-gradient-105" x1="1176.86" y1="441.58" x2="1428.75" y2="799.61" gradientTransform="matrix(1, 0, 0, 1, 0, 0)" xlink:href="#linear-gradient"/></defs><title>pharma</title><g class="cls-1"><g id="Layer_1" data-name="Layer 1"><path class="cls-2" d="M1447.93,692.51c-36.28-237.46-185-529.2-478.88-559.73,0,0-223.11-27.13-443,14-130.53,24.41-245,97.07-317.41,201.51S112,580.08,141.33,701.49c19.07,78.85,32,160.47,28.42,241.5-4.46,102.19-12.86,209.64,32.32,304.93,66.19,139.63,227.7,180.76,368.62,193.88,51.93,4.83,104,6.78,156,10.89,99.71,7.88,211.53-4.88,307.63-30.84C1524.11,1289.55,1484.21,930,1447.93,692.51Z"/><path class="cls-3" d="M431.5,984.26C456,984.09,494.1,986,520.36,961c15.27-14.56,19.54-31.3,35.44-101.52,13.75-60.68,20.63-91,20.6-92.71-.67-38.2-20.79-64.35-128-187.43-72.89-83.64-101.61-99.3-98.94-136.37,3.8-52.85,66-74.5,61.19-136.82C410,298.65,408.05,273,389.56,258c-31.66-25.57-89.47-1.71-119.55,19.63-29,20.58-66.27,63-61,107.72,3.79,32.44,26.65,38.57,23.6,66.45-3.08,28.06-27.16,30.32-50.14,71.17-9.18,16.31-27.61,49.07-21.11,83.9,8.4,45,50.86,52.77,48.69,87.5-1.57,25.1-24.25,29.26-31.9,56.59-10.06,36,17,72.57,39.9,102.73C245,889.23,317.77,985.05,431.5,984.26Z"/><path class="cls-4" d="M371.23,269.12c15,19.91-61,61.55-71.31,146.14-11.1,91,60.54,176.24,93.65,215.62,56.49,67.19,89.75,67.86,119.13,132.28,11.63,25.49,35.85,78.61,13,133.7-2.12,5.12-26.62,61.84-80.8,74.63C383.46,986,330.54,933,284.94,887.3c-27.56-27.61-82.6-82.75-65.74-117.85,10.31-21.46,45.12-30.48,70.5-28,36.22,3.48,58.18,30.78,63.15,25.92,4.48-4.37-9-30.73-31.66-54.42-45.27-47.38-80.76-35.65-112.56-76.33-3.86-4.94-33.83-44.45-21.15-85.47,7.31-23.65,29-48.42,49.58-47,23.27,1.66,35.06,36.16,41.57,33.2,6.23-2.84-.78-36.11-12.5-68-17.23-46.83-30.3-51.61-33.46-78.7-4.83-41.34,20.4-74.54,24.09-79.26C291.38,267.18,358.44,252.1,371.23,269.12Z"/><path class="cls-5" d="M462.76,776.8c18.67,6.29,47.2,17.75,73.75,5.59,15.45-7.08,23.09-18.7,53.62-68,26.38-42.59,39.58-63.88,40-65.17,9.51-29.26,1.06-54.44-48.3-176.27-33.54-82.79-51.29-102.24-39.54-129.76,16.76-39.24,69.79-39.4,82.48-88.1,1.52-5.84,6.75-25.91-3.41-42.14C604,185.2,553.7,188.2,525.2,196.56c-27.48,8.05-67,30.54-74.72,66-5.63,25.68,10.17,36.34.52,56.77s-28.62,15.95-56.83,41c-11.27,10-33.89,30.11-38.08,58.33-5.43,36.48,24.87,53.51,14.11,79.38-7.78,18.69-26.14,15.91-39.13,34.7-17.1,24.74-6.11,59.7,3.42,88.67C345.71,655.54,376,747.57,462.76,776.8Z"/><path class="cls-4" d="M604.5,216.61c6.17,19.08-62.57,30.85-92.62,92.54-32.33,66.37-.15,150,14.72,188.7,25.37,66,50.51,75.21,56,131.95,2.16,22.46,6.67,69.24-25.16,105.19-3,3.34-36.49,40.09-81.09,35.62-50.59-5.08-77-59.32-99.7-106.06-13.73-28.25-41.16-84.67-19.12-107,13.48-13.63,42.34-11.37,61-2.85,26.66,12.15,36.22,38.69,41.28,36.3,4.55-2.15,1.18-25.76-9.83-49.73-22-47.95-52.12-48.32-65.66-87.64-1.64-4.76-14.09-42.71,6.32-70.61,11.77-16.09,34.78-29.25,50.06-22.73,17.28,7.36,17.21,36.72,22.94,36.17,5.48-.53,8.88-27.69,8.31-55-.83-40.16-9.52-47.23-4.82-68.69,7.17-32.73,35.08-51.39,39.13-54C544.22,194.19,599.23,200.3,604.5,216.61Z"/><path class="cls-6" d="M892.18,1368A48.54,48.54,0,0,1,860,1331.48l-23.91-118.37-204.59,7.26-25.18,123.32c-3.52,17.27,10.59,34.59,26.85,41l85.59,33.49a111.37,111.37,0,0,0,50,7.26l180.89-15.48a11.21,11.21,0,0,0,10.14-9.94c.62-5.33,4.32-11.32-.72-13Z"/><path class="cls-7" d="M894.21,1360.81a48.1,48.1,0,0,1-32.15-36.07l-23.89-116.89L638.57,1215,613.42,1336.8a35.61,35.61,0,0,0,22,40.43L721,1410.3a112.47,112.47,0,0,0,50,7.17l180.71-15.28a11.15,11.15,0,0,0,2.54-21.71Z"/><path class="cls-8" d="M213.46,1291.78c-22.19,1.32-40.34-13.07-40.34-32.09V574.14c0-19,18.15-33.71,40.34-32.75l1026,44.46A31,31,0,0,1,1269,616.47v583.05c0,16.18-13.19,30.12-29.48,31.09Z"/><path class="cls-9" d="M1277.53,616.47v583.05a31.34,31.34,0,0,1-29.15,31.09l-400.82,23.9-3.15.21-216.74,12.92-5.9.34-399.1,23.8a35.5,35.5,0,0,1-6.37-.11c-18.83-1.77-32.5-15.05-32.5-32V574.15c0-17.24,14.18-30.93,33.49-32.63a42.28,42.28,0,0,1,5.76-.13l57.63,2.51,168,7.28,762.94,33.06,36.82,1.61A30.71,30.71,0,0,1,1277.53,616.47Z"/><path class="cls-10" d="M1248.69,599.57l-1026-42.21c-11.86-.48-21.51,7.35-21.51,17.51v683.78c0,10.16,9.65,17.84,21.51,17.16l1026-58.92a16.89,16.89,0,0,0,15.79-16.62V615.94A16.56,16.56,0,0,0,1248.69,599.57Z"/><path class="cls-7" d="M222.68,1217.57c-4.62.23-8.38-2.8-8.38-6.75V575.38c0-4,3.76-7,8.38-6.84l1026,40.64a6.46,6.46,0,0,1,6.17,6.39V1160.4a6.54,6.54,0,0,1-6.17,6.45Z"/><path class="cls-11" d="M1141.58,1188.18c-86.32-53.39-26-205.21-123-281.49-97.73-76.9-235.25,17.42-303.7-62.22-51-59.3,8.67-130.9-40-186.67-76.33-87.46-271.72,32.83-361.49-53.33-12.75-12.24-25.61-30.79-32.93-60.57l-57.81-2.51c-22.19-1-40.34,13.73-40.34,32.75v685.55c0,19,18.15,33.41,40.34,32.09l1026-61.17c16.29-1,29.48-14.91,29.48-31.09v-10.37C1210,1212.27,1168.39,1204.77,1141.58,1188.18Z"/><path class="cls-12" d="M1210.5,584.24v465.91c0,54.42-38,102.17-91.18,119.29a132.72,132.72,0,0,1-19,4.73,138.92,138.92,0,0,1-17,1.85l-408.56,19.19-373.69,17.56c41-1.94,77.87-18.06,104.49-42.55s43.07-57.41,43.07-92.91V551.18Z"/><path class="cls-13" d="M1238.3,288.69v761.46c0,36.6-17.09,70.19-44.69,93.45a138.21,138.21,0,0,1-82.89,32.42l-782.25,36.75c40.94-1.94,78.9-18.06,105.52-42.55s44.09-57.41,44.09-92.91V260.73Z"/><path class="cls-14" d="M705.37,509,752,435.19l-33.91-.64-30.48,51.57-.05-.11-.6,1H687l-.07,0-.39.54-.39-1L686,486l.19,0-40.76-64.86a94.72,94.72,0,0,0,11.16-7.38,42.59,42.59,0,0,0,8.7-8.95,41.07,41.07,0,0,0,7.26-24q0-22.86-14.64-34.43c-9.79-7.72-24-11.82-44.43-12.33l-42.2-1.1V484.71l29.42.47V427.05l16.5.32,41,66.21,7.71,12.49L616,584l34.14.31L685,527.51,719.62,585l12.3.12,23.63.22Zm-72.1-112.64c-4.82,3.27-12.09,4.75-22.2,4.53l-10.38-.22V360.11l9.75.22c10.32.25,17.83,1.69,22.75,4.87s7.3,8.19,7.3,15.37S638.05,393,633.27,396.31Z"/><polygon class="cls-7" points="1190.88 399.33 845.93 391.84 845.93 350.2 1190.88 358.62 1190.88 399.33"/><polygon class="cls-7" points="1190.88 489.24 845.93 483.77 845.93 442.14 1190.88 448.52 1190.88 489.24"/><polygon class="cls-7" points="1190.88 579.15 845.93 575.71 845.93 534.08 1190.88 538.44 1190.88 579.15"/><polygon class="cls-7" points="1190.88 714.86 512.41 714.13 512.41 682.24 1190.88 684.33 1190.88 714.86"/><polygon class="cls-7" points="1190.88 781.02 512.41 783.22 512.41 753.1 1190.88 752.19 1190.88 781.02"/><polygon class="cls-7" points="1190.88 848.88 512.41 854.08 512.41 822.19 1190.88 818.35 1190.88 848.88"/><polygon class="cls-7" points="1190.88 942.18 512.41 951.52 512.41 919.63 1190.88 911.65 1190.88 942.18"/><polygon class="cls-7" points="1190.88 1008.35 512.41 1020.61 512.41 990.49 1190.88 979.51 1190.88 1008.35"/><polygon class="cls-7" points="1190.88 1076.2 512.41 1091.47 512.41 1059.58 1190.88 1045.67 1190.88 1076.2"/><path class="cls-10" d="M1193.94,1143.6a138.7,138.7,0,0,1-83.06,32.42l-782.32,36.75c40.93-1.94,78.85-18.06,105.47-42.55s44.05-57.41,44.05-92.91v-812c3.27,24.26,13.78,48.06,23.52,71,17.58,41.46,38.22,72,68.87,97.8a276.46,276.46,0,0,0,30.27,22.21c2.53,1.63,5,3.2,7.59,4.78,18,10.83,34.73,21.41,49.84,32.52,33.93,24.92,59.7,52.54,73.78,91.49,5.72,15.86,9.48,33.61,11.08,53.83,1.13,14.47,1.38,29.23,1.6,44.05.15,10.47.27,21,.68,31.44a354.2,354.2,0,0,0,3.22,38.39A200,200,0,0,0,755,782.43a159.78,159.78,0,0,0,6.43,17.49,134.07,134.07,0,0,0,11.33,20.8,143.72,143.72,0,0,0,28.3,31.15c26.78,22.29,60.56,36.45,93.86,51.3q13.26,5.9,27,11.63c23.5,9.88,47.83,19.58,71.92,30.1,25.17,11,50.07,22.82,73.47,36.61a370.08,370.08,0,0,1,41.73,28.31,267.68,267.68,0,0,1,38.39,36.73q5.09,6,9.82,12.35a210.52,210.52,0,0,1,11.91,17.79A185.92,185.92,0,0,1,1193.94,1143.6Z"/><path class="cls-7" d="M1065.86,1096.72H729c-7.41,0-12.35,6.08-11,13.58l46.56,258.59c1.35,7.5,8.38,13.08,15.68,12.46L1112,1353.2c5.9-.51,9.69-6.35,8.48-13.06l-41.64-231.27C1077.67,1102.16,1071.85,1096.72,1065.86,1096.72Z"/><path class="cls-15" d="M779.72,1378.28c-5.63.48-11.08-3.85-12.12-9.63l-46.51-258.36c-1-5.79,2.77-10.5,8.49-10.51l336.78-.3c4.63,0,9.14,4.21,10.08,9.4l41.67,231.45c.93,5.19-2,9.72-6.57,10.1Z"/><path class="cls-7" d="M795.56,1144.7c2.09,11.57-5.34,21.14-16.65,21.38s-22.4-9.07-24.51-20.79,5.5-21.29,16.91-21.38S793.48,1133.13,795.56,1144.7Z"/><path class="cls-16" d="M792,1153.27c-3.62,9.51-14.81,13-25,7.64s-15.66-17.47-12-27,15-12.85,25.19-7.45S795.59,1143.8,792,1153.27Z"/><path class="cls-17" d="M790,1152.22c-3.23,8.47-13.2,11.53-22.32,6.8s-13.93-15.56-10.63-24.08,13.35-11.45,22.43-6.64S793.2,1143.78,790,1152.22Z"/><path class="cls-18" d="M778.32,1131.3a2,2,0,0,0-2.9.86l-8,20.7a2.62,2.62,0,0,0,1.38,3.12,2,2,0,0,0,2.91-.88l7.94-20.68A2.65,2.65,0,0,0,778.32,1131.3Z"/><path class="cls-19" d="M776,1138.9c.78,4.31-2,7.85-6.22,7.91a9.52,9.52,0,0,1-9.06-7.72c-.78-4.32,2-7.86,6.25-7.9A9.51,9.51,0,0,1,776,1138.9Z"/><path class="cls-7" d="M865.9,1143.69c2,11.33-5,20.69-15.88,20.92s-21.49-8.89-23.55-20.35,5.18-20.84,16.12-20.93S863.86,1132.36,865.9,1143.69Z"/><path class="cls-20" d="M862.51,1152.08c-3.43,9.3-14.15,12.67-24,7.46s-15.06-17.1-11.54-26.46,14.31-12.58,24.1-7.28S865.92,1142.8,862.51,1152.08Z"/><path class="cls-21" d="M860.58,1151.05c-3.05,8.29-12.6,11.28-21.35,6.64s-13.41-15.23-10.28-23.57,12.75-11.2,21.47-6.49S863.64,1142.78,860.58,1151.05Z"/><path class="cls-22" d="M849.32,1130.57a1.87,1.87,0,0,0-2.77.84L839,1151.67a2.62,2.62,0,0,0,1.33,3.06,1.9,1.9,0,0,0,2.79-.87l7.53-20.24A2.62,2.62,0,0,0,849.32,1130.57Z"/><path class="cls-19" d="M847.12,1138c.76,4.21-1.89,7.68-5.92,7.74s-8-3.32-8.71-7.56,1.91-7.69,6-7.73S846.37,1133.8,847.12,1138Z"/><path class="cls-7" d="M933.34,1142.72c2,11.1-4.77,20.26-15.16,20.48s-20.64-8.71-22.66-19.94,4.89-20.4,15.38-20.48S931.34,1131.62,933.34,1142.72Z"/><path class="cls-23" d="M930.11,1150.93c-3.26,9.11-13.52,12.4-23,7.31s-14.5-16.76-11.16-25.92,13.68-12.31,23.08-7.13S933.35,1141.85,930.11,1150.93Z"/><path class="cls-24" d="M928.26,1149.93c-2.9,8.11-12,11-20.45,6.49s-12.91-14.92-9.94-23.08,12.18-11,20.56-6.35S931.16,1141.83,928.26,1149.93Z"/><path class="cls-25" d="M917.39,1129.87a1.78,1.78,0,0,0-2.66.82l-7.16,19.83a2.58,2.58,0,0,0,1.28,3,1.81,1.81,0,0,0,2.68-.85l7.14-19.82A2.58,2.58,0,0,0,917.39,1129.87Z"/><path class="cls-19" d="M915.31,1137.15c.74,4.13-1.79,7.52-5.66,7.58s-7.63-3.26-8.38-7.4,1.8-7.54,5.69-7.58S914.56,1133,915.31,1137.15Z"/><path class="cls-7" d="M998,1141.79c2,10.87-4.49,19.85-14.47,20.06s-19.84-8.54-21.82-19.54,4.62-20,14.69-20.06S996.09,1130.92,998,1141.79Z"/><path class="cls-26" d="M995,1149.84c-3.1,8.92-12.94,12.14-22,7.14s-14-16.41-10.81-25.39,13.08-12,22.13-7S998.06,1140.94,995,1149.84Z"/><path class="cls-27" d="M993.2,1148.85c-2.76,8-11.53,10.81-19.61,6.36s-12.44-14.62-9.62-22.62,11.65-10.74,19.71-6.22S996,1140.92,993.2,1148.85Z"/><path class="cls-28" d="M982.69,1129.19a1.69,1.69,0,0,0-2.55.81l-6.8,19.43a2.55,2.55,0,0,0,1.24,2.93,1.71,1.71,0,0,0,2.57-.83l6.78-19.41A2.58,2.58,0,0,0,982.69,1129.19Z"/><path class="cls-19" d="M980.72,1136.33c.72,4-1.69,7.36-5.4,7.42s-7.34-3.19-8.07-7.25,1.7-7.38,5.43-7.42S980,1132.29,980.72,1136.33Z"/><path class="cls-7" d="M1060.19,1140.9c1.92,10.65-4.26,19.45-13.84,19.65s-19.08-8.38-21-19.15,4.37-19.58,14-19.66S1058.27,1130.24,1060.19,1140.9Z"/><path class="cls-29" d="M1057.27,1148.78c-2.94,8.75-12.38,11.9-21.12,7s-13.48-16.09-10.47-24.89,12.53-11.81,21.23-6.83S1060.2,1140.06,1057.27,1148.78Z"/><path class="cls-30" d="M1055.56,1147.81c-2.62,7.79-11,10.6-18.82,6.23s-12-14.33-9.32-22.16,11.15-10.53,18.91-6.1S1058.17,1140,1055.56,1147.81Z"/><path class="cls-31" d="M1045.39,1128.55a1.6,1.6,0,0,0-2.44.79l-6.47,19a2.53,2.53,0,0,0,1.21,2.88,1.61,1.61,0,0,0,2.45-.81l6.45-19A2.53,2.53,0,0,0,1045.39,1128.55Z"/><path class="cls-19" d="M1043.52,1135.54c.72,4-1.59,7.22-5.16,7.27s-7.06-3.13-7.78-7.11,1.61-7.23,5.19-7.26S1042.81,1131.58,1043.52,1135.54Z"/><path class="cls-7" d="M806.6,1206c2.09,11.58-5.31,21.32-16.59,21.76s-22.32-8.69-24.43-20.41,5.46-21.46,16.84-21.76S804.52,1194.43,806.6,1206Z"/><path class="cls-32" d="M803,1214.67c-3.6,9.6-14.75,13.26-24.95,8.12s-15.62-17.24-11.93-26.91,14.94-13.16,25.11-7.93S806.63,1205.1,803,1214.67Z"/><path class="cls-33" d="M801.05,1213.65c-3.21,8.56-13.15,11.81-22.24,7.23s-13.9-15.36-10.61-24,13.29-11.73,22.35-7.07S804.25,1205.12,801.05,1213.65Z"/><path class="cls-34" d="M789.4,1192.88a2,2,0,0,0-2.89.91l-7.92,20.92a2.61,2.61,0,0,0,1.38,3.11,2,2,0,0,0,2.9-.94l7.9-20.9A2.6,2.6,0,0,0,789.4,1192.88Z"/><path class="cls-19" d="M787.09,1200.55c.77,4.3-2,7.9-6.19,8a9.31,9.31,0,0,1-9-7.58c-.78-4.32,2-7.93,6.23-8A9.3,9.3,0,0,1,787.09,1200.55Z"/><path class="cls-7" d="M876.71,1203.7c2,11.33-5,20.86-15.82,21.28s-21.42-8.52-23.49-20,5.15-21,16.06-21.28S874.67,1192.37,876.71,1203.7Z"/><path class="cls-35" d="M873.33,1212.18c-3.42,9.4-14.09,13-23.89,7.93s-15-16.88-11.52-26.34,14.26-12.88,24-7.75S876.73,1202.81,873.33,1212.18Z"/><path class="cls-36" d="M871.41,1211.19c-3,8.37-12.56,11.54-21.28,7s-13.37-15-10.26-23.46,12.7-11.47,21.39-6.91S874.45,1202.84,871.41,1211.19Z"/><path class="cls-37" d="M860.17,1190.84a1.88,1.88,0,0,0-2.76.9l-7.51,20.46a2.57,2.57,0,0,0,1.33,3,1.9,1.9,0,0,0,2.78-.92l7.49-20.44A2.6,2.6,0,0,0,860.17,1190.84Z"/><path class="cls-19" d="M858,1198.35c.76,4.21-1.88,7.74-5.91,7.87s-7.92-3.19-8.68-7.42,1.9-7.76,5.93-7.87S857.23,1194.14,858,1198.35Z"/><path class="cls-7" d="M943.92,1201.49c2,11.1-4.74,20.42-15.1,20.83s-20.57-8.36-22.59-19.59,4.86-20.55,15.32-20.83S941.92,1190.4,943.92,1201.49Z"/><path class="cls-38" d="M940.71,1209.8c-3.24,9.19-13.47,12.68-22.88,7.74s-14.47-16.54-11.14-25.8,13.62-12.59,23-7.57S943.94,1200.63,940.71,1209.8Z"/><path class="cls-39" d="M938.87,1208.82c-2.89,8.19-12,11.3-20.39,6.89s-12.88-14.73-9.92-23,12.13-11.23,20.49-6.75S941.75,1200.65,938.87,1208.82Z"/><path class="cls-40" d="M928,1188.89a1.79,1.79,0,0,0-2.65.88l-7.12,20a2.56,2.56,0,0,0,1.28,3,1.82,1.82,0,0,0,2.67-.9l7.1-20A2.56,2.56,0,0,0,928,1188.89Z"/><path class="cls-19" d="M925.94,1196.24c.75,4.13-1.77,7.58-5.63,7.7s-7.61-3.12-8.36-7.27,1.8-7.59,5.67-7.7S925.2,1192.11,925.94,1196.24Z"/><path class="cls-7" d="M1008.41,1199.38c2,10.87-4.47,20-14.42,20.39s-19.77-8.21-21.75-19.21,4.59-20.13,14.63-20.39S1006.45,1188.5,1008.41,1199.38Z"/><path class="cls-41" d="M1005.36,1207.51c-3.08,9-12.88,12.42-21.93,7.57s-13.95-16.21-10.79-25.28,13-12.33,22.05-7.4S1008.43,1198.52,1005.36,1207.51Z"/><path class="cls-42" d="M1003.59,1206.55c-2.75,8-11.48,11.06-19.55,6.74s-12.4-14.44-9.6-22.51,11.61-11,19.64-6.61S1006.33,1198.54,1003.59,1206.55Z"/><path class="cls-43" d="M993.1,1187a1.7,1.7,0,0,0-2.54.86l-6.77,19.61a2.54,2.54,0,0,0,1.25,2.92,1.71,1.71,0,0,0,2.55-.87l6.75-19.6A2.55,2.55,0,0,0,993.1,1187Z"/><path class="cls-19" d="M991.14,1194.22c.73,4-1.68,7.42-5.38,7.54s-7.32-3.07-8-7.13,1.7-7.43,5.41-7.54S990.41,1190.18,991.14,1194.22Z"/><path class="cls-7" d="M1070.35,1197.34c1.92,10.66-4.23,19.6-13.78,20s-19-8-21-18.83,4.35-19.72,14-20S1068.43,1186.69,1070.35,1197.34Z"/><path class="cls-44" d="M1067.44,1205.31c-2.92,8.82-12.33,12.16-21,7.4s-13.45-15.89-10.45-24.77,12.48-12.08,21.16-7.24S1070.36,1196.51,1067.44,1205.31Z"/><path class="cls-45" d="M1065.74,1204.37c-2.61,7.86-11,10.83-18.75,6.59s-12-14.16-9.3-22.07,11.1-10.76,18.84-6.45S1068.34,1196.52,1065.74,1204.37Z"/><path class="cls-46" d="M1055.6,1185.23a1.61,1.61,0,0,0-2.44.83l-6.44,19.22a2.51,2.51,0,0,0,1.21,2.86,1.63,1.63,0,0,0,2.45-.86l6.42-19.2A2.51,2.51,0,0,0,1055.6,1185.23Z"/><path class="cls-19" d="M1053.74,1192.28c.71,4-1.59,7.27-5.14,7.38s-7-3-7.76-7,1.6-7.29,5.17-7.39S1053,1188.31,1053.74,1192.28Z"/><path class="cls-7" d="M817.64,1267.31c2.08,11.57-5.28,21.48-16.52,22.13s-22.26-8.31-24.37-20,5.43-21.63,16.77-22.14S815.55,1255.74,817.64,1267.31Z"/><path class="cls-47" d="M814.1,1276.07c-3.58,9.7-14.7,13.58-24.87,8.61s-15.58-17-11.9-26.79,14.88-13.48,25-8.41S817.66,1266.4,814.1,1276.07Z"/><path class="cls-48" d="M812.11,1275.09c-3.2,8.64-13.1,12.09-22.16,7.65s-13.86-15.15-10.59-23.85,13.24-12,22.27-7.5S815.29,1266.47,812.11,1275.09Z"/><path class="cls-49" d="M800.49,1254.46a2,2,0,0,0-2.88,1l-7.88,21.12a2.59,2.59,0,0,0,1.37,3.1,2,2,0,0,0,2.9-1l7.85-21.11A2.57,2.57,0,0,0,800.49,1254.46Z"/><path class="cls-19" d="M798.19,1262.19c.77,4.31-2,8-6.17,8.19a9.08,9.08,0,0,1-9-7.43c-.78-4.33,2-8,6.2-8.19A9.08,9.08,0,0,1,798.19,1262.19Z"/><path class="cls-7" d="M887.51,1263.72c2,11.33-5,21-15.75,21.64s-21.36-8.16-23.42-19.63,5.12-21.16,16-21.65S885.47,1252.39,887.51,1263.72Z"/><path class="cls-50" d="M884.15,1272.29c-3.4,9.49-14,13.27-23.8,8.39s-15-16.67-11.5-26.22,14.21-13.18,23.93-8.21S887.53,1262.82,884.15,1272.29Z"/><path class="cls-51" d="M882.24,1271.32c-3,8.46-12.51,11.82-21.21,7.47s-13.34-14.84-10.24-23.35,12.65-11.74,21.32-7.32S885.26,1262.89,882.24,1271.32Z"/><path class="cls-52" d="M871,1251.12a1.9,1.9,0,0,0-2.76,1l-7.47,20.66a2.55,2.55,0,0,0,1.32,3,1.91,1.91,0,0,0,2.77-1l7.46-20.65A2.57,2.57,0,0,0,871,1251.12Z"/><path class="cls-19" d="M868.85,1258.69c.76,4.21-1.87,7.79-5.88,8s-7.9-3-8.66-7.28,1.89-7.82,5.91-8S868.09,1254.47,868.85,1258.69Z"/><path class="cls-7" d="M954.5,1260.27c2,11.1-4.71,20.57-15,21.17s-20.51-8-22.54-19.24,4.84-20.71,15.26-21.18S952.5,1249.17,954.5,1260.27Z"/><path class="cls-53" d="M951.3,1268.66c-3.22,9.29-13.41,13-22.79,8.19s-14.43-16.33-11.13-25.68,13.58-12.89,22.93-8S954.52,1259.4,951.3,1268.66Z"/><path class="cls-54" d="M949.47,1267.71c-2.88,8.28-12,11.56-20.32,7.29s-12.84-14.54-9.9-22.87,12.09-11.48,20.42-7.15S952.34,1259.46,949.47,1267.71Z"/><path class="cls-55" d="M938.64,1247.92a1.8,1.8,0,0,0-2.64.93l-7.09,20.22a2.53,2.53,0,0,0,1.28,3,1.83,1.83,0,0,0,2.66-1l7.07-20.21A2.54,2.54,0,0,0,938.64,1247.92Z"/><path class="cls-19" d="M936.58,1255.33c.74,4.12-1.76,7.63-5.61,7.83s-7.59-3-8.33-7.14,1.78-7.65,5.64-7.83S935.84,1251.2,936.58,1255.33Z"/><path class="cls-7" d="M1018.78,1257c2,10.88-4.45,20.15-14.36,20.72s-19.71-7.86-21.69-18.86,4.56-20.28,14.56-20.73S1016.82,1246.09,1018.78,1257Z"/><path class="cls-56" d="M1015.74,1265.18c-3.06,9.09-12.83,12.69-21.85,8s-13.91-16-10.77-25.17,13-12.61,22-7.83S1018.79,1256.11,1015.74,1265.18Z"/><path class="cls-57" d="M1014,1264.25c-2.73,8.1-11.44,11.3-19.48,7.12s-12.38-14.26-9.58-22.41,11.56-11.24,19.57-7S1016.7,1256.17,1014,1264.25Z"/><path class="cls-58" d="M1003.51,1244.85a1.71,1.71,0,0,0-2.53.9l-6.74,19.81a2.51,2.51,0,0,0,1.25,2.91,1.73,1.73,0,0,0,2.54-.93l6.72-19.79A2.52,2.52,0,0,0,1003.51,1244.85Z"/><path class="cls-19" d="M1001.56,1252.1c.73,4.05-1.67,7.48-5.36,7.67s-7.29-2.94-8-7,1.68-7.49,5.38-7.67S1000.83,1248.06,1001.56,1252.1Z"/><path class="cls-7" d="M1080.51,1253.79c1.92,10.66-4.2,19.74-13.72,20.29s-19-7.73-20.91-18.51,4.32-19.87,13.92-20.3S1078.59,1243.13,1080.51,1253.79Z"/><path class="cls-59" d="M1077.62,1261.83c-2.91,8.91-12.28,12.43-21,7.82s-13.41-15.7-10.43-24.67,12.43-12.34,21.09-7.65S1080.52,1253,1077.62,1261.83Z"/><path class="cls-60" d="M1075.92,1260.92c-2.59,7.94-11,11.07-18.68,7s-11.94-14-9.29-22,11.07-11,18.78-6.82S1078.51,1253,1075.92,1260.92Z"/><path class="cls-61" d="M1065.8,1241.9a1.63,1.63,0,0,0-2.43.89l-6.4,19.39a2.49,2.49,0,0,0,1.2,2.85,1.64,1.64,0,0,0,2.44-.9l6.39-19.38A2.5,2.5,0,0,0,1065.8,1241.9Z"/><path class="cls-19" d="M1064,1249c.71,4-1.58,7.32-5.12,7.51s-7-2.89-7.73-6.87,1.59-7.34,5.14-7.51S1063.24,1245.05,1064,1249Z"/><path class="cls-7" d="M828.68,1328.62c2.08,11.57-5.26,21.64-16.46,22.5s-22.19-7.93-24.3-19.65,5.4-21.8,16.71-22.52S826.59,1317,828.68,1328.62Z"/><path class="cls-62" d="M825.15,1337.47c-3.56,9.8-14.64,13.89-24.78,9.09s-15.53-16.79-11.88-26.66,14.83-13.79,24.93-8.89S828.7,1327.7,825.15,1337.47Z"/><path class="cls-63" d="M823.17,1336.52c-3.18,8.73-13,12.37-22.09,8.09s-13.82-14.95-10.57-23.74,13.2-12.29,22.2-7.93S826.34,1327.81,823.17,1336.52Z"/><path class="cls-64" d="M811.57,1316a2,2,0,0,0-2.87,1l-7.84,21.34a2.56,2.56,0,0,0,1.37,3.08,2,2,0,0,0,2.89-1l7.82-21.33A2.57,2.57,0,0,0,811.57,1316Z"/><path class="cls-19" d="M809.29,1323.84c.77,4.3-2,8-6.15,8.32a8.86,8.86,0,0,1-9-7.29c-.78-4.32,2-8,6.17-8.33A8.88,8.88,0,0,1,809.29,1323.84Z"/><path class="cls-7" d="M898.32,1323.73c2,11.33-5,21.18-15.69,22s-21.29-7.79-23.36-19.26,5.1-21.33,15.92-22S896.28,1312.4,898.32,1323.73Z"/><path class="cls-65" d="M895,1332.39c-3.38,9.58-14,13.57-23.72,8.86s-14.94-16.45-11.47-26.1,14.15-13.48,23.85-8.68S898.34,1322.84,895,1332.39Z"/><path class="cls-66" d="M893.06,1331.46c-3,8.54-12.46,12.08-21.13,7.88s-13.3-14.65-10.22-23.24,12.6-12,21.25-7.74S896.07,1322.94,893.06,1331.46Z"/><path class="cls-67" d="M881.88,1311.39a1.92,1.92,0,0,0-2.75,1l-7.44,20.88a2.54,2.54,0,0,0,1.33,3,1.93,1.93,0,0,0,2.76-1l7.41-20.85A2.53,2.53,0,0,0,881.88,1311.39Z"/><path class="cls-19" d="M879.71,1319c.76,4.21-1.86,7.85-5.85,8.14s-7.88-2.92-8.64-7.15,1.88-7.88,5.89-8.15S879,1314.81,879.71,1319Z"/><path class="cls-7" d="M965.08,1319.05c2,11.09-4.68,20.72-15,21.51s-20.45-7.66-22.47-18.89,4.81-20.87,15.19-21.53S963.08,1308,965.08,1319.05Z"/><path class="cls-68" d="M961.9,1327.52c-3.21,9.38-13.36,13.27-22.72,8.64s-14.39-16.13-11.1-25.57,13.53-13.18,22.85-8.46S965.1,1318.17,961.9,1327.52Z"/><path class="cls-69" d="M960.07,1326.6c-2.86,8.36-11.91,11.82-20.24,7.69S927,1319.93,930,1311.53s12-11.75,20.34-7.55S962.92,1318.27,960.07,1326.6Z"/><path class="cls-70" d="M949.27,1306.94a1.82,1.82,0,0,0-2.63,1l-7.06,20.42a2.51,2.51,0,0,0,1.28,3,1.84,1.84,0,0,0,2.65-1l7-20.41A2.51,2.51,0,0,0,949.27,1306.94Z"/><path class="cls-19" d="M947.22,1314.42c.74,4.12-1.76,7.69-5.59,8s-7.56-2.87-8.31-7,1.77-7.7,5.62-8S946.48,1310.29,947.22,1314.42Z"/><path class="cls-7" d="M1029.15,1314.55c1.95,10.87-4.42,20.3-14.3,21s-19.66-7.53-21.64-18.53,4.54-20.43,14.51-21.06S1027.19,1303.68,1029.15,1314.55Z"/><path class="cls-71" d="M1026.12,1322.85c-3,9.18-12.78,13-21.77,8.42s-13.87-15.81-10.75-25,12.93-12.89,21.9-8.25S1029.16,1313.69,1026.12,1322.85Z"/><path class="cls-72" d="M1024.36,1322c-2.71,8.18-11.39,11.55-19.4,7.49s-12.35-14.07-9.57-22.3,11.52-11.49,19.5-7.37S1027.07,1313.79,1024.36,1322Z"/><path class="cls-73" d="M1013.92,1302.68a1.72,1.72,0,0,0-2.52,1l-6.7,20a2.48,2.48,0,0,0,1.24,2.9,1.74,1.74,0,0,0,2.53-1l6.69-20A2.48,2.48,0,0,0,1013.92,1302.68Z"/><path class="cls-19" d="M1012,1310c.73,4-1.66,7.53-5.33,7.79s-7.27-2.82-8-6.88,1.67-7.55,5.36-7.79S1011.25,1306,1012,1310Z"/><path class="cls-7" d="M1090.67,1310.24c1.92,10.65-4.17,19.88-13.66,20.6s-18.91-7.41-20.85-18.18,4.29-20,13.86-20.63S1088.76,1299.58,1090.67,1310.24Z"/><path class="cls-74" d="M1087.8,1318.36c-2.9,9-12.24,12.69-20.9,8.22s-13.38-15.5-10.41-24.55,12.38-12.62,21-8.07S1090.68,1309.39,1087.8,1318.36Z"/><path class="cls-75" d="M1086.1,1317.48c-2.58,8-10.9,11.3-18.62,7.31s-11.9-13.81-9.26-21.86,11-11.24,18.71-7.19S1088.68,1309.49,1086.1,1317.48Z"/><path class="cls-76" d="M1076,1298.58a1.64,1.64,0,0,0-2.42.93l-6.37,19.58a2.46,2.46,0,0,0,1.21,2.84,1.66,1.66,0,0,0,2.43-1l6.35-19.56A2.46,2.46,0,0,0,1076,1298.58Z"/><path class="cls-19" d="M1074.16,1305.74c.72,4-1.56,7.38-5.09,7.63s-7-2.77-7.72-6.75,1.59-7.39,5.13-7.63S1073.45,1301.78,1074.16,1305.74Z"/><path class="cls-19" d="M1043.81,1286.77c-30-3.9-41.14,16.5-70.53,6.08-32-11.37-28.67-38.71-73.25-67.84-34.52-22.56-53.71-17.7-70.35-41.79-11.95-17.29-7.34-27.41-16.19-51.36a139.11,139.11,0,0,0-19.39-35.14H729.5c-7.41,0-12.35,6.08-11,13.58l46.55,258.55c1.35,7.5,8.39,13.08,15.68,12.46l331.68-28.15c4.52-.38,7.79-3.9,8.54-8.53C1089.53,1302.11,1063.43,1289.32,1043.81,1286.77Z"/><polygon class="cls-7" points="1049.31 1169.76 779.18 1176.16 778.63 1173.13 1048.81 1166.97 1049.31 1169.76"/><polygon class="cls-7" points="1059.76 1227.53 790.54 1238.98 790 1235.94 1059.26 1224.73 1059.76 1227.53"/><polygon class="cls-7" points="1070.2 1285.29 801.91 1301.8 801.36 1298.76 1069.7 1282.5 1070.2 1285.29"/><path class="cls-77" d="M560.94,1040.85v340c0,17.58,36.62,31.84,81.79,31.84s81.78-14.26,81.78-31.84v-340Z"/><g class="cls-78"><path class="cls-79" d="M667.06,1231c-14.51-54-63.29-57.81-73.67-103.64-4.33-19.12-2.3-47.06,25.28-86.5H560.94v340c0,17.58,36.62,31.84,81.79,31.84,17.39,0,33.51-2.12,46.76-5.72-15.85-17.43-26.84-36.88-31.17-58.64C648.69,1299.87,679.82,1278.48,667.06,1231Z"/></g><path class="cls-80" d="M724.51,1316.58c-28.56,10-65.1,13.93-109.61,3.94V1071.85H724.51Z"/><rect class="cls-81" x="554.92" y="1005.77" width="175.61" height="44.82" rx="4.47"/><rect class="cls-7" x="705.39" y="1014.07" width="11.48" height="28.22" rx="2.42"/><rect class="cls-7" x="685.38" y="1014.07" width="11.48" height="28.22" rx="2.42"/><rect class="cls-7" x="665.37" y="1014.07" width="11.48" height="28.22" rx="2.42"/><rect class="cls-7" x="645.36" y="1014.07" width="11.48" height="28.22" rx="2.42"/><rect class="cls-7" x="625.35" y="1014.07" width="11.48" height="28.22" rx="2.42"/><rect class="cls-7" x="605.35" y="1014.07" width="11.48" height="28.22" rx="2.42"/><rect class="cls-7" x="585.34" y="1014.07" width="11.48" height="28.22" rx="2.42"/><rect class="cls-7" x="565.33" y="1014.07" width="11.48" height="28.22" rx="2.42"/><path class="cls-82" d="M992.06,1370a165.62,165.62,0,0,0-55.72,0H891.77v28.35c0,17,32.42,30.71,72.43,30.71s72.43-13.75,72.43-30.71V1370Z"/><ellipse class="cls-9" cx="964.2" cy="1369.95" rx="72.43" ry="30.71"/><path class="cls-10" d="M964.2,1392.27c-18.74,0-36.27-3.06-49.37-8.61-13.77-5.84-16.87-12-16.87-13.71s3.1-7.87,16.87-13.71c13.1-5.56,30.63-8.61,49.37-8.61s36.27,3,49.37,8.61c13.77,5.84,16.87,12,16.87,13.71s-3.1,7.87-16.87,13.71C1000.47,1389.21,982.94,1392.27,964.2,1392.27Z"/><path class="cls-10" d="M964.2,1392.27c-18.74,0-36.27-3.29-49.37-9.25-13.77-6.26-16.87-12.89-16.87-14.71s3.1-8.45,16.87-14.72c13.1-6,30.63-9.24,49.37-9.24s36.27,3.28,49.37,9.24c13.77,6.27,16.87,12.89,16.87,14.72s-3.1,8.45-16.87,14.71C1000.47,1389,982.94,1392.27,964.2,1392.27Z"/><path class="cls-7" d="M924.24,1380.22a3.89,3.89,0,0,1-3.65-3.47,4.23,4.23,0,0,1,3-4.93L999,1356.13a3.79,3.79,0,0,1,4.33,3.4,4.24,4.24,0,0,1-3,4.93l-75.44,15.69A3.14,3.14,0,0,1,924.24,1380.22Z"/><path class="cls-83" d="M992.06,1337.52a165.62,165.62,0,0,0-55.72,0H891.77v28.35c0,17,32.42,30.71,72.43,30.71s72.43-13.75,72.43-30.71v-28.35Z"/><ellipse class="cls-9" cx="964.2" cy="1337.52" rx="72.43" ry="30.71"/><path class="cls-10" d="M964.2,1359.84c-18.74,0-36.27-3.06-49.37-8.61-13.77-5.84-16.87-12-16.87-13.71s3.1-7.88,16.87-13.71c13.1-5.56,30.63-8.61,49.37-8.61s36.27,3,49.37,8.61c13.77,5.83,16.87,12,16.87,13.71s-3.1,7.87-16.87,13.71C1000.47,1356.78,982.94,1359.84,964.2,1359.84Z"/><path class="cls-10" d="M964.2,1359.83c-18.74,0-36.27-3.28-49.37-9.24-13.77-6.26-16.87-12.89-16.87-14.71s3.1-8.45,16.87-14.72c13.1-6,30.63-9.24,49.37-9.24s36.27,3.28,49.37,9.24c13.77,6.27,16.87,12.89,16.87,14.72s-3.1,8.45-16.87,14.71C1000.47,1356.55,982.94,1359.83,964.2,1359.83Z"/><path class="cls-7" d="M924.24,1347.79a3.89,3.89,0,0,1-3.65-3.47,4.23,4.23,0,0,1,3-4.93L999,1323.7a3.79,3.79,0,0,1,4.33,3.4,4.24,4.24,0,0,1-3,4.93l-75.44,15.69A3.14,3.14,0,0,1,924.24,1347.79Z"/><path class="cls-84" d="M1129.88,1365.84c5.33,41.8-21.23,77.19-52.62,81.19-32,4.08-62.73-27.55-68.23-70.71s17.78-88.11,49.91-90.81C1090.5,1282.85,1124.56,1324,1129.88,1365.84Z"/><path class="cls-9" d="M1131.61,1355.42c5.33,41.8-15.4,78.88-46.79,82.88-32,4.08-62.73-27.55-68.23-70.71s16.51-80.37,48.63-83.08C1096.79,1281.85,1126.29,1313.62,1131.61,1355.42Z"/><path class="cls-10" d="M1079.25,1431.83c-13.36,0-26.64-6.64-37.37-18.71s-18-28.75-20.32-46.69c-2.4-18.83.83-37,9.11-51.18s20.7-22.74,34.87-23.93c1.12-.09,2.26-.14,3.38-.14,27.7,0,53,28.72,57.73,65.4,2.34,18.4-.76,36.31-8.73,50.41s-19.87,22.77-33.58,24.52A41.16,41.16,0,0,1,1079.25,1431.83Z"/><path class="cls-7" d="M1066.85,1297.31c-2.89.25-4.84,3.59-4.35,7.45L1076.8,1417c.5,3.86,3.23,6.71,6.11,6.35s4.81-3.76,4.31-7.61L1073,1303.82C1072.48,1300,1069.74,1297.05,1066.85,1297.31Z"/><path class="cls-10" d="M1087.22,1415.73,1073,1303.82c-.49-3.85-3.23-6.77-6.12-6.51a4.11,4.11,0,0,0-2.58,1.25,4.34,4.34,0,0,1,.52-.08c2.88-.25,5.62,2.66,6.11,6.51l14.26,111.91a7.66,7.66,0,0,1-1.84,6.36C1086,1422.65,1087.69,1419.39,1087.22,1415.73Z"/><path class="cls-85" d="M1230.46,1421.41s1,8,.33,10.7-24,4.63-31.9,3.69,4.71-9,9.75-10.53S1230.46,1421.41,1230.46,1421.41Z"/><path class="cls-86" d="M1218.73,1408l2.45,16.09s6.27,2.81,9.28,0l.33-16.84Z"/><path class="cls-87" d="M1350.14,1407.31s-4.94,3.67-3.62,8.07,12.86,22,21.08,27,5.65-5.42,3.26-11.91-8.52-20.77-10.9-23.17S1350.14,1407.31,1350.14,1407.31Z"/><path class="cls-88" d="M1341.25,1389.64c2.39,6.66,4.69,12.14,6.49,16.19,4,8.94,6.15,12.29,8.61,15.2,2.15,2.53,7.24,7.94,8.61,7s-2.34-7.48-9.51-26.74c-1-2.79-4.33-11.69-4.33-11.69h-9.87Z"/><path class="cls-89" d="M1169.9,1111.14a416.85,416.85,0,0,0-.89,74.31c3.19,41.12,11.41,67.13,21.72,111,6.3,26.79,14.79,66.23,22.48,115.54a21.68,21.68,0,0,0,13.78,2.7,20.88,20.88,0,0,0,8.27-3.14c20.16-61.6,14.21-99.77,4.48-123.56-4.15-10.13-9.17-18.13-11.86-33.71-3.56-20.62.84-32.15,7.11-79.9,4.47-34,3.69-39.3.72-44.41C1223.82,1109.53,1187.47,1109.93,1169.9,1111.14Z"/><path class="cls-90" d="M1044.54,938.77s-2.83-11.1-7.54-14-11.36-6.06-12.89-7.34-3.3,2.56,1.09,5.5l4.39,2.94a4.21,4.21,0,0,1-.18,1.89c-.69,2.08-3.07,3.51-6,3.78-11.27,2.36-15.68,2.48-17.4,2-.25-.08-1.23-.4-1.65,0-.66.7.53,2.91,1,3.69,3.05,4.66,13.64,6.68,21.57,3,2.89-1.33,4-2.76,6.11-2.4,3.36.57,5.42,5,6.64,8.66Z"/><path class="cls-91" d="M1239.29,1118.3c12.35,63.78,24.47,97.27,33.64,116.22a317.72,317.72,0,0,1,17,41.36,336.41,336.41,0,0,1,10.29,39.39c4.26,19.55,14.78,48.09,43.1,85.53.35.21,5.18,2.94,9.79.51a9.54,9.54,0,0,0,4-4.12c-3.71-35.79-8-65.87-11.64-89.08-.78-4.87-4.19-26.17-9.53-54.31-2.09-11-5.16-27.15-8.83-43.73-4.57-20.64-11.58-48.72-22.38-82.37Z"/><path class="cls-9" d="M1035.45,942.29l9.63-8.56c1.17,1.18,18.31,17.91,42.27,12.84,16.49-3.49,26-17,32.1-25.68,18.31-26,7.36-45,27.07-62.68,5.47-4.9,16.21-10.83,23.23-9,16.72,4.31,26.35,54.61,10.16,94.17-3.26,8-21.25,51.95-62.06,56.72C1084.9,1003.92,1050,980.71,1035.45,942.29Z"/><path class="cls-92" d="M1228.77,866.05c-7-6.48-20.4-13.94-27.12-31.29-2-5.22-9.19-23.72,1.38-37.88,6.28-8.4,17.93-14.1,28.2-12.08,8.78,1.72,10.16,7.84,25.07,20.14,5.81,4.79,15.14,12.49,25.53,16.77,17.8,7.33,28.49.43,46.35,1.22,22,1,47.45,13.22,59.73,31,21.81,31.62-9.78,63.69,14.11,100.72,7.82,12.14,11.68,9.42,30.21,32.91s27.84,35.28,26.19,49.69c-2.29,20-23.83,39.1-44.12,40.4-19.82,1.27-32.41-14.32-42.5-7.5-7.18,4.85-3.08,14.29-10.7,25.64-9.83,14.62-29.16,17.54-32.28,18-29,4.37-68-29.6-84.6-69.84C1214.31,971.43,1266.85,901.24,1228.77,866.05Z"/><path class="cls-93" d="M1239.74,1288c-4.15-10.13-9.17-18.13-11.86-33.71-3.56-20.62.84-32.15,7.11-79.9,4.47-34,3.69-39.3.72-44.41-6.46-11.09-20.15-16-34.12-18,.19.72.38,1.43.53,2.13,7.33,33.47-20.64,53.89-8,90.69,6.22,18.14,16.15,22.3,18.46,43.34,2.17,19.71-5.69,23.82-4,41.74,2.51,26.78,21.54,33.26,26.49,53.77,3.21,13.33.5,32.81-23,61,.39,2.43.78,4.87,1.17,7.35a21.68,21.68,0,0,0,13.78,2.7,20.88,20.88,0,0,0,8.27-3.14C1255.42,1349.92,1249.47,1311.75,1239.74,1288Z"/><path class="cls-94" d="M1166,897.34c-30.16,23.83-26.8,69.52-45.34,71.84-5.67.7-5.36-3.64-18.87-8-19.75-6.42-29,.06-42.93-4.82-5.76-2-13.25-6.33-20.62-16.52l-2.79,2.48c14.5,38.42,49.45,61.63,82.4,57.79,40.81-4.77,58.8-48.74,62.06-56.72,7.6-18.56,9.51-39.49,7.67-56.92A63,63,0,0,0,1166,897.34Z"/><path class="cls-9" d="M1144.12,861.23c1.85-2.88,7.73-10.83,32.66-16.69,12.5-2.94,35.61-8,65.35-1.67C1283,851.52,1308.4,876,1318,886.33c-7.84,5.1-29.48,20.68-40.19,50.22-3.33,9.2-13.18,40.63.9,70.06,8.12,17,22.47,29.7,33.38,39.38,16.35,14.5,24.82,16.73,30.3,29.73,6,14.15,0,21,7.37,30.74,8,10.41,17.29,5.57,30.79,16.1,13.82,10.77,8.9,19.64,21.49,31.56,18.28,17.3,42.51,11.68,43.64,19.47,1,6.7-16.25,15.79-30.89,19.47-29,7.3-54.26-5-61.77-8.73-20.82-10.45-17.22-17.22-33.09-25.19-26.57-13.35-44.72,1.5-105.24,3-32.77.83-49.34,1-58.42-10.07-8.29-10.13-3.93-21.24,1-69.11h0c1.6-16,5-49.46,5-68.54,0-11.27-3.9-29.69-11.72-66.53-.46-2.18-4.69-22.08-8.11-48.67C1139.35,875.3,1139.8,868,1144.12,861.23Z"/><g class="cls-95"><path class="cls-96" d="M1402,1154.12c-12.59-11.92-7.67-20.79-21.49-31.56-13.5-10.53-22.83-5.69-30.79-16.1-7.42-9.69-1.4-16.59-7.37-30.74-5.48-13-13.95-15.23-30.3-29.74-10.91-9.67-25.26-22.4-33.38-39.37-14.08-29.43-4.23-60.86-.9-70.06,10.71-29.54,32.35-45.12,40.19-50.22-.76-.82-1.65-1.74-2.6-2.72-51.65,7.1-81.76,36.94-85.49,45.78-8.61,20.43,5,27.93,5.37,86.85.17,28.16-2.87,39.28,6.27,51,10.45,13.44,22.49,9.28,37.6,26.86,11.61,13.5,9.75,22.06,20.6,27.75,11.65,6.12,19.08-1,32.23,1.8,22,4.68,26.66,30,41.18,43.86,11,10.48,31.29,17.81,71.33,10a5.61,5.61,0,0,0,1.19-3.9C1444.53,1165.8,1420.3,1171.42,1402,1154.12Z"/></g><path class="cls-97" d="M1178.31,932.66s56.58-73.88,88.74-82a138.72,138.72,0,0,0-24.92-7.82,140.24,140.24,0,0,0-59.43.34C1179.67,852.94,1167.77,894.13,1178.31,932.66Z"/><path class="cls-9" d="M1245.56,945.28c-5.49,11.66,19.74,38.82,47.78,51.71,5.71,2.63,46.74,21.5,65,3.36,15.11-15,5.36-46,1.88-57.06-17.1-54.34-69.6-82-91.6-91.95-16.42,41.06-6.75,59.36-3,65.07,4,6,15.08,18.5,26.86,29.54,8.29,7.77,13.46,11.55,12.76,12.76-.86,1.51-10.58-1.34-48.32-19.71C1252.62,939.71,1247.44,941.3,1245.56,945.28Z"/><path class="cls-98" d="M1225.36,810.94s2.61,20.82,10.29,25.59,20.11,11,21.48,12.7-47.61,6.95-71.88-5.3h0c8-1.67,10.17-2.28,10.17-2.28a44.55,44.55,0,0,0,10.28-4.07,34.93,34.93,0,0,0,11.3-10.45l-.09-11.53Z"/><path class="cls-99" d="M1226.53,818.31s-5,6.88-12.87,4c-7-2.57-2.84-20.75,2.75-22.82a9.89,9.89,0,0,1,7.56,1c1.61,1,5.9,6.34,3.44,12.31,1.78-.51,3.34-.05,3.73.83.5,1.12-1,2.64-1.34,3A6,6,0,0,1,1226.53,818.31Z"/><path class="cls-100" d="M1152.21,877.14l66.81,6.25a3.43,3.43,0,0,1,3,2.46l24.93,87.06a3.42,3.42,0,0,1-3.59,4.35l-67.35-6a3.4,3.4,0,0,1-3-2.48l-24.39-87.37A3.42,3.42,0,0,1,1152.21,877.14Z"/><path class="cls-101" d="M1255.09,942.56s-23-23.55-32.37-27-1.07,21.35,4.41,24.85,7.63,4.84,11.91,5.38l4.28.53,5.62,3S1256.16,948.44,1255.09,942.56Z"/><path class="cls-102" d="M1196.68,952.44c-2.52-13.76,5.24-24.44-2.2-37.34-7.65-13.27-21.09-11-30.74-22-3.07-3.48-5.83-8.41-7.19-15.6l-4.34-.4a3.42,3.42,0,0,0-3.61,4.32L1173,968.83a3.4,3.4,0,0,0,3,2.48l34.2,3C1201.48,966.52,1197.88,959,1196.68,952.44Z"/><path class="cls-8" d="M144.94,886.92l-4.26-5.28a19,19,0,0,1,3.62-27.28L488.91,594.08l26.49,35.73L173,890.08A20.39,20.39,0,0,1,144.94,886.92Z"/><path class="cls-8" d="M788.82,666.28C690.89,743,548.73,723.67,471.23,619.65c-79.36-106.51-58.81-257.88,45.88-334.47C619.93,210,762,238,834.6,344.31,905.54,448.2,885.06,590.88,788.82,666.28ZM767.9,636.93c81.36-63.41,98.56-183.79,38.45-271.21-61.28-89.13-180.61-112.08-266.61-48.81-87.33,64.24-104.58,190.75-38.54,280C566,684.46,685.34,701.28,767.9,636.93Z"/><path class="cls-10" d="M488.91,594.08,445,627.26c2.38,17-.9,28.48-5.53,36.41-17.39,29.87-59,19.5-96.67,60.84-18.89,20.74-11.61,26.87-30.39,43.39-31,27.32-54.74,13.91-82.08,38.44C202.65,831.15,209.7,860.29,191,866c-8,2.45-20.23.44-39.46-17.11l-7.2,5.45a19,19,0,0,0-3.62,27.28l4.26,5.28A20.39,20.39,0,0,0,173,890.08L515.4,629.81Z"/><path class="cls-7" d="M800,673.58C702.09,750.31,559.92,731,482.43,627c-79.37-106.52-58.82-257.89,45.88-334.47,102.81-75.2,244.9-47.17,317.49,59.13C916.73,455.49,896.26,598.17,800,673.58Zm-20.93-29.35c81.36-63.42,98.56-183.8,38.46-271.22-61.28-89.13-180.62-112.08-266.62-48.8-87.32,64.24-104.58,190.75-38.53,280C577.14,691.76,696.53,708.58,779.09,644.23Z"/><path class="cls-8" d="M792.63,663.22C700.12,735.57,566,717.09,493,618.9c-74.62-100.41-55.24-243,43.29-315.18,96.85-71,230.89-44.78,299.49,55.45C903,457.24,883.63,592.05,792.63,663.22Zm-13.54-19c81.36-63.42,98.56-183.8,38.46-271.22-61.28-89.13-180.62-112.08-266.62-48.8-87.32,64.24-104.58,190.75-38.53,280C577.14,691.76,696.53,708.58,779.09,644.23Z"/><path class="cls-103" d="M431,862.19c6.22,0,87.12,47.71,93.35,91.28s-70.53,4.14-70.53,4.14Z"/><path class="cls-104" d="M321.41,1163.36c5,34.37,9.31,70.86,12.46,109.31,3.78,46.12,5.5,89.79,5.76,130.63l14.48-1.1a571.67,571.67,0,0,0,27.21-162.26A569.71,569.71,0,0,0,373,1130.31Z"/><path class="cls-105" d="M420.62,1138.09c-25,20.07-.05,67.52-6.23,132.77-2.67,28.2-12,68.64-43.56,116.16l10.37,2.08c42.94-40.45,64-81.18,74.68-107.87,15.17-37.8,40.13-123.31,8.3-145.21C452.26,1127.82,432.45,1128.59,420.62,1138.09Z"/><path class="cls-106" d="M386.75,775.69s5.25-15.55-15.22-17.31-26,25.84-3.37,34.9Z"/><path class="cls-107" d="M444.07,820.1c-3.89,12.9-5.83,19.36-9.07,22.68-8.49,8.71-22.41,7.56-50.23,5.26-13-1.07-19.59-1.67-23.4-4.86-13.28-11.12-11.18-40.33,2.2-58.47a53.49,53.49,0,0,1,19.14-15.77c7.43-3.89,24.52-12.82,42.37-4.88,13.5,6,22.82,19.63,23.85,32.63C449.38,802.44,447.61,808.33,444.07,820.1Z"/><path class="cls-108" d="M456.69,888.38c12.75,21.74,15.1,45.74,15.58,56.37a100.38,100.38,0,0,1-.24,13.86A180.57,180.57,0,0,1,469,979.5a210.44,210.44,0,0,1-8.58,29.91c-10.64,29.11,10.68,99.74,16.25,120.38,7.85,29.15,14.71,71.54,8.79,127.51a239.39,239.39,0,0,0-54.28-8.72,218.23,218.23,0,0,0-40.11,1.78c-31,4.29-46.66,13.29-91.91,16.56-22.19,1.6-42.48,1.18-65.6-10.22-4.93-2.43-40.75-20.09-40.76-41.91a4.17,4.17,0,0,1,.06-1.07c1.66-6,24.89,2.16,43.17-5.1,19.76-7.85,14.06-26,37.34-39.41,16.58-9.58,26.57-4.49,33.19-14.52,4.8-7.27,2.36-14.18.11-37,0,0-1.12-11.27-2.18-39.71-1.21-32.09,12-52.74,18.78-72.76,8-23.74,11.82-60.51-9.91-116,8.26-6.49,14.14-18.29,32.78-28.11,24.67-13,49.11-17.64,68.66-7.57C425.68,859.07,443.27,865.48,456.69,888.38Z"/><path class="cls-109" d="M456.69,888.38c12.75,21.74,15.1,45.74,15.58,56.37a100.38,100.38,0,0,1-.24,13.86A180.57,180.57,0,0,1,469,979.5a210.44,210.44,0,0,1-8.58,29.91c-10.64,29.11,10.68,99.74,16.25,120.38,7.85,29.15,14.71,71.54,8.79,127.51a239.39,239.39,0,0,0-54.28-8.72,218.23,218.23,0,0,0-40.11,1.78c-31,4.29-46.66,13.29-91.91,16.56-22.19,1.6-42.48,1.18-65.6-10.22-4.93-2.43-40.75-20.09-40.76-41.91a4.17,4.17,0,0,1,.06-1.07c1.66-6,24.89,2.16,43.17-5.1,19.76-7.85,14.06-26,37.34-39.41,16.58-9.58,26.57-4.49,33.19-14.52,4.8-7.27,2.36-14.18.11-37,0,0-1.12-11.27-2.18-39.71-1.21-32.09,12-52.74,18.78-72.76,8-23.74,11.82-60.51-9.91-116,8.26-6.49,14.14-18.29,32.78-28.11,24.67-13,49.11-17.64,68.66-7.57C425.68,859.07,443.27,865.48,456.69,888.38Z"/><path class="cls-110" d="M407,822.37c3.25,7,5.71,15.72.75,20.86-3,3.14-7.64,4.59-12.18,5.94-10.73,3.19-15.32,1-17.62,3.35-4.6,4.7,7,27.22,25.7,31.92,16.61,4.18,35.58-6.17,35.65-14,.07-8.26-21.19-11.29-22.15-23.29-.42-5.14,3.08-9.61,5.8-12.39l2.4.42Z"/><path class="cls-111" d="M414,833.15s3.67,8.84,12.71,6.15c11.15-3.32,3.48-33,.27-33.91-3.73-1-5,4.61-12.84,5.16-3.29.23-7.14-2.92-7.41,1.82-.3,5.38,3.8,13.51,3.8,13.51s-3.3-1.37-2.92,1.37C408.14,830.84,411.36,832.21,414,833.15Z"/><path class="cls-112" d="M370.83,1387s-4.15,2.08-2.08,10.38,16.6,12.44,24.9,16.59,6.22-6.22,2.07-10.37L381.2,1389.1Z"/><path class="cls-113" d="M354.23,1401.55s18.67,12.44,24.9,14.52-2.08,8.29-14.52,8.29-24.9-4.14-27-6.22,2.07-16.59,2.07-16.59Z"/><path class="cls-114" d="M419.58,1114.24c-10.8-39.36-43.44-36.42-56-74.68-12.31-37.48,13.57-56.81,4.15-99.58-6.56-29.75-25.82-51-41.21-64.36-5.18,5.26-8.87,10.11-13.19,13.5,21.73,55.54,18,92.31,9.91,116-6.79,20-20,40.67-18.78,72.76,1.06,28.44,2.18,39.71,2.18,39.71,2.25,22.87,4.69,29.78-.11,37-6.62,10-16.61,4.94-33.19,14.52-23.28,13.45-17.58,31.56-37.34,39.41-18.28,7.26-41.51-.94-43.17,5.1a4.17,4.17,0,0,0-.06,1.07c0,21.82,35.83,39.48,40.76,41.91,23.12,11.4,43.41,11.82,65.6,10.22,45.25-3.27,60.86-12.27,91.91-16.56a218.23,218.23,0,0,1,40.11-1.78c3.56.16,7,.41,10.37.7-19.91-22.08-26.75-41.94-28.16-58.29C410.67,1159.72,428.21,1145.7,419.58,1114.24Z"/><path class="cls-115" d="M396.41,983.49l11.7-13.33a7,7,0,0,1,6.32-2.31l12.84,2a9.55,9.55,0,0,1-8.3,6.44c-6.46.44-8.47,8-12.87,10.48l-4.4,2.53Z"/><path class="cls-116" d="M321.1,872.53c2.24-1.66,33.63-24.56,47.65-14.49s2.6,48,.51,54.91c-13,42.73-40.85,59.89-35.5,70.3,2.75,5.36,15.19,8.92,62.47-3.17l8.44,10c-3.92,5.94-19.85,28.54-50.35,36.38-23.89,6.14-56.83,3.26-74.61-16.87C249.18,975,279.84,903.18,321.1,872.53Z"/><path class="cls-117" d="M497.1,918.26l2.08-17.61a7,7,0,0,0-2.51-6.24l-10.06-8.23a9.55,9.55,0,0,0,.77,10.48c4,5.1-.24,11.61.82,16.58l1.07,5Z"/><path class="cls-118" d="M488.39,918.2s-4.63,51,23.18,67.2,37.07-30.12-11.59-67.2Z"/><path class="cls-119" d="M1234.65,407.17c80,3.51,143.47,63,143.47,133s-63.45,126.38-143.47,126c-82-.38-150-60-150-133.13S1152.64,403.56,1234.65,407.17Z"/><path class="cls-120" d="M1238.74,395.38c80,3.52,143.48,63,143.48,133s-63.46,126.37-143.48,126c-82-.39-150-60-150-133.14S1156.74,391.78,1238.74,395.38Z"/><g class="cls-121"><path class="cls-9" d="M1238.32,412.32c69.54,3.06,124.69,54.77,124.69,115.57s-55.15,109.83-124.69,109.51C1167,637.07,1108,585.26,1108,521.69S1167,409.19,1238.32,412.32Z"/></g><path class="cls-122" d="M1363,527.89c0-60.8-55.15-112.51-124.69-115.57-50.07-2.2-94.09,21.31-115.88,57.52,23.61-29.42,63.28-47.68,107.69-45.73,69.54,3.05,124.69,54.76,124.69,115.57a99.64,99.64,0,0,1-14.37,51.46C1354.68,573.29,1363,551.48,1363,527.89Z"/><path class="cls-2" d="M1302.64,520.51A96.43,96.43,0,0,0,1234,492.1c-26,0-49.21,7.8-67.53,26.12-3.79,3.79-4.93,12.23-1.14,16a9.71,9.71,0,0,0,13.73,0,77.79,77.79,0,0,1,109.88,0,9.65,9.65,0,0,0,6.87,2.84,9.79,9.79,0,0,0,4.61-1.16h0a13.42,13.42,0,0,0,7.33-10.92,21.18,21.18,0,0,0-2.35,1A9.6,9.6,0,0,0,1302.64,520.51Z"/><path class="cls-2" d="M1275.17,548c-22.72-22.71-58.35-25.28-81.07-2.56-3.79,3.79-5.13,12.51-1.33,16.3a9.71,9.71,0,0,0,13.73,0,38.89,38.89,0,0,1,54.94,0,9.7,9.7,0,0,0,13.47.24h0a16.27,16.27,0,0,0,5.43-10.43l-2.35,3A9.66,9.66,0,0,0,1275.17,548Z"/><path class="cls-2" d="M1332.93,499.36a9.61,9.61,0,0,0-2.82-6.32A135,135,0,0,0,1234,453.27c-36.35,0-68.86,11.16-94.5,36.81-3.79,3.79-5.43,12.9-1.64,16.69a9.71,9.71,0,0,0,13.73,0,116.7,116.7,0,0,1,164.82,0,9.64,9.64,0,0,0,11.06,1.88h0l.23-.09a13.17,13.17,0,0,0,7.34-10.1C1334.28,498.8,1333.58,499.09,1332.93,499.36Z"/><path class="cls-2" d="M1253.36,588A19.42,19.42,0,0,0,1234,569.75c-5.19,0-9.55.39-13.22,4.06a23.79,23.79,0,0,0-6.2,15.37A19.43,19.43,0,0,0,1234,608.6a20,20,0,0,0,13.16-5.08h0s8.91-7,8.59-18.44A25.76,25.76,0,0,0,1253.36,588Z"/><path class="cls-2" d="M1325.58,505.89a9.66,9.66,0,0,1-6.87-2.85,116.7,116.7,0,0,0-164.82,0,9.71,9.71,0,0,1-13.73-13.73,135.06,135.06,0,0,1,96.14-39.77h0a135,135,0,0,1,96.14,39.77,9.72,9.72,0,0,1-6.86,16.58Z"/><path class="cls-2" d="M1298.11,533.36a9.66,9.66,0,0,1-6.87-2.85,77.81,77.81,0,0,0-109.88,0,9.71,9.71,0,1,1-13.73-13.73,97.2,97.2,0,0,1,137.34,0,9.72,9.72,0,0,1-6.86,16.58Z"/><path class="cls-2" d="M1270.64,560.83a9.68,9.68,0,0,1-6.87-2.85,38.91,38.91,0,0,0-54.94,0,9.71,9.71,0,0,1-13.73-13.73,58.33,58.33,0,0,1,82.4,0,9.72,9.72,0,0,1-6.86,16.58Z"/><path class="cls-2" d="M1236.3,604.87a19.41,19.41,0,1,1,13.73-5.68A19.26,19.26,0,0,1,1236.3,604.87Z"/></g></g></svg>